%TF.GenerationSoftware,KiCad,Pcbnew,10.0.4*%
%TF.CreationDate,2026-10-03T22:47:07+02:00*%
%TF.ProjectId,00-air-temp-monitor,30302d61-6972-42d7-9465-6d702d6d6f6e,rev?*%
%TF.SameCoordinates,Original*%
%TF.FileFunction,Copper,L2,Inr*%
%TF.FilePolarity,Positive*%
%FSLAX46Y46*%
G04 Gerber Fmt 4.6, Leading zero omitted, Abs format (unit mm)*
G04 Created by KiCad (PCBNEW 10.0.4) date 2026-10-03 22:47:07*
%MOMM*%
%LPD*%
G01*
G04 APERTURE LIST*
G04 Aperture macros list*
%AMRoundRect*
0 Rectangle with rounded corners*
0 $1 Rounding radius*
0 $2 $3 $4 $5 $6 $7 $8 $9 X,Y pos of 4 corners*
0 Add a 4 corners polygon primitive as box body*
4,1,4,$2,$3,$4,$5,$6,$7,$8,$9,$2,$3,0*
0 Add four circle primitives for the rounded corners*
1,1,$1+$1,$2,$3*
1,1,$1+$1,$4,$5*
1,1,$1+$1,$6,$7*
1,1,$1+$1,$8,$9*
0 Add four rect primitives between the rounded corners*
20,1,$1+$1,$2,$3,$4,$5,0*
20,1,$1+$1,$4,$5,$6,$7,0*
20,1,$1+$1,$6,$7,$8,$9,0*
20,1,$1+$1,$8,$9,$2,$3,0*%
G04 Aperture macros list end*
%TA.AperFunction,WasherPad*%
%ADD10C,3.000000*%
%TD*%
%TA.AperFunction,ComponentPad*%
%ADD11RoundRect,0.250000X-0.600000X-0.600000X0.600000X-0.600000X0.600000X0.600000X-0.600000X0.600000X0*%
%TD*%
%TA.AperFunction,ComponentPad*%
%ADD12C,1.700000*%
%TD*%
%TA.AperFunction,ComponentPad*%
%ADD13R,1.700000X1.700000*%
%TD*%
%TA.AperFunction,ViaPad*%
%ADD14C,0.600000*%
%TD*%
%TA.AperFunction,ViaPad*%
%ADD15C,0.500000*%
%TD*%
%TA.AperFunction,ViaPad*%
%ADD16C,0.400000*%
%TD*%
G04 APERTURE END LIST*
D10*
%TO.N,*%
%TO.C,U3*%
X91948000Y-84888000D03*
X91948000Y-108688000D03*
X115248000Y-84888000D03*
X115248000Y-108688000D03*
D11*
%TO.N,GND*%
X99788000Y-84328000D03*
D12*
%TO.N,+3V3*%
X102328000Y-84328000D03*
%TO.N,/I2C1_SCL*%
X104868000Y-84328000D03*
%TO.N,/I2C1_SDA*%
X107408000Y-84328000D03*
%TD*%
D13*
%TO.N,+3V3*%
%TO.C,J1*%
X110109000Y-108585000D03*
D12*
%TO.N,/SWDIO*%
X107569000Y-108585000D03*
%TO.N,/SWCLK*%
X105029000Y-108585000D03*
%TO.N,GND*%
X102489000Y-108585000D03*
%TD*%
D14*
%TO.N,+3V3*%
X121920000Y-80327600D03*
X98024500Y-107188000D03*
X103691500Y-97536000D03*
X113792000Y-93853000D03*
X115316000Y-94869000D03*
X102283000Y-102616000D03*
X113284000Y-89027000D03*
X102283000Y-104648000D03*
X98024500Y-108204000D03*
X102283000Y-103632000D03*
D15*
X96647000Y-81280000D03*
%TO.N,Net-(U2-FB)*%
X94976500Y-106172000D03*
D14*
%TO.N,GND*%
X119380000Y-88900000D03*
X114300000Y-104140000D03*
X86360000Y-111760000D03*
D15*
X109956600Y-95326200D03*
D14*
X93980000Y-93980000D03*
X88900000Y-81280000D03*
X96520000Y-109220000D03*
X114300000Y-99060000D03*
X91440000Y-81280000D03*
X88900000Y-109220000D03*
X121920000Y-111760000D03*
X91440000Y-101600000D03*
X111760000Y-104140000D03*
X112776000Y-97028000D03*
X96520000Y-93980000D03*
X99060000Y-93980000D03*
X104140000Y-78740000D03*
X86360000Y-101600000D03*
X106680000Y-101600000D03*
X121920000Y-88900000D03*
X88900000Y-86360000D03*
X93980000Y-91440000D03*
D16*
X101854000Y-92837000D03*
D14*
X88900000Y-78740000D03*
X111760000Y-78740000D03*
X86360000Y-104140000D03*
X96520000Y-111760000D03*
X96627500Y-101854000D03*
X116840000Y-104140000D03*
X121920000Y-106680000D03*
X86360000Y-91440000D03*
D16*
X99421500Y-103251000D03*
D14*
X101600000Y-81280000D03*
X106680000Y-78740000D03*
X114300000Y-101600000D03*
X118237000Y-96901000D03*
X91440000Y-88900000D03*
D15*
X121539000Y-77597000D03*
D14*
X96520000Y-88900000D03*
D16*
X99421500Y-102616000D03*
D14*
X86360000Y-86360000D03*
X121920000Y-104140000D03*
D16*
X97008500Y-103124000D03*
D14*
X88900000Y-83820000D03*
X118237000Y-96139000D03*
X98024500Y-106172000D03*
X86360000Y-106680000D03*
D16*
X99421500Y-104521000D03*
D14*
X91440000Y-99060000D03*
X88900000Y-99060000D03*
X94107000Y-77978000D03*
D15*
X122174000Y-77597000D03*
D14*
X93980000Y-111760000D03*
X99060000Y-78740000D03*
X106680000Y-111760000D03*
D16*
X99421500Y-103886000D03*
D15*
X116459000Y-78105000D03*
X101727000Y-96901000D03*
D16*
X101219000Y-92837000D03*
D14*
X99060000Y-109220000D03*
X119380000Y-104140000D03*
X88900000Y-106680000D03*
X111760000Y-81280000D03*
X86360000Y-109220000D03*
X88900000Y-101600000D03*
D15*
X101727000Y-96139000D03*
D14*
X99060000Y-96520000D03*
X114300000Y-111760000D03*
X91440000Y-111760000D03*
X88900000Y-111760000D03*
X121920000Y-83820000D03*
X118237000Y-95377000D03*
X114681000Y-96774000D03*
X119380000Y-91440000D03*
X99060000Y-81280000D03*
X109220000Y-111760000D03*
X104140000Y-111760000D03*
X119380000Y-106680000D03*
X111760000Y-83820000D03*
X106680000Y-99060000D03*
X121920000Y-86360000D03*
X119380000Y-86360000D03*
X86360000Y-88900000D03*
D16*
X97008500Y-103632000D03*
D14*
X106680000Y-81280000D03*
X116840000Y-99060000D03*
X96520000Y-96520000D03*
X116840000Y-101600000D03*
X106680000Y-88900000D03*
X91440000Y-104140000D03*
X118237000Y-94615000D03*
X119380000Y-99060000D03*
X119380000Y-101600000D03*
X119380000Y-83820000D03*
X88900000Y-88900000D03*
X119380000Y-109220000D03*
X99060000Y-91440000D03*
X111760000Y-101600000D03*
X96754500Y-100076000D03*
X121920000Y-101600000D03*
X93980000Y-106680000D03*
X118237000Y-93091000D03*
D16*
X97008500Y-104140000D03*
D14*
X101600000Y-111760000D03*
D15*
X116447000Y-78740000D03*
D14*
X121920000Y-109220000D03*
X96520000Y-78740000D03*
X109220000Y-81280000D03*
X106680000Y-96520000D03*
X88900000Y-91440000D03*
X116840000Y-111760000D03*
X109220000Y-83820000D03*
X95992500Y-100076000D03*
X93980000Y-88900000D03*
X91440000Y-78740000D03*
X121920000Y-91440000D03*
X99060000Y-111760000D03*
X119380000Y-111760000D03*
X109220000Y-78740000D03*
D16*
X100584000Y-92837000D03*
D14*
X118237000Y-93853000D03*
X104140000Y-81280000D03*
X93980000Y-86360000D03*
X86360000Y-99060000D03*
X97389500Y-101854000D03*
X111760000Y-111760000D03*
X113792000Y-97028000D03*
X101600000Y-78740000D03*
X86360000Y-83820000D03*
X109220000Y-104140000D03*
X88900000Y-104140000D03*
X121920000Y-99060000D03*
X111760000Y-86360000D03*
X109220000Y-86360000D03*
X114681000Y-96012000D03*
X96520000Y-91440000D03*
X91440000Y-91440000D03*
%TO.N,/I2C1_SCL*%
X116205000Y-92964000D03*
D15*
%TO.N,/I2C1_SDA*%
X116459000Y-77216000D03*
X114173000Y-91186000D03*
%TO.N,+BATT*%
X99167500Y-105283000D03*
D14*
X94849500Y-100330000D03*
%TO.N,/NRST*%
X106680000Y-93980000D03*
D15*
%TO.N,/SWDIO*%
X109905800Y-92721000D03*
%TO.N,/SWCLK*%
X109397800Y-92071000D03*
%TD*%
%TA.AperFunction,Conductor*%
%TO.N,GND*%
G36*
X114629768Y-76720185D02*
G01*
X114675523Y-76772989D01*
X114686729Y-76824452D01*
X114688500Y-81379006D01*
X114688500Y-81456430D01*
X114722602Y-81605839D01*
X114789098Y-81743919D01*
X114789099Y-81743920D01*
X114789100Y-81743922D01*
X114884655Y-81863745D01*
X115004478Y-81959300D01*
X115004479Y-81959300D01*
X115004480Y-81959301D01*
X115142560Y-82025797D01*
X115291969Y-82059899D01*
X115291974Y-82059899D01*
X115291976Y-82059900D01*
X115302713Y-82059900D01*
X117390979Y-82059900D01*
X117407167Y-82060961D01*
X117409107Y-82061216D01*
X117409109Y-82061217D01*
X117409111Y-82061217D01*
X117474938Y-82061217D01*
X117475001Y-82061217D01*
X117547303Y-82061144D01*
X117547311Y-82061142D01*
X117547313Y-82061142D01*
X117688680Y-82030798D01*
X117688682Y-82030797D01*
X117688681Y-82030797D01*
X117688687Y-82030796D01*
X117820553Y-81971452D01*
X117937027Y-81885755D01*
X118032923Y-81777522D01*
X118103968Y-81651574D01*
X118146999Y-81513521D01*
X118159163Y-81379794D01*
X118160098Y-81369516D01*
X118160097Y-81369514D01*
X118160098Y-81369511D01*
X118155993Y-81335389D01*
X118156720Y-81331042D01*
X118155105Y-81320578D01*
X118155105Y-81281377D01*
X118155104Y-81281369D01*
X118121002Y-81131960D01*
X118054506Y-80993880D01*
X118054505Y-80993879D01*
X118054505Y-80993878D01*
X117958950Y-80874055D01*
X117839127Y-80778500D01*
X117839125Y-80778499D01*
X117839124Y-80778498D01*
X117701044Y-80712002D01*
X117551635Y-80677900D01*
X117551629Y-80677900D01*
X117540628Y-80677900D01*
X117540369Y-80677831D01*
X117474353Y-80677900D01*
X117409107Y-80677900D01*
X117401760Y-80677900D01*
X117400590Y-80677976D01*
X116192962Y-80679239D01*
X116125902Y-80659624D01*
X116080092Y-80606868D01*
X116068832Y-80555201D01*
X116068843Y-80521441D01*
X116069688Y-77783894D01*
X116089393Y-77716861D01*
X116142211Y-77671123D01*
X116211373Y-77661201D01*
X116255690Y-77676547D01*
X116265811Y-77682391D01*
X116265813Y-77682391D01*
X116265814Y-77682392D01*
X116393108Y-77716500D01*
X116393110Y-77716500D01*
X116524890Y-77716500D01*
X116524892Y-77716500D01*
X116652186Y-77682392D01*
X116766314Y-77616500D01*
X116859500Y-77523314D01*
X116925392Y-77409186D01*
X116959500Y-77281892D01*
X116959500Y-77150108D01*
X116925392Y-77022814D01*
X116859500Y-76908686D01*
X116859495Y-76908681D01*
X116854553Y-76902240D01*
X116856676Y-76900610D01*
X116829510Y-76850858D01*
X116834494Y-76781166D01*
X116876366Y-76725233D01*
X116941830Y-76700816D01*
X116950676Y-76700500D01*
X122311500Y-76700500D01*
X122378539Y-76720185D01*
X122424294Y-76772989D01*
X122435500Y-76824500D01*
X122435500Y-79774787D01*
X122415815Y-79841826D01*
X122363011Y-79887581D01*
X122293853Y-79897525D01*
X122249500Y-79882174D01*
X122132488Y-79814617D01*
X122132489Y-79814617D01*
X122121006Y-79811540D01*
X121992475Y-79777100D01*
X121847525Y-79777100D01*
X121718993Y-79811540D01*
X121707511Y-79814617D01*
X121581988Y-79887088D01*
X121581982Y-79887093D01*
X121479493Y-79989582D01*
X121479488Y-79989588D01*
X121407017Y-80115111D01*
X121407016Y-80115115D01*
X121369500Y-80255125D01*
X121369500Y-80255127D01*
X121369500Y-80400074D01*
X121402020Y-80521441D01*
X121400357Y-80591291D01*
X121361194Y-80649153D01*
X121296966Y-80676657D01*
X121282307Y-80677534D01*
X119268142Y-80678546D01*
X119252015Y-80677501D01*
X119223650Y-80673795D01*
X119223648Y-80673795D01*
X119223647Y-80673795D01*
X119198894Y-80675594D01*
X119085362Y-80683845D01*
X118985545Y-80712002D01*
X118951920Y-80721487D01*
X118951918Y-80721487D01*
X118951914Y-80721489D01*
X118828771Y-80785178D01*
X118828763Y-80785183D01*
X118720926Y-80872328D01*
X118632806Y-80979368D01*
X118567997Y-81101939D01*
X118529145Y-81235039D01*
X118517839Y-81373229D01*
X118521686Y-81404900D01*
X118522591Y-81419732D01*
X118522621Y-81451542D01*
X118527113Y-81473187D01*
X118534009Y-81506423D01*
X118534135Y-81507457D01*
X118534318Y-81507913D01*
X118535185Y-81512091D01*
X118535184Y-81512094D01*
X118550971Y-81588170D01*
X118550974Y-81588180D01*
X118578465Y-81651575D01*
X118606491Y-81716204D01*
X118686860Y-81830283D01*
X118788728Y-81925655D01*
X118788734Y-81925658D01*
X118788737Y-81925661D01*
X118907842Y-81998340D01*
X118907843Y-81998341D01*
X118907847Y-81998342D01*
X118907848Y-81998343D01*
X119039251Y-82045316D01*
X119140570Y-82059462D01*
X119140571Y-82059463D01*
X119146144Y-82060241D01*
X119148142Y-82060520D01*
X119150022Y-82061024D01*
X119151743Y-82061023D01*
X119177456Y-82064614D01*
X119228981Y-82061264D01*
X119236987Y-82061004D01*
X122311473Y-82060322D01*
X122378516Y-82079992D01*
X122424283Y-82132786D01*
X122435500Y-82184322D01*
X122435500Y-113167500D01*
X122415815Y-113234539D01*
X122363011Y-113280294D01*
X122311500Y-113291500D01*
X84952500Y-113291500D01*
X84885461Y-113271815D01*
X84839706Y-113219011D01*
X84828500Y-113167500D01*
X84828500Y-108573258D01*
X90197500Y-108573258D01*
X90197500Y-108802741D01*
X90210454Y-108901130D01*
X90227452Y-109030238D01*
X90286842Y-109251887D01*
X90374650Y-109463876D01*
X90374656Y-109463888D01*
X90456053Y-109604873D01*
X90489392Y-109662617D01*
X90629081Y-109844661D01*
X90629089Y-109844670D01*
X90791330Y-110006911D01*
X90791338Y-110006918D01*
X90973382Y-110146607D01*
X90973385Y-110146608D01*
X90973388Y-110146611D01*
X91172112Y-110261344D01*
X91172117Y-110261346D01*
X91172123Y-110261349D01*
X91263480Y-110299190D01*
X91384113Y-110349158D01*
X91605762Y-110408548D01*
X91833266Y-110438500D01*
X91833273Y-110438500D01*
X92062727Y-110438500D01*
X92062734Y-110438500D01*
X92290238Y-110408548D01*
X92511887Y-110349158D01*
X92723888Y-110261344D01*
X92922612Y-110146611D01*
X93104661Y-110006919D01*
X93104665Y-110006914D01*
X93104670Y-110006911D01*
X93266911Y-109844670D01*
X93266914Y-109844665D01*
X93266919Y-109844661D01*
X93406611Y-109662612D01*
X93521344Y-109463888D01*
X93609158Y-109251887D01*
X93668548Y-109030238D01*
X93698500Y-108802734D01*
X93698500Y-108573266D01*
X93668548Y-108345762D01*
X93609158Y-108124113D01*
X93521344Y-107912112D01*
X93406611Y-107713388D01*
X93406608Y-107713385D01*
X93406607Y-107713382D01*
X93266918Y-107531338D01*
X93266911Y-107531330D01*
X93104670Y-107369089D01*
X93104661Y-107369081D01*
X92922617Y-107229392D01*
X92922612Y-107229389D01*
X92725393Y-107115525D01*
X97474000Y-107115525D01*
X97474000Y-107260475D01*
X97511516Y-107400485D01*
X97511517Y-107400488D01*
X97583988Y-107526011D01*
X97583993Y-107526017D01*
X97666295Y-107608319D01*
X97699780Y-107669642D01*
X97694796Y-107739334D01*
X97666295Y-107783681D01*
X97583993Y-107865982D01*
X97583988Y-107865988D01*
X97511517Y-107991511D01*
X97511516Y-107991515D01*
X97474000Y-108131525D01*
X97474000Y-108276475D01*
X97492565Y-108345759D01*
X97511517Y-108416488D01*
X97583988Y-108542011D01*
X97583990Y-108542013D01*
X97583991Y-108542015D01*
X97686485Y-108644509D01*
X97686486Y-108644510D01*
X97686488Y-108644511D01*
X97812011Y-108716982D01*
X97812012Y-108716982D01*
X97812015Y-108716984D01*
X97952025Y-108754500D01*
X97952028Y-108754500D01*
X98096972Y-108754500D01*
X98096975Y-108754500D01*
X98236985Y-108716984D01*
X98362515Y-108644509D01*
X98465009Y-108542015D01*
X98501533Y-108478753D01*
X101139000Y-108478753D01*
X101139000Y-108691246D01*
X101172242Y-108901127D01*
X101172242Y-108901130D01*
X101237904Y-109103217D01*
X101334375Y-109292550D01*
X101373728Y-109346716D01*
X102006037Y-108714408D01*
X102023075Y-108777993D01*
X102088901Y-108892007D01*
X102181993Y-108985099D01*
X102296007Y-109050925D01*
X102359590Y-109067962D01*
X101727282Y-109700269D01*
X101727282Y-109700270D01*
X101781449Y-109739624D01*
X101970782Y-109836095D01*
X102172870Y-109901757D01*
X102382754Y-109935000D01*
X102595246Y-109935000D01*
X102805127Y-109901757D01*
X102805130Y-109901757D01*
X103007217Y-109836095D01*
X103196554Y-109739622D01*
X103250716Y-109700270D01*
X103250717Y-109700270D01*
X102618408Y-109067962D01*
X102681993Y-109050925D01*
X102796007Y-108985099D01*
X102889099Y-108892007D01*
X102954925Y-108777993D01*
X102971962Y-108714408D01*
X103604270Y-109346717D01*
X103604270Y-109346716D01*
X103643622Y-109292554D01*
X103740096Y-109103215D01*
X103772239Y-109004288D01*
X103811676Y-108946612D01*
X103876034Y-108919413D01*
X103944880Y-108931327D01*
X103996357Y-108978571D01*
X104008100Y-109004284D01*
X104009127Y-109007446D01*
X104031281Y-109050925D01*
X104087768Y-109161788D01*
X104189586Y-109301928D01*
X104312072Y-109424414D01*
X104452212Y-109526232D01*
X104606555Y-109604873D01*
X104771299Y-109658402D01*
X104942389Y-109685500D01*
X104942390Y-109685500D01*
X105115610Y-109685500D01*
X105115611Y-109685500D01*
X105286701Y-109658402D01*
X105451445Y-109604873D01*
X105605788Y-109526232D01*
X105745928Y-109424414D01*
X105868414Y-109301928D01*
X105970232Y-109161788D01*
X106048873Y-109007445D01*
X106102402Y-108842701D01*
X106129500Y-108671611D01*
X106129500Y-108498389D01*
X106468500Y-108498389D01*
X106468500Y-108671610D01*
X106489266Y-108802727D01*
X106495598Y-108842701D01*
X106548101Y-109004288D01*
X106549128Y-109007447D01*
X106560742Y-109030240D01*
X106627768Y-109161788D01*
X106729586Y-109301928D01*
X106852072Y-109424414D01*
X106992212Y-109526232D01*
X107146555Y-109604873D01*
X107311299Y-109658402D01*
X107482389Y-109685500D01*
X107482390Y-109685500D01*
X107655610Y-109685500D01*
X107655611Y-109685500D01*
X107826701Y-109658402D01*
X107991445Y-109604873D01*
X108145788Y-109526232D01*
X108285928Y-109424414D01*
X108408414Y-109301928D01*
X108510232Y-109161788D01*
X108588873Y-109007445D01*
X108642402Y-108842701D01*
X108669500Y-108671611D01*
X108669500Y-108498389D01*
X108642402Y-108327299D01*
X108588873Y-108162555D01*
X108510232Y-108008212D01*
X108408414Y-107868072D01*
X108285928Y-107745586D01*
X108237390Y-107710321D01*
X109008500Y-107710321D01*
X109008500Y-109459678D01*
X109023032Y-109532735D01*
X109023033Y-109532739D01*
X109023034Y-109532740D01*
X109078399Y-109615601D01*
X109148757Y-109662612D01*
X109161260Y-109670966D01*
X109161264Y-109670967D01*
X109234321Y-109685499D01*
X109234324Y-109685500D01*
X109234326Y-109685500D01*
X110983676Y-109685500D01*
X110983677Y-109685499D01*
X111056740Y-109670966D01*
X111139601Y-109615601D01*
X111194966Y-109532740D01*
X111209500Y-109459674D01*
X111209500Y-108573258D01*
X113497500Y-108573258D01*
X113497500Y-108802741D01*
X113510454Y-108901130D01*
X113527452Y-109030238D01*
X113586842Y-109251887D01*
X113674650Y-109463876D01*
X113674656Y-109463888D01*
X113756053Y-109604873D01*
X113789392Y-109662617D01*
X113929081Y-109844661D01*
X113929089Y-109844670D01*
X114091330Y-110006911D01*
X114091338Y-110006918D01*
X114273382Y-110146607D01*
X114273385Y-110146608D01*
X114273388Y-110146611D01*
X114472112Y-110261344D01*
X114472117Y-110261346D01*
X114472123Y-110261349D01*
X114563480Y-110299190D01*
X114684113Y-110349158D01*
X114905762Y-110408548D01*
X115133266Y-110438500D01*
X115133273Y-110438500D01*
X115362727Y-110438500D01*
X115362734Y-110438500D01*
X115590238Y-110408548D01*
X115811887Y-110349158D01*
X116023888Y-110261344D01*
X116222612Y-110146611D01*
X116404661Y-110006919D01*
X116404665Y-110006914D01*
X116404670Y-110006911D01*
X116566911Y-109844670D01*
X116566914Y-109844665D01*
X116566919Y-109844661D01*
X116706611Y-109662612D01*
X116821344Y-109463888D01*
X116909158Y-109251887D01*
X116968548Y-109030238D01*
X116998500Y-108802734D01*
X116998500Y-108573266D01*
X116968548Y-108345762D01*
X116909158Y-108124113D01*
X116821344Y-107912112D01*
X116706611Y-107713388D01*
X116706608Y-107713385D01*
X116706607Y-107713382D01*
X116566918Y-107531338D01*
X116566911Y-107531330D01*
X116404670Y-107369089D01*
X116404661Y-107369081D01*
X116222617Y-107229392D01*
X116023890Y-107114657D01*
X116023876Y-107114650D01*
X115811887Y-107026842D01*
X115590238Y-106967452D01*
X115552215Y-106962446D01*
X115362741Y-106937500D01*
X115362734Y-106937500D01*
X115133266Y-106937500D01*
X115133258Y-106937500D01*
X114916715Y-106966009D01*
X114905762Y-106967452D01*
X114812076Y-106992554D01*
X114684112Y-107026842D01*
X114472123Y-107114650D01*
X114472109Y-107114657D01*
X114273382Y-107229392D01*
X114091338Y-107369081D01*
X113929081Y-107531338D01*
X113789392Y-107713382D01*
X113674657Y-107912109D01*
X113674650Y-107912123D01*
X113586842Y-108124112D01*
X113527453Y-108345759D01*
X113527451Y-108345770D01*
X113497500Y-108573258D01*
X111209500Y-108573258D01*
X111209500Y-107710326D01*
X111209500Y-107710323D01*
X111209499Y-107710321D01*
X111194967Y-107637264D01*
X111194966Y-107637260D01*
X111189119Y-107628509D01*
X111139601Y-107554399D01*
X111056740Y-107499034D01*
X111056739Y-107499033D01*
X111056735Y-107499032D01*
X110983677Y-107484500D01*
X110983674Y-107484500D01*
X109234326Y-107484500D01*
X109234323Y-107484500D01*
X109161264Y-107499032D01*
X109161260Y-107499033D01*
X109078399Y-107554399D01*
X109023033Y-107637260D01*
X109023032Y-107637264D01*
X109008500Y-107710321D01*
X108237390Y-107710321D01*
X108145788Y-107643768D01*
X107991445Y-107565127D01*
X107826701Y-107511598D01*
X107826699Y-107511597D01*
X107826698Y-107511597D01*
X107695271Y-107490781D01*
X107655611Y-107484500D01*
X107482389Y-107484500D01*
X107442728Y-107490781D01*
X107311302Y-107511597D01*
X107146552Y-107565128D01*
X106992211Y-107643768D01*
X106934575Y-107685644D01*
X106852072Y-107745586D01*
X106852070Y-107745588D01*
X106852069Y-107745588D01*
X106729588Y-107868069D01*
X106729588Y-107868070D01*
X106729586Y-107868072D01*
X106697591Y-107912109D01*
X106627768Y-108008211D01*
X106549128Y-108162552D01*
X106495597Y-108327302D01*
X106468500Y-108498389D01*
X106129500Y-108498389D01*
X106102402Y-108327299D01*
X106048873Y-108162555D01*
X105970232Y-108008212D01*
X105868414Y-107868072D01*
X105745928Y-107745586D01*
X105605788Y-107643768D01*
X105451445Y-107565127D01*
X105286701Y-107511598D01*
X105286699Y-107511597D01*
X105286698Y-107511597D01*
X105155271Y-107490781D01*
X105115611Y-107484500D01*
X104942389Y-107484500D01*
X104902728Y-107490781D01*
X104771302Y-107511597D01*
X104606552Y-107565128D01*
X104452211Y-107643768D01*
X104394575Y-107685644D01*
X104312072Y-107745586D01*
X104312070Y-107745588D01*
X104312069Y-107745588D01*
X104189588Y-107868069D01*
X104189588Y-107868070D01*
X104189586Y-107868072D01*
X104157591Y-107912109D01*
X104087768Y-108008211D01*
X104009128Y-108162550D01*
X104008099Y-108165720D01*
X104007381Y-108166769D01*
X104007266Y-108167048D01*
X104007207Y-108167023D01*
X103968657Y-108223393D01*
X103904297Y-108250587D01*
X103835451Y-108238668D01*
X103783979Y-108191420D01*
X103772239Y-108165711D01*
X103740096Y-108066784D01*
X103643624Y-107877449D01*
X103604270Y-107823282D01*
X103604269Y-107823282D01*
X102971962Y-108455590D01*
X102954925Y-108392007D01*
X102889099Y-108277993D01*
X102796007Y-108184901D01*
X102681993Y-108119075D01*
X102618409Y-108102037D01*
X103250716Y-107469728D01*
X103196550Y-107430375D01*
X103007217Y-107333904D01*
X102805129Y-107268242D01*
X102595246Y-107235000D01*
X102382754Y-107235000D01*
X102172872Y-107268242D01*
X102172869Y-107268242D01*
X101970782Y-107333904D01*
X101781439Y-107430380D01*
X101727282Y-107469727D01*
X101727282Y-107469728D01*
X102359591Y-108102037D01*
X102296007Y-108119075D01*
X102181993Y-108184901D01*
X102088901Y-108277993D01*
X102023075Y-108392007D01*
X102006037Y-108455591D01*
X101373728Y-107823282D01*
X101373727Y-107823282D01*
X101334380Y-107877439D01*
X101237904Y-108066782D01*
X101172242Y-108268869D01*
X101172242Y-108268872D01*
X101139000Y-108478753D01*
X98501533Y-108478753D01*
X98537484Y-108416485D01*
X98575000Y-108276475D01*
X98575000Y-108131525D01*
X98537484Y-107991515D01*
X98465009Y-107865985D01*
X98382705Y-107783681D01*
X98381734Y-107781903D01*
X98379988Y-107780877D01*
X98365061Y-107751368D01*
X98349220Y-107722358D01*
X98349364Y-107720338D01*
X98348450Y-107718531D01*
X98351845Y-107685644D01*
X98354204Y-107652666D01*
X98355483Y-107650407D01*
X98355626Y-107649030D01*
X98359936Y-107642549D01*
X98373507Y-107618601D01*
X98377813Y-107613210D01*
X98465009Y-107526015D01*
X98537484Y-107400485D01*
X98575000Y-107260475D01*
X98575000Y-107115525D01*
X98537484Y-106975515D01*
X98532829Y-106967453D01*
X98465011Y-106849988D01*
X98465006Y-106849982D01*
X98362517Y-106747493D01*
X98362511Y-106747488D01*
X98236988Y-106675017D01*
X98236989Y-106675017D01*
X98225506Y-106671940D01*
X98096975Y-106637500D01*
X97952025Y-106637500D01*
X97823493Y-106671940D01*
X97812011Y-106675017D01*
X97686488Y-106747488D01*
X97686482Y-106747493D01*
X97583993Y-106849982D01*
X97583988Y-106849988D01*
X97511517Y-106975511D01*
X97511516Y-106975515D01*
X97474000Y-107115525D01*
X92725393Y-107115525D01*
X92723888Y-107114656D01*
X92723876Y-107114650D01*
X92511887Y-107026842D01*
X92290238Y-106967452D01*
X92252215Y-106962446D01*
X92062741Y-106937500D01*
X92062734Y-106937500D01*
X91833266Y-106937500D01*
X91833258Y-106937500D01*
X91616715Y-106966009D01*
X91605762Y-106967452D01*
X91512076Y-106992554D01*
X91384112Y-107026842D01*
X91172123Y-107114650D01*
X91172109Y-107114657D01*
X90973382Y-107229392D01*
X90791338Y-107369081D01*
X90629081Y-107531338D01*
X90489392Y-107713382D01*
X90374657Y-107912109D01*
X90374650Y-107912123D01*
X90286842Y-108124112D01*
X90227453Y-108345759D01*
X90227451Y-108345770D01*
X90197500Y-108573258D01*
X84828500Y-108573258D01*
X84828500Y-106106108D01*
X94476000Y-106106108D01*
X94476000Y-106237891D01*
X94510108Y-106365187D01*
X94543054Y-106422250D01*
X94576000Y-106479314D01*
X94669186Y-106572500D01*
X94783314Y-106638392D01*
X94910608Y-106672500D01*
X94910610Y-106672500D01*
X95042390Y-106672500D01*
X95042392Y-106672500D01*
X95169686Y-106638392D01*
X95283814Y-106572500D01*
X95377000Y-106479314D01*
X95442892Y-106365186D01*
X95477000Y-106237892D01*
X95477000Y-106106108D01*
X95442892Y-105978814D01*
X95377000Y-105864686D01*
X95283814Y-105771500D01*
X95226750Y-105738554D01*
X95169687Y-105705608D01*
X95087166Y-105683497D01*
X95042392Y-105671500D01*
X94910608Y-105671500D01*
X94783312Y-105705608D01*
X94669186Y-105771500D01*
X94669183Y-105771502D01*
X94576002Y-105864683D01*
X94576000Y-105864686D01*
X94510108Y-105978812D01*
X94476000Y-106106108D01*
X84828500Y-106106108D01*
X84828500Y-105217108D01*
X98667000Y-105217108D01*
X98667000Y-105348891D01*
X98701108Y-105476187D01*
X98734054Y-105533250D01*
X98767000Y-105590314D01*
X98860186Y-105683500D01*
X98974314Y-105749392D01*
X99101608Y-105783500D01*
X99101610Y-105783500D01*
X99233390Y-105783500D01*
X99233392Y-105783500D01*
X99360686Y-105749392D01*
X99474814Y-105683500D01*
X99568000Y-105590314D01*
X99633892Y-105476186D01*
X99668000Y-105348892D01*
X99668000Y-105217108D01*
X99633892Y-105089814D01*
X99568000Y-104975686D01*
X99474814Y-104882500D01*
X99417750Y-104849554D01*
X99360687Y-104816608D01*
X99297039Y-104799554D01*
X99233392Y-104782500D01*
X99101608Y-104782500D01*
X98974312Y-104816608D01*
X98860186Y-104882500D01*
X98860183Y-104882502D01*
X98767002Y-104975683D01*
X98767000Y-104975686D01*
X98701108Y-105089812D01*
X98667000Y-105217108D01*
X84828500Y-105217108D01*
X84828500Y-102543525D01*
X101732500Y-102543525D01*
X101732500Y-102688475D01*
X101770016Y-102828485D01*
X101770017Y-102828488D01*
X101842488Y-102954011D01*
X101842493Y-102954017D01*
X101924795Y-103036319D01*
X101958280Y-103097642D01*
X101953296Y-103167334D01*
X101924795Y-103211681D01*
X101842493Y-103293982D01*
X101842488Y-103293988D01*
X101770017Y-103419511D01*
X101770016Y-103419515D01*
X101732500Y-103559525D01*
X101732500Y-103704475D01*
X101770016Y-103844485D01*
X101770017Y-103844488D01*
X101842488Y-103970011D01*
X101842493Y-103970017D01*
X101924795Y-104052319D01*
X101958280Y-104113642D01*
X101953296Y-104183334D01*
X101924795Y-104227681D01*
X101842493Y-104309982D01*
X101842488Y-104309988D01*
X101770017Y-104435511D01*
X101770016Y-104435515D01*
X101732500Y-104575525D01*
X101732500Y-104720475D01*
X101749120Y-104782500D01*
X101770017Y-104860488D01*
X101842488Y-104986011D01*
X101842490Y-104986013D01*
X101842491Y-104986015D01*
X101944985Y-105088509D01*
X101944986Y-105088510D01*
X101944988Y-105088511D01*
X102070511Y-105160982D01*
X102070512Y-105160982D01*
X102070515Y-105160984D01*
X102210525Y-105198500D01*
X102210528Y-105198500D01*
X102355472Y-105198500D01*
X102355475Y-105198500D01*
X102495485Y-105160984D01*
X102621015Y-105088509D01*
X102723509Y-104986015D01*
X102795984Y-104860485D01*
X102833500Y-104720475D01*
X102833500Y-104575525D01*
X102795984Y-104435515D01*
X102723509Y-104309985D01*
X102641205Y-104227681D01*
X102607720Y-104166358D01*
X102612704Y-104096666D01*
X102641205Y-104052319D01*
X102723509Y-103970015D01*
X102795984Y-103844485D01*
X102833500Y-103704475D01*
X102833500Y-103559525D01*
X102795984Y-103419515D01*
X102723509Y-103293985D01*
X102641205Y-103211681D01*
X102607720Y-103150358D01*
X102612704Y-103080666D01*
X102641205Y-103036319D01*
X102723509Y-102954015D01*
X102795984Y-102828485D01*
X102833500Y-102688475D01*
X102833500Y-102543525D01*
X102795984Y-102403515D01*
X102723509Y-102277985D01*
X102621015Y-102175491D01*
X102621013Y-102175490D01*
X102621011Y-102175488D01*
X102495488Y-102103017D01*
X102495489Y-102103017D01*
X102484006Y-102099940D01*
X102355475Y-102065500D01*
X102210525Y-102065500D01*
X102081993Y-102099940D01*
X102070511Y-102103017D01*
X101944988Y-102175488D01*
X101944982Y-102175493D01*
X101842493Y-102277982D01*
X101842488Y-102277988D01*
X101770017Y-102403511D01*
X101770016Y-102403515D01*
X101732500Y-102543525D01*
X84828500Y-102543525D01*
X84828500Y-100257525D01*
X94299000Y-100257525D01*
X94299000Y-100402475D01*
X94336516Y-100542485D01*
X94336517Y-100542488D01*
X94408988Y-100668011D01*
X94408990Y-100668013D01*
X94408991Y-100668015D01*
X94511485Y-100770509D01*
X94511486Y-100770510D01*
X94511488Y-100770511D01*
X94637011Y-100842982D01*
X94637012Y-100842982D01*
X94637015Y-100842984D01*
X94777025Y-100880500D01*
X94777028Y-100880500D01*
X94921972Y-100880500D01*
X94921975Y-100880500D01*
X95061985Y-100842984D01*
X95187515Y-100770509D01*
X95290009Y-100668015D01*
X95362484Y-100542485D01*
X95400000Y-100402475D01*
X95400000Y-100257525D01*
X95362484Y-100117515D01*
X95290009Y-99991985D01*
X95187515Y-99889491D01*
X95187513Y-99889490D01*
X95187511Y-99889488D01*
X95061988Y-99817017D01*
X95061989Y-99817017D01*
X95050506Y-99813940D01*
X94921975Y-99779500D01*
X94777025Y-99779500D01*
X94648493Y-99813940D01*
X94637011Y-99817017D01*
X94511488Y-99889488D01*
X94511482Y-99889493D01*
X94408993Y-99991982D01*
X94408988Y-99991988D01*
X94336517Y-100117511D01*
X94336516Y-100117515D01*
X94299000Y-100257525D01*
X84828500Y-100257525D01*
X84828500Y-97463525D01*
X103141000Y-97463525D01*
X103141000Y-97608475D01*
X103178516Y-97748485D01*
X103178517Y-97748488D01*
X103250988Y-97874011D01*
X103250990Y-97874013D01*
X103250991Y-97874015D01*
X103353485Y-97976509D01*
X103353486Y-97976510D01*
X103353488Y-97976511D01*
X103479011Y-98048982D01*
X103479012Y-98048982D01*
X103479015Y-98048984D01*
X103619025Y-98086500D01*
X103619028Y-98086500D01*
X103763972Y-98086500D01*
X103763975Y-98086500D01*
X103903985Y-98048984D01*
X104029515Y-97976509D01*
X104132009Y-97874015D01*
X104204484Y-97748485D01*
X104242000Y-97608475D01*
X104242000Y-97463525D01*
X104204484Y-97323515D01*
X104132009Y-97197985D01*
X104029515Y-97095491D01*
X104029513Y-97095490D01*
X104029511Y-97095488D01*
X103903988Y-97023017D01*
X103903989Y-97023017D01*
X103892506Y-97019940D01*
X103763975Y-96985500D01*
X103619025Y-96985500D01*
X103490493Y-97019940D01*
X103479011Y-97023017D01*
X103353488Y-97095488D01*
X103353482Y-97095493D01*
X103250993Y-97197982D01*
X103250988Y-97197988D01*
X103178517Y-97323511D01*
X103178516Y-97323515D01*
X103141000Y-97463525D01*
X84828500Y-97463525D01*
X84828500Y-94796525D01*
X114765500Y-94796525D01*
X114765500Y-94941475D01*
X114803016Y-95081485D01*
X114803017Y-95081488D01*
X114875488Y-95207011D01*
X114875490Y-95207013D01*
X114875491Y-95207015D01*
X114977985Y-95309509D01*
X114977986Y-95309510D01*
X114977988Y-95309511D01*
X115103511Y-95381982D01*
X115103512Y-95381982D01*
X115103515Y-95381984D01*
X115243525Y-95419500D01*
X115243528Y-95419500D01*
X115388472Y-95419500D01*
X115388475Y-95419500D01*
X115528485Y-95381984D01*
X115654015Y-95309509D01*
X115756509Y-95207015D01*
X115828984Y-95081485D01*
X115866500Y-94941475D01*
X115866500Y-94796525D01*
X115828984Y-94656515D01*
X115756509Y-94530985D01*
X115654015Y-94428491D01*
X115654013Y-94428490D01*
X115654011Y-94428488D01*
X115528488Y-94356017D01*
X115528489Y-94356017D01*
X115517006Y-94352940D01*
X115388475Y-94318500D01*
X115243525Y-94318500D01*
X115114993Y-94352940D01*
X115103511Y-94356017D01*
X114977988Y-94428488D01*
X114977982Y-94428493D01*
X114875493Y-94530982D01*
X114875488Y-94530988D01*
X114803017Y-94656511D01*
X114803016Y-94656515D01*
X114765500Y-94796525D01*
X84828500Y-94796525D01*
X84828500Y-93907525D01*
X106129500Y-93907525D01*
X106129500Y-94052475D01*
X106166621Y-94191011D01*
X106167017Y-94192488D01*
X106239488Y-94318011D01*
X106239490Y-94318013D01*
X106239491Y-94318015D01*
X106341985Y-94420509D01*
X106341986Y-94420510D01*
X106341988Y-94420511D01*
X106467511Y-94492982D01*
X106467512Y-94492982D01*
X106467515Y-94492984D01*
X106607525Y-94530500D01*
X106607528Y-94530500D01*
X106752472Y-94530500D01*
X106752475Y-94530500D01*
X106892485Y-94492984D01*
X107018015Y-94420509D01*
X107120509Y-94318015D01*
X107192984Y-94192485D01*
X107230500Y-94052475D01*
X107230500Y-93907525D01*
X107196470Y-93780525D01*
X113241500Y-93780525D01*
X113241500Y-93925475D01*
X113275529Y-94052472D01*
X113279017Y-94065488D01*
X113351488Y-94191011D01*
X113351490Y-94191013D01*
X113351491Y-94191015D01*
X113453985Y-94293509D01*
X113453986Y-94293510D01*
X113453988Y-94293511D01*
X113579511Y-94365982D01*
X113579512Y-94365982D01*
X113579515Y-94365984D01*
X113719525Y-94403500D01*
X113719528Y-94403500D01*
X113864472Y-94403500D01*
X113864475Y-94403500D01*
X114004485Y-94365984D01*
X114130015Y-94293509D01*
X114232509Y-94191015D01*
X114304984Y-94065485D01*
X114342500Y-93925475D01*
X114342500Y-93780525D01*
X114304984Y-93640515D01*
X114232509Y-93514985D01*
X114130015Y-93412491D01*
X114130013Y-93412490D01*
X114130011Y-93412488D01*
X114004488Y-93340017D01*
X114004489Y-93340017D01*
X113993006Y-93336940D01*
X113864475Y-93302500D01*
X113719525Y-93302500D01*
X113590993Y-93336940D01*
X113579511Y-93340017D01*
X113453988Y-93412488D01*
X113453982Y-93412493D01*
X113351493Y-93514982D01*
X113351488Y-93514988D01*
X113279017Y-93640511D01*
X113279016Y-93640515D01*
X113241500Y-93780525D01*
X107196470Y-93780525D01*
X107192984Y-93767515D01*
X107120509Y-93641985D01*
X107018015Y-93539491D01*
X107018013Y-93539490D01*
X107018011Y-93539488D01*
X106892488Y-93467017D01*
X106892489Y-93467017D01*
X106881006Y-93463940D01*
X106752475Y-93429500D01*
X106607525Y-93429500D01*
X106478993Y-93463940D01*
X106467511Y-93467017D01*
X106341988Y-93539488D01*
X106341982Y-93539493D01*
X106239493Y-93641982D01*
X106239488Y-93641988D01*
X106167017Y-93767511D01*
X106167016Y-93767515D01*
X106129500Y-93907525D01*
X84828500Y-93907525D01*
X84828500Y-92005108D01*
X108897300Y-92005108D01*
X108897300Y-92136891D01*
X108931408Y-92264187D01*
X108963921Y-92320500D01*
X108997300Y-92378314D01*
X109090486Y-92471500D01*
X109204614Y-92537392D01*
X109313395Y-92566539D01*
X109373053Y-92602902D01*
X109403583Y-92665749D01*
X109405300Y-92686313D01*
X109405300Y-92786891D01*
X109439408Y-92914187D01*
X109472354Y-92971250D01*
X109505300Y-93028314D01*
X109598486Y-93121500D01*
X109712614Y-93187392D01*
X109839908Y-93221500D01*
X109839910Y-93221500D01*
X109971690Y-93221500D01*
X109971692Y-93221500D01*
X110098986Y-93187392D01*
X110213114Y-93121500D01*
X110306300Y-93028314D01*
X110372192Y-92914186D01*
X110378264Y-92891525D01*
X115654500Y-92891525D01*
X115654500Y-93036475D01*
X115677283Y-93121500D01*
X115692017Y-93176488D01*
X115764488Y-93302011D01*
X115764490Y-93302013D01*
X115764491Y-93302015D01*
X115866985Y-93404509D01*
X115866986Y-93404510D01*
X115866988Y-93404511D01*
X115992511Y-93476982D01*
X115992512Y-93476982D01*
X115992515Y-93476984D01*
X116132525Y-93514500D01*
X116132528Y-93514500D01*
X116277472Y-93514500D01*
X116277475Y-93514500D01*
X116417485Y-93476984D01*
X116543015Y-93404509D01*
X116645509Y-93302015D01*
X116717984Y-93176485D01*
X116755500Y-93036475D01*
X116755500Y-92891525D01*
X116717984Y-92751515D01*
X116680339Y-92686313D01*
X116645511Y-92625988D01*
X116645506Y-92625982D01*
X116543017Y-92523493D01*
X116543011Y-92523488D01*
X116417488Y-92451017D01*
X116417489Y-92451017D01*
X116406006Y-92447940D01*
X116277475Y-92413500D01*
X116132525Y-92413500D01*
X116003993Y-92447940D01*
X115992511Y-92451017D01*
X115866988Y-92523488D01*
X115866982Y-92523493D01*
X115764493Y-92625982D01*
X115764488Y-92625988D01*
X115692017Y-92751511D01*
X115692016Y-92751515D01*
X115654500Y-92891525D01*
X110378264Y-92891525D01*
X110406300Y-92786892D01*
X110406300Y-92655108D01*
X110372192Y-92527814D01*
X110306300Y-92413686D01*
X110213114Y-92320500D01*
X110098986Y-92254608D01*
X109990205Y-92225460D01*
X109930546Y-92189096D01*
X109900017Y-92126249D01*
X109898300Y-92105686D01*
X109898300Y-92005110D01*
X109898300Y-92005108D01*
X109864192Y-91877814D01*
X109798300Y-91763686D01*
X109705114Y-91670500D01*
X109648050Y-91637554D01*
X109590987Y-91604608D01*
X109523394Y-91586497D01*
X109463692Y-91570500D01*
X109331908Y-91570500D01*
X109204612Y-91604608D01*
X109090486Y-91670500D01*
X109090483Y-91670502D01*
X108997302Y-91763683D01*
X108997300Y-91763686D01*
X108931408Y-91877812D01*
X108897300Y-92005108D01*
X84828500Y-92005108D01*
X84828500Y-91120108D01*
X113672500Y-91120108D01*
X113672500Y-91251891D01*
X113706608Y-91379187D01*
X113739554Y-91436250D01*
X113772500Y-91493314D01*
X113865686Y-91586500D01*
X113979814Y-91652392D01*
X114107108Y-91686500D01*
X114107110Y-91686500D01*
X114238890Y-91686500D01*
X114238892Y-91686500D01*
X114366186Y-91652392D01*
X114480314Y-91586500D01*
X114573500Y-91493314D01*
X114639392Y-91379186D01*
X114673500Y-91251892D01*
X114673500Y-91120108D01*
X114639392Y-90992814D01*
X114573500Y-90878686D01*
X114480314Y-90785500D01*
X114423250Y-90752554D01*
X114366187Y-90719608D01*
X114302539Y-90702554D01*
X114238892Y-90685500D01*
X114107108Y-90685500D01*
X113979812Y-90719608D01*
X113865686Y-90785500D01*
X113865683Y-90785502D01*
X113772502Y-90878683D01*
X113772500Y-90878686D01*
X113706608Y-90992812D01*
X113672500Y-91120108D01*
X84828500Y-91120108D01*
X84828500Y-88954525D01*
X112733500Y-88954525D01*
X112733500Y-89099475D01*
X112771016Y-89239485D01*
X112771017Y-89239488D01*
X112843488Y-89365011D01*
X112843490Y-89365013D01*
X112843491Y-89365015D01*
X112945985Y-89467509D01*
X112945986Y-89467510D01*
X112945988Y-89467511D01*
X113071511Y-89539982D01*
X113071512Y-89539982D01*
X113071515Y-89539984D01*
X113211525Y-89577500D01*
X113211528Y-89577500D01*
X113356472Y-89577500D01*
X113356475Y-89577500D01*
X113496485Y-89539984D01*
X113622015Y-89467509D01*
X113724509Y-89365015D01*
X113796984Y-89239485D01*
X113834500Y-89099475D01*
X113834500Y-88954525D01*
X113796984Y-88814515D01*
X113724509Y-88688985D01*
X113622015Y-88586491D01*
X113622013Y-88586490D01*
X113622011Y-88586488D01*
X113496488Y-88514017D01*
X113496489Y-88514017D01*
X113485006Y-88510940D01*
X113356475Y-88476500D01*
X113211525Y-88476500D01*
X113082993Y-88510940D01*
X113071511Y-88514017D01*
X112945988Y-88586488D01*
X112945982Y-88586493D01*
X112843493Y-88688982D01*
X112843488Y-88688988D01*
X112771017Y-88814511D01*
X112771016Y-88814515D01*
X112733500Y-88954525D01*
X84828500Y-88954525D01*
X84828500Y-84773258D01*
X90197500Y-84773258D01*
X90197500Y-85002741D01*
X90219181Y-85167414D01*
X90227452Y-85230238D01*
X90258972Y-85347873D01*
X90286842Y-85451887D01*
X90374650Y-85663876D01*
X90374657Y-85663890D01*
X90489392Y-85862617D01*
X90629081Y-86044661D01*
X90629089Y-86044670D01*
X90791330Y-86206911D01*
X90791338Y-86206918D01*
X90973382Y-86346607D01*
X90973385Y-86346608D01*
X90973388Y-86346611D01*
X91172112Y-86461344D01*
X91172117Y-86461346D01*
X91172123Y-86461349D01*
X91263480Y-86499190D01*
X91384113Y-86549158D01*
X91605762Y-86608548D01*
X91833266Y-86638500D01*
X91833273Y-86638500D01*
X92062727Y-86638500D01*
X92062734Y-86638500D01*
X92290238Y-86608548D01*
X92511887Y-86549158D01*
X92723888Y-86461344D01*
X92922612Y-86346611D01*
X93104661Y-86206919D01*
X93104665Y-86206914D01*
X93104670Y-86206911D01*
X93266911Y-86044670D01*
X93266914Y-86044665D01*
X93266919Y-86044661D01*
X93406611Y-85862612D01*
X93521344Y-85663888D01*
X93609158Y-85451887D01*
X93668548Y-85230238D01*
X93698500Y-85002734D01*
X93698500Y-84773266D01*
X93668548Y-84545762D01*
X93609158Y-84324113D01*
X93559190Y-84203480D01*
X93521349Y-84112123D01*
X93521346Y-84112117D01*
X93521344Y-84112112D01*
X93406611Y-83913388D01*
X93406608Y-83913385D01*
X93406607Y-83913382D01*
X93338250Y-83824299D01*
X93266919Y-83731339D01*
X93266915Y-83731335D01*
X93266911Y-83731330D01*
X93213594Y-83678013D01*
X98438000Y-83678013D01*
X98438000Y-84078000D01*
X99354988Y-84078000D01*
X99322075Y-84135007D01*
X99288000Y-84262174D01*
X99288000Y-84393826D01*
X99322075Y-84520993D01*
X99354988Y-84578000D01*
X98438001Y-84578000D01*
X98438001Y-84977986D01*
X98448494Y-85080697D01*
X98503641Y-85247119D01*
X98503643Y-85247124D01*
X98595684Y-85396345D01*
X98719654Y-85520315D01*
X98868875Y-85612356D01*
X98868880Y-85612358D01*
X99035302Y-85667505D01*
X99035309Y-85667506D01*
X99138019Y-85677999D01*
X99537999Y-85677999D01*
X99538000Y-85677998D01*
X99538000Y-84761012D01*
X99595007Y-84793925D01*
X99722174Y-84828000D01*
X99853826Y-84828000D01*
X99980993Y-84793925D01*
X100038000Y-84761012D01*
X100038000Y-85677999D01*
X100437972Y-85677999D01*
X100437986Y-85677998D01*
X100540697Y-85667505D01*
X100707119Y-85612358D01*
X100707124Y-85612356D01*
X100856345Y-85520315D01*
X100980315Y-85396345D01*
X101072356Y-85247124D01*
X101072358Y-85247119D01*
X101127505Y-85080697D01*
X101127506Y-85080690D01*
X101137999Y-84977986D01*
X101137999Y-84933053D01*
X101157682Y-84866013D01*
X101210485Y-84820257D01*
X101279643Y-84810312D01*
X101343200Y-84839335D01*
X101372483Y-84876753D01*
X101386768Y-84904788D01*
X101488586Y-85044928D01*
X101611072Y-85167414D01*
X101751212Y-85269232D01*
X101905555Y-85347873D01*
X102070299Y-85401402D01*
X102241389Y-85428500D01*
X102241390Y-85428500D01*
X102414610Y-85428500D01*
X102414611Y-85428500D01*
X102585701Y-85401402D01*
X102750445Y-85347873D01*
X102904788Y-85269232D01*
X103044928Y-85167414D01*
X103167414Y-85044928D01*
X103269232Y-84904788D01*
X103347873Y-84750445D01*
X103401402Y-84585701D01*
X103428500Y-84414611D01*
X103428500Y-84241389D01*
X103767500Y-84241389D01*
X103767500Y-84414610D01*
X103794597Y-84585697D01*
X103794597Y-84585699D01*
X103794598Y-84585701D01*
X103848127Y-84750445D01*
X103926768Y-84904788D01*
X104028586Y-85044928D01*
X104151072Y-85167414D01*
X104291212Y-85269232D01*
X104445555Y-85347873D01*
X104610299Y-85401402D01*
X104781389Y-85428500D01*
X104781390Y-85428500D01*
X104954610Y-85428500D01*
X104954611Y-85428500D01*
X105125701Y-85401402D01*
X105290445Y-85347873D01*
X105444788Y-85269232D01*
X105584928Y-85167414D01*
X105707414Y-85044928D01*
X105809232Y-84904788D01*
X105887873Y-84750445D01*
X105941402Y-84585701D01*
X105968500Y-84414611D01*
X105968500Y-84241389D01*
X106307500Y-84241389D01*
X106307500Y-84414610D01*
X106334597Y-84585697D01*
X106334597Y-84585699D01*
X106334598Y-84585701D01*
X106388127Y-84750445D01*
X106466768Y-84904788D01*
X106568586Y-85044928D01*
X106691072Y-85167414D01*
X106831212Y-85269232D01*
X106985555Y-85347873D01*
X107150299Y-85401402D01*
X107321389Y-85428500D01*
X107321390Y-85428500D01*
X107494610Y-85428500D01*
X107494611Y-85428500D01*
X107665701Y-85401402D01*
X107830445Y-85347873D01*
X107984788Y-85269232D01*
X108124928Y-85167414D01*
X108247414Y-85044928D01*
X108349232Y-84904788D01*
X108416249Y-84773258D01*
X113497500Y-84773258D01*
X113497500Y-85002741D01*
X113519181Y-85167414D01*
X113527452Y-85230238D01*
X113558972Y-85347873D01*
X113586842Y-85451887D01*
X113674650Y-85663876D01*
X113674657Y-85663890D01*
X113789392Y-85862617D01*
X113929081Y-86044661D01*
X113929089Y-86044670D01*
X114091330Y-86206911D01*
X114091338Y-86206918D01*
X114273382Y-86346607D01*
X114273385Y-86346608D01*
X114273388Y-86346611D01*
X114472112Y-86461344D01*
X114472117Y-86461346D01*
X114472123Y-86461349D01*
X114563480Y-86499190D01*
X114684113Y-86549158D01*
X114905762Y-86608548D01*
X115133266Y-86638500D01*
X115133273Y-86638500D01*
X115362727Y-86638500D01*
X115362734Y-86638500D01*
X115590238Y-86608548D01*
X115811887Y-86549158D01*
X116023888Y-86461344D01*
X116222612Y-86346611D01*
X116404661Y-86206919D01*
X116404665Y-86206914D01*
X116404670Y-86206911D01*
X116566911Y-86044670D01*
X116566914Y-86044665D01*
X116566919Y-86044661D01*
X116706611Y-85862612D01*
X116821344Y-85663888D01*
X116909158Y-85451887D01*
X116968548Y-85230238D01*
X116998500Y-85002734D01*
X116998500Y-84773266D01*
X116968548Y-84545762D01*
X116909158Y-84324113D01*
X116859190Y-84203480D01*
X116821349Y-84112123D01*
X116821346Y-84112117D01*
X116821344Y-84112112D01*
X116706611Y-83913388D01*
X116706608Y-83913385D01*
X116706607Y-83913382D01*
X116582167Y-83751211D01*
X116566919Y-83731339D01*
X116566915Y-83731335D01*
X116566911Y-83731330D01*
X116404670Y-83569089D01*
X116404661Y-83569081D01*
X116222617Y-83429392D01*
X116187080Y-83408875D01*
X116023888Y-83314656D01*
X116023876Y-83314650D01*
X115811887Y-83226842D01*
X115590238Y-83167452D01*
X115552215Y-83162446D01*
X115362741Y-83137500D01*
X115362734Y-83137500D01*
X115133266Y-83137500D01*
X115133258Y-83137500D01*
X114916715Y-83166009D01*
X114905762Y-83167452D01*
X114812076Y-83192554D01*
X114684112Y-83226842D01*
X114472123Y-83314650D01*
X114472109Y-83314657D01*
X114273382Y-83429392D01*
X114091338Y-83569081D01*
X113929081Y-83731338D01*
X113789392Y-83913382D01*
X113674657Y-84112109D01*
X113674650Y-84112123D01*
X113586842Y-84324112D01*
X113527453Y-84545759D01*
X113527451Y-84545770D01*
X113497500Y-84773258D01*
X108416249Y-84773258D01*
X108427873Y-84750445D01*
X108481402Y-84585701D01*
X108508500Y-84414611D01*
X108508500Y-84241389D01*
X108481402Y-84070299D01*
X108427873Y-83905555D01*
X108349232Y-83751212D01*
X108247414Y-83611072D01*
X108124928Y-83488586D01*
X107984788Y-83386768D01*
X107830445Y-83308127D01*
X107665701Y-83254598D01*
X107665699Y-83254597D01*
X107665698Y-83254597D01*
X107534271Y-83233781D01*
X107494611Y-83227500D01*
X107321389Y-83227500D01*
X107281728Y-83233781D01*
X107150302Y-83254597D01*
X106985552Y-83308128D01*
X106831211Y-83386768D01*
X106772549Y-83429389D01*
X106691072Y-83488586D01*
X106691070Y-83488588D01*
X106691069Y-83488588D01*
X106568588Y-83611069D01*
X106568588Y-83611070D01*
X106568586Y-83611072D01*
X106524859Y-83671256D01*
X106466768Y-83751211D01*
X106388128Y-83905552D01*
X106334597Y-84070302D01*
X106307500Y-84241389D01*
X105968500Y-84241389D01*
X105941402Y-84070299D01*
X105887873Y-83905555D01*
X105809232Y-83751212D01*
X105707414Y-83611072D01*
X105584928Y-83488586D01*
X105444788Y-83386768D01*
X105290445Y-83308127D01*
X105125701Y-83254598D01*
X105125699Y-83254597D01*
X105125698Y-83254597D01*
X104994271Y-83233781D01*
X104954611Y-83227500D01*
X104781389Y-83227500D01*
X104741728Y-83233781D01*
X104610302Y-83254597D01*
X104445552Y-83308128D01*
X104291211Y-83386768D01*
X104232549Y-83429389D01*
X104151072Y-83488586D01*
X104151070Y-83488588D01*
X104151069Y-83488588D01*
X104028588Y-83611069D01*
X104028588Y-83611070D01*
X104028586Y-83611072D01*
X103984859Y-83671256D01*
X103926768Y-83751211D01*
X103848128Y-83905552D01*
X103794597Y-84070302D01*
X103767500Y-84241389D01*
X103428500Y-84241389D01*
X103401402Y-84070299D01*
X103347873Y-83905555D01*
X103269232Y-83751212D01*
X103167414Y-83611072D01*
X103044928Y-83488586D01*
X102904788Y-83386768D01*
X102750445Y-83308127D01*
X102585701Y-83254598D01*
X102585699Y-83254597D01*
X102585698Y-83254597D01*
X102454271Y-83233781D01*
X102414611Y-83227500D01*
X102241389Y-83227500D01*
X102201728Y-83233781D01*
X102070302Y-83254597D01*
X101905552Y-83308128D01*
X101751211Y-83386768D01*
X101692549Y-83429389D01*
X101611072Y-83488586D01*
X101611070Y-83488588D01*
X101611069Y-83488588D01*
X101488588Y-83611069D01*
X101488588Y-83611070D01*
X101488586Y-83611072D01*
X101444859Y-83671256D01*
X101386768Y-83751211D01*
X101372484Y-83779246D01*
X101324509Y-83830042D01*
X101256688Y-83846837D01*
X101190553Y-83824299D01*
X101147102Y-83769584D01*
X101137999Y-83722951D01*
X101137999Y-83678028D01*
X101137998Y-83678012D01*
X101127505Y-83575302D01*
X101072358Y-83408880D01*
X101072356Y-83408875D01*
X100980315Y-83259654D01*
X100856345Y-83135684D01*
X100707124Y-83043643D01*
X100707119Y-83043641D01*
X100540697Y-82988494D01*
X100540690Y-82988493D01*
X100437986Y-82978000D01*
X100038000Y-82978000D01*
X100038000Y-83894988D01*
X99980993Y-83862075D01*
X99853826Y-83828000D01*
X99722174Y-83828000D01*
X99595007Y-83862075D01*
X99538000Y-83894988D01*
X99538000Y-82978000D01*
X99138028Y-82978000D01*
X99138012Y-82978001D01*
X99035302Y-82988494D01*
X98868880Y-83043641D01*
X98868875Y-83043643D01*
X98719654Y-83135684D01*
X98595684Y-83259654D01*
X98503643Y-83408875D01*
X98503641Y-83408880D01*
X98448494Y-83575302D01*
X98448493Y-83575309D01*
X98438000Y-83678013D01*
X93213594Y-83678013D01*
X93104670Y-83569089D01*
X93104661Y-83569081D01*
X92922617Y-83429392D01*
X92887080Y-83408875D01*
X92723888Y-83314656D01*
X92723876Y-83314650D01*
X92511887Y-83226842D01*
X92290238Y-83167452D01*
X92252215Y-83162446D01*
X92062741Y-83137500D01*
X92062734Y-83137500D01*
X91833266Y-83137500D01*
X91833258Y-83137500D01*
X91616715Y-83166009D01*
X91605762Y-83167452D01*
X91512076Y-83192554D01*
X91384112Y-83226842D01*
X91172123Y-83314650D01*
X91172109Y-83314657D01*
X90973382Y-83429392D01*
X90791338Y-83569081D01*
X90629081Y-83731338D01*
X90489392Y-83913382D01*
X90374657Y-84112109D01*
X90374650Y-84112123D01*
X90286842Y-84324112D01*
X90227453Y-84545759D01*
X90227451Y-84545770D01*
X90197500Y-84773258D01*
X84828500Y-84773258D01*
X84828500Y-81214108D01*
X96146500Y-81214108D01*
X96146500Y-81345891D01*
X96180608Y-81473187D01*
X96213554Y-81530250D01*
X96246500Y-81587314D01*
X96339686Y-81680500D01*
X96438521Y-81737563D01*
X96449530Y-81743919D01*
X96453814Y-81746392D01*
X96581108Y-81780500D01*
X96581110Y-81780500D01*
X96712890Y-81780500D01*
X96712892Y-81780500D01*
X96840186Y-81746392D01*
X96954314Y-81680500D01*
X97047500Y-81587314D01*
X97113392Y-81473186D01*
X97147500Y-81345892D01*
X97147500Y-81214108D01*
X97113392Y-81086814D01*
X97047500Y-80972686D01*
X96954314Y-80879500D01*
X96897250Y-80846554D01*
X96840187Y-80813608D01*
X96734101Y-80785183D01*
X96712892Y-80779500D01*
X96581108Y-80779500D01*
X96453812Y-80813608D01*
X96339686Y-80879500D01*
X96339683Y-80879502D01*
X96246502Y-80972683D01*
X96246500Y-80972686D01*
X96180608Y-81086812D01*
X96146500Y-81214108D01*
X84828500Y-81214108D01*
X84828500Y-76824500D01*
X84848185Y-76757461D01*
X84900989Y-76711706D01*
X84952500Y-76700500D01*
X114562729Y-76700500D01*
X114629768Y-76720185D01*
G37*
%TD.AperFunction*%
%TD*%
M02*
