%TF.GenerationSoftware,KiCad,Pcbnew,10.0.4*%
%TF.CreationDate,2026-10-03T22:47:07+02:00*%
%TF.ProjectId,00-air-temp-monitor,30302d61-6972-42d7-9465-6d702d6d6f6e,rev?*%
%TF.SameCoordinates,Original*%
%TF.FileFunction,Copper,L1,Top*%
%TF.FilePolarity,Positive*%
%FSLAX46Y46*%
G04 Gerber Fmt 4.6, Leading zero omitted, Abs format (unit mm)*
G04 Created by KiCad (PCBNEW 10.0.4) date 2026-10-03 22:47:07*
%MOMM*%
%LPD*%
G01*
G04 APERTURE LIST*
G04 Aperture macros list*
%AMRoundRect*
0 Rectangle with rounded corners*
0 $1 Rounding radius*
0 $2 $3 $4 $5 $6 $7 $8 $9 X,Y pos of 4 corners*
0 Add a 4 corners polygon primitive as box body*
4,1,4,$2,$3,$4,$5,$6,$7,$8,$9,$2,$3,0*
0 Add four circle primitives for the rounded corners*
1,1,$1+$1,$2,$3*
1,1,$1+$1,$4,$5*
1,1,$1+$1,$6,$7*
1,1,$1+$1,$8,$9*
0 Add four rect primitives between the rounded corners*
20,1,$1+$1,$2,$3,$4,$5,0*
20,1,$1+$1,$4,$5,$6,$7,0*
20,1,$1+$1,$6,$7,$8,$9,0*
20,1,$1+$1,$8,$9,$2,$3,0*%
G04 Aperture macros list end*
%TA.AperFunction,SMDPad,CuDef*%
%ADD10RoundRect,0.160000X0.197500X0.160000X-0.197500X0.160000X-0.197500X-0.160000X0.197500X-0.160000X0*%
%TD*%
%TA.AperFunction,SMDPad,CuDef*%
%ADD11RoundRect,0.155000X0.212500X0.155000X-0.212500X0.155000X-0.212500X-0.155000X0.212500X-0.155000X0*%
%TD*%
%TA.AperFunction,SMDPad,CuDef*%
%ADD12RoundRect,0.160000X-0.160000X0.197500X-0.160000X-0.197500X0.160000X-0.197500X0.160000X0.197500X0*%
%TD*%
%TA.AperFunction,WasherPad*%
%ADD13C,3.000000*%
%TD*%
%TA.AperFunction,ComponentPad*%
%ADD14RoundRect,0.250000X-0.600000X-0.600000X0.600000X-0.600000X0.600000X0.600000X-0.600000X0.600000X0*%
%TD*%
%TA.AperFunction,ComponentPad*%
%ADD15C,1.700000*%
%TD*%
%TA.AperFunction,SMDPad,CuDef*%
%ADD16R,0.800000X0.500000*%
%TD*%
%TA.AperFunction,SMDPad,CuDef*%
%ADD17RoundRect,0.150000X0.512500X0.150000X-0.512500X0.150000X-0.512500X-0.150000X0.512500X-0.150000X0*%
%TD*%
%TA.AperFunction,SMDPad,CuDef*%
%ADD18RoundRect,0.160000X0.160000X-0.197500X0.160000X0.197500X-0.160000X0.197500X-0.160000X-0.197500X0*%
%TD*%
%TA.AperFunction,SMDPad,CuDef*%
%ADD19RoundRect,0.250000X-0.300000X0.275000X-0.300000X-0.275000X0.300000X-0.275000X0.300000X0.275000X0*%
%TD*%
%TA.AperFunction,SMDPad,CuDef*%
%ADD20RoundRect,0.155000X0.155000X-0.212500X0.155000X0.212500X-0.155000X0.212500X-0.155000X-0.212500X0*%
%TD*%
%TA.AperFunction,SMDPad,CuDef*%
%ADD21RoundRect,0.155000X-0.155000X0.212500X-0.155000X-0.212500X0.155000X-0.212500X0.155000X0.212500X0*%
%TD*%
%TA.AperFunction,SMDPad,CuDef*%
%ADD22RoundRect,0.100000X-0.637500X-0.100000X0.637500X-0.100000X0.637500X0.100000X-0.637500X0.100000X0*%
%TD*%
%TA.AperFunction,SMDPad,CuDef*%
%ADD23RoundRect,0.155000X-0.212500X-0.155000X0.212500X-0.155000X0.212500X0.155000X-0.212500X0.155000X0*%
%TD*%
%TA.AperFunction,SMDPad,CuDef*%
%ADD24RoundRect,0.160000X-0.197500X-0.160000X0.197500X-0.160000X0.197500X0.160000X-0.197500X0.160000X0*%
%TD*%
%TA.AperFunction,SMDPad,CuDef*%
%ADD25RoundRect,0.250001X-0.462499X-0.849999X0.462499X-0.849999X0.462499X0.849999X-0.462499X0.849999X0*%
%TD*%
%TA.AperFunction,ComponentPad*%
%ADD26R,1.700000X1.700000*%
%TD*%
%TA.AperFunction,ViaPad*%
%ADD27C,0.600000*%
%TD*%
%TA.AperFunction,ViaPad*%
%ADD28C,0.500000*%
%TD*%
%TA.AperFunction,ViaPad*%
%ADD29C,0.400000*%
%TD*%
%TA.AperFunction,Conductor*%
%ADD30C,0.200000*%
%TD*%
%TA.AperFunction,Conductor*%
%ADD31C,0.400000*%
%TD*%
%TA.AperFunction,Conductor*%
%ADD32C,0.300000*%
%TD*%
%TA.AperFunction,Conductor*%
%ADD33C,0.350000*%
%TD*%
G04 APERTURE END LIST*
D10*
%TO.P,R2,1*%
%TO.N,+3V3*%
X97098000Y-107188000D03*
%TO.P,R2,2*%
%TO.N,Net-(U2-FB)*%
X95903000Y-107188000D03*
%TD*%
D11*
%TO.P,C9,1*%
%TO.N,+3V3*%
X101386000Y-102616000D03*
%TO.P,C9,2*%
%TO.N,GND*%
X100251000Y-102616000D03*
%TD*%
D12*
%TO.P,R5,1*%
%TO.N,Net-(L1-Pad2)*%
X102362000Y-100240500D03*
%TO.P,R5,2*%
%TO.N,+3V3*%
X102362000Y-101435500D03*
%TD*%
D13*
%TO.P,U3,*%
%TO.N,*%
X91948000Y-84888000D03*
X91948000Y-108688000D03*
X115248000Y-84888000D03*
X115248000Y-108688000D03*
D14*
%TO.P,U3,1,GND_1*%
%TO.N,GND*%
X99788000Y-84328000D03*
D15*
%TO.P,U3,2,VCC_2*%
%TO.N,+3V3*%
X102328000Y-84328000D03*
%TO.P,U3,3,SCL_3*%
%TO.N,/I2C1_SCL*%
X104868000Y-84328000D03*
%TO.P,U3,4,SDA_4*%
%TO.N,/I2C1_SDA*%
X107408000Y-84328000D03*
%TD*%
D16*
%TO.P,U4,1,NC_1*%
%TO.N,unconnected-(U4-NC-Pad1)*%
X119380000Y-79248000D03*
%TO.P,U4,2,VDD_2*%
%TO.N,Net-(U4-VDD)*%
X119380000Y-78248000D03*
%TO.P,U4,3,SCL_3*%
%TO.N,/I2C1_SCL*%
X119380000Y-77248000D03*
%TO.P,U4,4,SDA_4*%
%TO.N,/I2C1_SDA*%
X117380000Y-77248000D03*
%TO.P,U4,5,GND_5*%
%TO.N,GND*%
X117380000Y-78248000D03*
%TO.P,U4,6,NC_6*%
%TO.N,unconnected-(U4-NC-Pad6)*%
X117380000Y-79248000D03*
%TD*%
D17*
%TO.P,U2,1,EN_1*%
%TO.N,+BATT*%
X98146000Y-104582000D03*
%TO.P,U2,2,GND_2*%
%TO.N,GND*%
X98146000Y-103632000D03*
%TO.P,U2,3,SW_3*%
%TO.N,Net-(U2-SW)*%
X98146000Y-102682000D03*
%TO.P,U2,4,VIN_4*%
%TO.N,+BATT*%
X95871000Y-102682000D03*
%TO.P,U2,5,PG_5*%
%TO.N,Net-(U2-PG)*%
X95871000Y-103632000D03*
%TO.P,U2,6,FB_6*%
%TO.N,Net-(U2-FB)*%
X95871000Y-104582000D03*
%TD*%
D18*
%TO.P,R7,1*%
%TO.N,+3V3*%
X115316000Y-94196500D03*
%TO.P,R7,2*%
%TO.N,/I2C1_SCL*%
X115316000Y-93001500D03*
%TD*%
D19*
%TO.P,Y1,1,1_1*%
%TO.N,Net-(U1-PC14)*%
X102870000Y-91912000D03*
%TO.P,Y1,2,2_2*%
%TO.N,Net-(U1-PC15)*%
X102870000Y-93762000D03*
%TD*%
D20*
%TO.P,C14,1*%
%TO.N,+3V3*%
X121920000Y-79561500D03*
%TO.P,C14,2*%
%TO.N,GND*%
X121920000Y-78426500D03*
%TD*%
D11*
%TO.P,C4,1*%
%TO.N,+3V3*%
X103691500Y-96520000D03*
%TO.P,C4,2*%
%TO.N,GND*%
X102556500Y-96520000D03*
%TD*%
%TO.P,C3,1*%
%TO.N,+3V3*%
X103691500Y-95504000D03*
%TO.P,C3,2*%
%TO.N,GND*%
X102556500Y-95504000D03*
%TD*%
%TO.P,C11,1*%
%TO.N,+3V3*%
X101386000Y-104648000D03*
%TO.P,C11,2*%
%TO.N,GND*%
X100251000Y-104648000D03*
%TD*%
D21*
%TO.P,C1,1*%
%TO.N,+3V3*%
X112776000Y-94936500D03*
%TO.P,C1,2*%
%TO.N,GND*%
X112776000Y-96071500D03*
%TD*%
D11*
%TO.P,C13,1*%
%TO.N,+3V3*%
X101786500Y-86106000D03*
%TO.P,C13,2*%
%TO.N,GND*%
X100651500Y-86106000D03*
%TD*%
D21*
%TO.P,C2,1*%
%TO.N,+3V3*%
X113792000Y-94936500D03*
%TO.P,C2,2*%
%TO.N,GND*%
X113792000Y-96071500D03*
%TD*%
D12*
%TO.P,R8,1*%
%TO.N,+3V3*%
X113284000Y-89953500D03*
%TO.P,R8,2*%
%TO.N,/I2C1_SDA*%
X113284000Y-91148500D03*
%TD*%
D22*
%TO.P,U1,1,PB9_1*%
%TO.N,unconnected-(U1-PB9-Pad1)*%
X105341500Y-92071000D03*
%TO.P,U1,2,PC14_2*%
%TO.N,Net-(U1-PC14)*%
X105341500Y-92721000D03*
%TO.P,U1,3,PC15_3*%
%TO.N,Net-(U1-PC15)*%
X105341500Y-93371000D03*
%TO.P,U1,4,NRST_4*%
%TO.N,/NRST*%
X105341500Y-94021000D03*
%TO.P,U1,5,VDDA_5*%
%TO.N,+3V3*%
X105341500Y-94671000D03*
%TO.P,U1,6,PA0_6*%
%TO.N,unconnected-(U1-PA0-Pad6)*%
X105341500Y-95321000D03*
%TO.P,U1,7,PA1_7*%
%TO.N,unconnected-(U1-PA1-Pad7)*%
X105341500Y-95971000D03*
%TO.P,U1,8,PA2_8*%
%TO.N,unconnected-(U1-PA2-Pad8)*%
X105341500Y-96621000D03*
%TO.P,U1,9,PA3_9*%
%TO.N,unconnected-(U1-PA3-Pad9)*%
X105341500Y-97271000D03*
%TO.P,U1,10,PA4_10*%
%TO.N,unconnected-(U1-PA4-Pad10)*%
X105341500Y-97921000D03*
%TO.P,U1,11,PA5_11*%
%TO.N,unconnected-(U1-PA5-Pad11)*%
X111066500Y-97921000D03*
%TO.P,U1,12,PA6_12*%
%TO.N,unconnected-(U1-PA6-Pad12)*%
X111066500Y-97271000D03*
%TO.P,U1,13,PA7_13*%
%TO.N,unconnected-(U1-PA7-Pad13)*%
X111066500Y-96621000D03*
%TO.P,U1,14,PB1_14*%
%TO.N,unconnected-(U1-PB1-Pad14)*%
X111066500Y-95971000D03*
%TO.P,U1,15,VSS_15*%
%TO.N,GND*%
X111066500Y-95321000D03*
%TO.P,U1,16,VDD_16*%
%TO.N,+3V3*%
X111066500Y-94671000D03*
%TO.P,U1,17,PA9_17*%
%TO.N,/I2C1_SCL*%
X111066500Y-94021000D03*
%TO.P,U1,18,PA10_18*%
%TO.N,/I2C1_SDA*%
X111066500Y-93371000D03*
%TO.P,U1,19,PA13_19*%
%TO.N,/SWDIO*%
X111066500Y-92721000D03*
%TO.P,U1,20,PA14_20*%
%TO.N,/SWCLK*%
X111066500Y-92071000D03*
%TD*%
D11*
%TO.P,C10,1*%
%TO.N,+3V3*%
X101386000Y-103632000D03*
%TO.P,C10,2*%
%TO.N,GND*%
X100251000Y-103632000D03*
%TD*%
D23*
%TO.P,C12,1*%
%TO.N,+BATT*%
X95425000Y-101092000D03*
%TO.P,C12,2*%
%TO.N,GND*%
X96560000Y-101092000D03*
%TD*%
D24*
%TO.P,R3,1*%
%TO.N,Net-(U2-FB)*%
X95903000Y-106172000D03*
%TO.P,R3,2*%
%TO.N,GND*%
X97098000Y-106172000D03*
%TD*%
D20*
%TO.P,C6,1*%
%TO.N,Net-(U1-PC15)*%
X101219000Y-94547500D03*
%TO.P,C6,2*%
%TO.N,GND*%
X101219000Y-93412500D03*
%TD*%
D11*
%TO.P,C8,1*%
%TO.N,+3V3*%
X97068000Y-108204000D03*
%TO.P,C8,2*%
%TO.N,Net-(U2-FB)*%
X95933000Y-108204000D03*
%TD*%
D12*
%TO.P,R9,1*%
%TO.N,Net-(U4-VDD)*%
X120777000Y-78396500D03*
%TO.P,R9,2*%
%TO.N,+3V3*%
X120777000Y-79591500D03*
%TD*%
D21*
%TO.P,C5,1*%
%TO.N,Net-(U1-PC14)*%
X101219000Y-91126500D03*
%TO.P,C5,2*%
%TO.N,GND*%
X101219000Y-92261500D03*
%TD*%
D12*
%TO.P,R6,1*%
%TO.N,+BATT*%
X93960500Y-102526500D03*
%TO.P,R6,2*%
%TO.N,Net-(U2-PG)*%
X93960500Y-103721500D03*
%TD*%
D25*
%TO.P,L1,1,1_1*%
%TO.N,Net-(U2-SW)*%
X98386000Y-100076000D03*
%TO.P,L1,2,2_2*%
%TO.N,Net-(L1-Pad2)*%
X100711000Y-100076000D03*
%TD*%
D26*
%TO.P,J1,1,Pin_1_1*%
%TO.N,+3V3*%
X110109000Y-108585000D03*
D15*
%TO.P,J1,2,Pin_2_2*%
%TO.N,/SWDIO*%
X107569000Y-108585000D03*
%TO.P,J1,3,Pin_3_3*%
%TO.N,/SWCLK*%
X105029000Y-108585000D03*
%TO.P,J1,4,Pin_4_4*%
%TO.N,GND*%
X102489000Y-108585000D03*
%TD*%
D27*
%TO.N,+3V3*%
X121920000Y-80327600D03*
X98024500Y-107188000D03*
X103691500Y-97536000D03*
X113792000Y-93853000D03*
X115316000Y-94869000D03*
X102283000Y-102616000D03*
X113284000Y-89027000D03*
X102283000Y-104648000D03*
X98024500Y-108204000D03*
X102283000Y-103632000D03*
D28*
X96647000Y-81280000D03*
%TO.N,Net-(U2-FB)*%
X94976500Y-106172000D03*
D27*
%TO.N,GND*%
X119380000Y-88900000D03*
X114300000Y-104140000D03*
X86360000Y-111760000D03*
D28*
X109956600Y-95326200D03*
D27*
X93980000Y-93980000D03*
X88900000Y-81280000D03*
X96520000Y-109220000D03*
X114300000Y-99060000D03*
X91440000Y-81280000D03*
X88900000Y-109220000D03*
X121920000Y-111760000D03*
X91440000Y-101600000D03*
X111760000Y-104140000D03*
X112776000Y-97028000D03*
X96520000Y-93980000D03*
X99060000Y-93980000D03*
X104140000Y-78740000D03*
X86360000Y-101600000D03*
X106680000Y-101600000D03*
X121920000Y-88900000D03*
X88900000Y-86360000D03*
X93980000Y-91440000D03*
D29*
X101854000Y-92837000D03*
D27*
X88900000Y-78740000D03*
X111760000Y-78740000D03*
X86360000Y-104140000D03*
X96520000Y-111760000D03*
X96627500Y-101854000D03*
X116840000Y-104140000D03*
X121920000Y-106680000D03*
X86360000Y-91440000D03*
D29*
X99421500Y-103251000D03*
D27*
X101600000Y-81280000D03*
X106680000Y-78740000D03*
X114300000Y-101600000D03*
X118237000Y-96901000D03*
X91440000Y-88900000D03*
D28*
X121539000Y-77597000D03*
D27*
X96520000Y-88900000D03*
D29*
X99421500Y-102616000D03*
D27*
X86360000Y-86360000D03*
X121920000Y-104140000D03*
D29*
X97008500Y-103124000D03*
D27*
X88900000Y-83820000D03*
X118237000Y-96139000D03*
X98024500Y-106172000D03*
X86360000Y-106680000D03*
D29*
X99421500Y-104521000D03*
D27*
X91440000Y-99060000D03*
X88900000Y-99060000D03*
X94107000Y-77978000D03*
D28*
X122174000Y-77597000D03*
D27*
X93980000Y-111760000D03*
X99060000Y-78740000D03*
X106680000Y-111760000D03*
D29*
X99421500Y-103886000D03*
D28*
X116459000Y-78105000D03*
X101727000Y-96901000D03*
D29*
X101219000Y-92837000D03*
D27*
X99060000Y-109220000D03*
X119380000Y-104140000D03*
X88900000Y-106680000D03*
X111760000Y-81280000D03*
X86360000Y-109220000D03*
X88900000Y-101600000D03*
D28*
X101727000Y-96139000D03*
D27*
X99060000Y-96520000D03*
X114300000Y-111760000D03*
X91440000Y-111760000D03*
X88900000Y-111760000D03*
X121920000Y-83820000D03*
X118237000Y-95377000D03*
X114681000Y-96774000D03*
X119380000Y-91440000D03*
X99060000Y-81280000D03*
X109220000Y-111760000D03*
X104140000Y-111760000D03*
X119380000Y-106680000D03*
X111760000Y-83820000D03*
X106680000Y-99060000D03*
X121920000Y-86360000D03*
X119380000Y-86360000D03*
X86360000Y-88900000D03*
D29*
X97008500Y-103632000D03*
D27*
X106680000Y-81280000D03*
X116840000Y-99060000D03*
X96520000Y-96520000D03*
X116840000Y-101600000D03*
X106680000Y-88900000D03*
X91440000Y-104140000D03*
X118237000Y-94615000D03*
X119380000Y-99060000D03*
X119380000Y-101600000D03*
X119380000Y-83820000D03*
X88900000Y-88900000D03*
X119380000Y-109220000D03*
X99060000Y-91440000D03*
X111760000Y-101600000D03*
X96754500Y-100076000D03*
X121920000Y-101600000D03*
X93980000Y-106680000D03*
X118237000Y-93091000D03*
D29*
X97008500Y-104140000D03*
D27*
X101600000Y-111760000D03*
D28*
X116447000Y-78740000D03*
D27*
X121920000Y-109220000D03*
X96520000Y-78740000D03*
X109220000Y-81280000D03*
X106680000Y-96520000D03*
X88900000Y-91440000D03*
X116840000Y-111760000D03*
X109220000Y-83820000D03*
X95992500Y-100076000D03*
X93980000Y-88900000D03*
X91440000Y-78740000D03*
X121920000Y-91440000D03*
X99060000Y-111760000D03*
X119380000Y-111760000D03*
X109220000Y-78740000D03*
D29*
X100584000Y-92837000D03*
D27*
X118237000Y-93853000D03*
X104140000Y-81280000D03*
X93980000Y-86360000D03*
X86360000Y-99060000D03*
X97389500Y-101854000D03*
X111760000Y-111760000D03*
X113792000Y-97028000D03*
X101600000Y-78740000D03*
X86360000Y-83820000D03*
X109220000Y-104140000D03*
X88900000Y-104140000D03*
X121920000Y-99060000D03*
X111760000Y-86360000D03*
X109220000Y-86360000D03*
X114681000Y-96012000D03*
X96520000Y-91440000D03*
X91440000Y-91440000D03*
%TO.N,/I2C1_SCL*%
X116205000Y-92964000D03*
D28*
%TO.N,/I2C1_SDA*%
X116459000Y-77216000D03*
X114173000Y-91186000D03*
%TO.N,+BATT*%
X99167500Y-105283000D03*
D27*
X94849500Y-100330000D03*
%TO.N,/NRST*%
X106680000Y-93980000D03*
D28*
%TO.N,/SWDIO*%
X109905800Y-92721000D03*
%TO.N,/SWCLK*%
X109397800Y-92071000D03*
%TD*%
%TO.N,+3V3*%
D30*
X101386000Y-104648000D02*
X102283000Y-104648000D01*
X113792000Y-93853000D02*
X113792000Y-94936500D01*
D31*
X104524500Y-94671000D02*
X103691500Y-95504000D01*
D30*
X97098000Y-108174000D02*
X97068000Y-108204000D01*
X100183500Y-107188000D02*
X98024500Y-107188000D01*
X101386000Y-105985500D02*
X100183500Y-107188000D01*
D31*
X104016500Y-95179000D02*
X103691500Y-95504000D01*
D30*
X101386000Y-103632000D02*
X102283000Y-103632000D01*
X97098000Y-107188000D02*
X97098000Y-108174000D01*
D31*
X103691500Y-97536000D02*
X103691500Y-96520000D01*
X113792000Y-94936500D02*
X112776000Y-94936500D01*
D32*
X102362000Y-101435500D02*
X102362000Y-102537000D01*
D30*
X101386000Y-102616000D02*
X101386000Y-103632000D01*
X101386000Y-102616000D02*
X102283000Y-102616000D01*
X97098000Y-107188000D02*
X98024500Y-107188000D01*
X113284000Y-89027000D02*
X113284000Y-89953500D01*
D31*
X103691500Y-96520000D02*
X103691500Y-95504000D01*
X111066500Y-94671000D02*
X112510500Y-94671000D01*
X120807000Y-79561500D02*
X120777000Y-79591500D01*
X112510500Y-94671000D02*
X112776000Y-94936500D01*
D30*
X121920000Y-80327600D02*
X121920000Y-79561500D01*
D31*
X115316000Y-94869000D02*
X115316000Y-94196500D01*
D30*
X97068000Y-108204000D02*
X98024500Y-108204000D01*
X101386000Y-104648000D02*
X101386000Y-105985500D01*
D31*
X105341500Y-94671000D02*
X104524500Y-94671000D01*
D30*
X102328000Y-84328000D02*
X102328000Y-85564500D01*
X102328000Y-85564500D02*
X101786500Y-86106000D01*
X101386000Y-104648000D02*
X101386000Y-103632000D01*
D32*
X102362000Y-102537000D02*
X102283000Y-102616000D01*
D31*
X121920000Y-79561500D02*
X120807000Y-79561500D01*
%TO.N,Net-(U2-FB)*%
D30*
X95903000Y-106172000D02*
X95903000Y-104614000D01*
X94976500Y-106172000D02*
X95903000Y-106172000D01*
X95903000Y-107188000D02*
X95903000Y-108174000D01*
X95903000Y-106172000D02*
X95903000Y-107188000D01*
X95903000Y-108174000D02*
X95933000Y-108204000D01*
X95903000Y-104614000D02*
X95871000Y-104582000D01*
%TO.N,GND*%
X100251000Y-104648000D02*
X99548500Y-104648000D01*
D32*
X98146000Y-103632000D02*
X99167500Y-103632000D01*
D31*
X112614378Y-96071500D02*
X112776000Y-96071500D01*
D32*
X96627500Y-101854000D02*
X96627500Y-101159500D01*
D30*
X99788000Y-85276250D02*
X100617750Y-86106000D01*
X97098000Y-106172000D02*
X98024500Y-106172000D01*
D32*
X97008500Y-103632000D02*
X98146000Y-103632000D01*
X99167500Y-103632000D02*
X99421500Y-103886000D01*
X99040500Y-103632000D02*
X99421500Y-103251000D01*
D31*
X111863878Y-95321000D02*
X112614378Y-96071500D01*
D32*
X116602000Y-78248000D02*
X116459000Y-78105000D01*
X117380000Y-78248000D02*
X116602000Y-78248000D01*
X98146000Y-103632000D02*
X99040500Y-103632000D01*
D30*
X111061300Y-95326200D02*
X111066500Y-95321000D01*
X100617750Y-86106000D02*
X100651500Y-86106000D01*
D32*
X121920000Y-78426500D02*
X121920000Y-77978000D01*
X121920000Y-78426500D02*
X121920000Y-77851000D01*
X97008500Y-103124000D02*
X97008500Y-104140000D01*
X117380000Y-78248000D02*
X116939000Y-78248000D01*
X116939000Y-78248000D02*
X116447000Y-78740000D01*
X97008500Y-102235000D02*
X96627500Y-101854000D01*
D30*
X99788000Y-84328000D02*
X99788000Y-85276250D01*
D32*
X121920000Y-77978000D02*
X121539000Y-77597000D01*
X97008500Y-102235000D02*
X97389500Y-101854000D01*
X96627500Y-101159500D02*
X96560000Y-101092000D01*
D30*
X109956600Y-95326200D02*
X111061300Y-95326200D01*
D32*
X121920000Y-77851000D02*
X122174000Y-77597000D01*
X97008500Y-103124000D02*
X97008500Y-102235000D01*
D31*
X111066500Y-95321000D02*
X111863878Y-95321000D01*
X113792000Y-96071500D02*
X112776000Y-96071500D01*
D30*
X99548500Y-104648000D02*
X99421500Y-104521000D01*
%TO.N,Net-(L1-Pad2)*%
D33*
X100711000Y-100076000D02*
X100875500Y-100240500D01*
X100875500Y-100240500D02*
X102362000Y-100240500D01*
%TO.N,/I2C1_SCL*%
D30*
X115353500Y-92964000D02*
X115316000Y-93001500D01*
X118364000Y-78014000D02*
X118364000Y-85471000D01*
X115316000Y-93001500D02*
X115278500Y-92964000D01*
X118364000Y-85471000D02*
X118364000Y-90805000D01*
X118364000Y-90805000D02*
X116205000Y-92964000D01*
X115278500Y-92964000D02*
X112960686Y-92964000D01*
X119380000Y-77248000D02*
X119130000Y-77248000D01*
X116205000Y-92964000D02*
X115353500Y-92964000D01*
X112960686Y-92964000D02*
X111903686Y-94021000D01*
X111903686Y-94021000D02*
X111066500Y-94021000D01*
X119130000Y-77248000D02*
X118364000Y-78014000D01*
%TO.N,/I2C1_SDA*%
X113284000Y-92075000D02*
X113284000Y-91148500D01*
X111976500Y-91148500D02*
X107408000Y-86580000D01*
X114121000Y-91186000D02*
X114083500Y-91148500D01*
X117380000Y-77248000D02*
X116491000Y-77248000D01*
X114173000Y-91186000D02*
X114121000Y-91186000D01*
X114083500Y-91148500D02*
X113284000Y-91148500D01*
X111988000Y-93371000D02*
X113284000Y-92075000D01*
X116491000Y-77248000D02*
X116459000Y-77216000D01*
X111066500Y-93371000D02*
X111988000Y-93371000D01*
X113284000Y-91148500D02*
X111976500Y-91148500D01*
X107408000Y-86580000D02*
X107408000Y-84328000D01*
%TO.N,Net-(U4-VDD)*%
D31*
X119528500Y-78396500D02*
X119380000Y-78248000D01*
X120777000Y-78396500D02*
X119528500Y-78396500D01*
%TO.N,+BATT*%
D33*
X93960500Y-102526500D02*
X94722500Y-102526500D01*
X95425000Y-101092000D02*
X95425000Y-101540500D01*
X94878000Y-102682000D02*
X95871000Y-102682000D01*
D30*
X98278500Y-105283000D02*
X99167500Y-105283000D01*
D33*
X95425000Y-100905500D02*
X94849500Y-100330000D01*
X95871000Y-101986500D02*
X95871000Y-102682000D01*
D30*
X98146000Y-104582000D02*
X98146000Y-105150500D01*
X98146000Y-105150500D02*
X98278500Y-105283000D01*
D33*
X95425000Y-101540500D02*
X95871000Y-101986500D01*
X94722500Y-102526500D02*
X94878000Y-102682000D01*
X95425000Y-101092000D02*
X95425000Y-100905500D01*
%TO.N,Net-(U2-SW)*%
D30*
X98146000Y-100316000D02*
X98386000Y-100076000D01*
D33*
X98146000Y-102682000D02*
X98146000Y-100316000D01*
%TO.N,Net-(U2-PG)*%
X93960500Y-103721500D02*
X95781500Y-103721500D01*
X95781500Y-103721500D02*
X95871000Y-103632000D01*
%TO.N,Net-(U1-PC14)*%
D30*
X102004500Y-91912000D02*
X101219000Y-91126500D01*
X102870000Y-91912000D02*
X102004500Y-91912000D01*
X105341500Y-92721000D02*
X103679000Y-92721000D01*
X103679000Y-92721000D02*
X102870000Y-91912000D01*
%TO.N,Net-(U1-PC15)*%
X105341500Y-93371000D02*
X103261000Y-93371000D01*
X103261000Y-93371000D02*
X102870000Y-93762000D01*
X102004500Y-93762000D02*
X101219000Y-94547500D01*
X102870000Y-93762000D02*
X102004500Y-93762000D01*
%TO.N,/NRST*%
X106680000Y-93980000D02*
X105382500Y-93980000D01*
X105382500Y-93980000D02*
X105341500Y-94021000D01*
%TO.N,/SWDIO*%
X109866000Y-92721000D02*
X109905800Y-92721000D01*
X109905800Y-92721000D02*
X111066500Y-92721000D01*
X109867700Y-92722700D02*
X109866000Y-92721000D01*
%TO.N,/SWCLK*%
X111066500Y-92071000D02*
X109397800Y-92071000D01*
X109397800Y-92071000D02*
X109351000Y-92071000D01*
%TD*%
%TA.AperFunction,Conductor*%
%TO.N,GND*%
G36*
X102187469Y-92529477D02*
G01*
X102210591Y-92543151D01*
X102212453Y-92544545D01*
X102212454Y-92544546D01*
X102293281Y-92605053D01*
X102327669Y-92630796D01*
X102327671Y-92630797D01*
X102372618Y-92647561D01*
X102462517Y-92681091D01*
X102522127Y-92687500D01*
X103098455Y-92687499D01*
X103127901Y-92696145D01*
X103157882Y-92702667D01*
X103162895Y-92706419D01*
X103165494Y-92707183D01*
X103186136Y-92723818D01*
X103237137Y-92774819D01*
X103270622Y-92836142D01*
X103265638Y-92905834D01*
X103223766Y-92961767D01*
X103158302Y-92986184D01*
X103149456Y-92986500D01*
X102522129Y-92986500D01*
X102522123Y-92986501D01*
X102462516Y-92992908D01*
X102327671Y-93043202D01*
X102327668Y-93043204D01*
X102210591Y-93130848D01*
X102185667Y-93140143D01*
X102162283Y-93152824D01*
X102153436Y-93152165D01*
X102145126Y-93155265D01*
X102119133Y-93149610D01*
X102092606Y-93147635D01*
X102085520Y-93142298D01*
X102076853Y-93140413D01*
X102058042Y-93121602D01*
X102036796Y-93105600D01*
X102031615Y-93095175D01*
X102027448Y-93091008D01*
X102019972Y-93074574D01*
X101948046Y-92879993D01*
X101946390Y-92855855D01*
X101940439Y-92832399D01*
X101943960Y-92820407D01*
X101943266Y-92810287D01*
X101951133Y-92795979D01*
X101957623Y-92773877D01*
X101979908Y-92736195D01*
X101979908Y-92736194D01*
X102017204Y-92607823D01*
X102054810Y-92548938D01*
X102118282Y-92519731D01*
X102187469Y-92529477D01*
G37*
%TD.AperFunction*%
%TA.AperFunction,Conductor*%
G36*
X114629768Y-76720185D02*
G01*
X114675523Y-76772989D01*
X114686729Y-76824452D01*
X114688500Y-81379006D01*
X114688500Y-81456430D01*
X114722602Y-81605839D01*
X114789098Y-81743919D01*
X114789099Y-81743920D01*
X114789100Y-81743922D01*
X114884655Y-81863745D01*
X115004478Y-81959300D01*
X115004479Y-81959300D01*
X115004480Y-81959301D01*
X115142560Y-82025797D01*
X115291969Y-82059899D01*
X115291974Y-82059899D01*
X115291976Y-82059900D01*
X115302713Y-82059900D01*
X117390979Y-82059900D01*
X117407167Y-82060961D01*
X117409107Y-82061216D01*
X117409109Y-82061217D01*
X117409111Y-82061217D01*
X117474938Y-82061217D01*
X117475001Y-82061217D01*
X117547303Y-82061144D01*
X117547311Y-82061142D01*
X117547313Y-82061142D01*
X117688680Y-82030798D01*
X117688682Y-82030797D01*
X117688681Y-82030797D01*
X117688687Y-82030796D01*
X117820553Y-81971452D01*
X117820562Y-81971445D01*
X117826224Y-81968140D01*
X117827648Y-81970578D01*
X117881585Y-81950923D01*
X117949744Y-81966288D01*
X117998776Y-82016064D01*
X118013500Y-82074670D01*
X118013500Y-90608456D01*
X117993815Y-90675495D01*
X117977181Y-90696137D01*
X116296137Y-92377181D01*
X116234814Y-92410666D01*
X116208456Y-92413500D01*
X116132525Y-92413500D01*
X116003993Y-92447940D01*
X115992511Y-92451017D01*
X115891720Y-92509209D01*
X115823819Y-92525682D01*
X115757793Y-92502829D01*
X115742039Y-92489503D01*
X115720299Y-92467763D01*
X115720295Y-92467760D01*
X115720294Y-92467759D01*
X115604433Y-92408725D01*
X115604431Y-92408724D01*
X115604428Y-92408723D01*
X115508307Y-92393500D01*
X115123688Y-92393500D01*
X115123688Y-92393501D01*
X115027571Y-92408723D01*
X115027570Y-92408723D01*
X114911704Y-92467760D01*
X114819758Y-92559707D01*
X114817810Y-92562389D01*
X114814608Y-92564857D01*
X114812859Y-92566607D01*
X114812632Y-92566380D01*
X114762478Y-92605053D01*
X114717494Y-92613500D01*
X113540544Y-92613500D01*
X113473505Y-92593815D01*
X113427750Y-92541011D01*
X113417806Y-92471853D01*
X113446831Y-92408297D01*
X113452863Y-92401819D01*
X113503992Y-92350690D01*
X113564470Y-92290212D01*
X113610614Y-92210288D01*
X113634500Y-92121144D01*
X113634500Y-92028856D01*
X113634500Y-91784506D01*
X113643469Y-91753959D01*
X113650843Y-91722976D01*
X113653407Y-91720115D01*
X113654185Y-91717467D01*
X113672538Y-91695138D01*
X113683301Y-91684784D01*
X113688294Y-91682241D01*
X113747546Y-91622988D01*
X113748360Y-91622206D01*
X113778313Y-91606597D01*
X113807963Y-91590408D01*
X113809212Y-91590497D01*
X113810322Y-91589919D01*
X113843950Y-91592981D01*
X113877655Y-91595392D01*
X113879389Y-91596209D01*
X113879904Y-91596256D01*
X113880538Y-91596750D01*
X113896319Y-91604186D01*
X113930733Y-91624055D01*
X113979808Y-91652389D01*
X113979809Y-91652389D01*
X113979814Y-91652392D01*
X114107108Y-91686500D01*
X114107110Y-91686500D01*
X114238890Y-91686500D01*
X114238892Y-91686500D01*
X114366186Y-91652392D01*
X114480314Y-91586500D01*
X114573500Y-91493314D01*
X114639392Y-91379186D01*
X114673500Y-91251892D01*
X114673500Y-91120108D01*
X114639392Y-90992814D01*
X114573500Y-90878686D01*
X114480314Y-90785500D01*
X114423250Y-90752554D01*
X114366187Y-90719608D01*
X114278590Y-90696137D01*
X114238892Y-90685500D01*
X114107108Y-90685500D01*
X113979811Y-90719608D01*
X113942511Y-90741144D01*
X113874610Y-90757615D01*
X113808584Y-90734763D01*
X113791689Y-90720280D01*
X113782187Y-90710525D01*
X113780241Y-90706706D01*
X113711677Y-90638142D01*
X113711075Y-90637524D01*
X113695104Y-90607341D01*
X113678732Y-90577358D01*
X113678792Y-90576514D01*
X113678397Y-90575767D01*
X113681279Y-90541737D01*
X113683716Y-90507666D01*
X113684233Y-90506860D01*
X113684294Y-90506147D01*
X113686714Y-90503000D01*
X113712217Y-90463319D01*
X113780236Y-90395299D01*
X113780241Y-90395294D01*
X113839275Y-90279433D01*
X113854500Y-90183307D01*
X113854499Y-89723694D01*
X113854499Y-89723692D01*
X113854499Y-89723688D01*
X113839276Y-89627571D01*
X113839276Y-89627570D01*
X113839275Y-89627568D01*
X113839275Y-89627567D01*
X113780241Y-89511706D01*
X113780239Y-89511704D01*
X113780236Y-89511700D01*
X113758496Y-89489960D01*
X113725011Y-89428637D01*
X113729995Y-89358945D01*
X113738790Y-89340279D01*
X113796984Y-89239485D01*
X113834500Y-89099475D01*
X113834500Y-88954525D01*
X113796984Y-88814515D01*
X113724509Y-88688985D01*
X113622015Y-88586491D01*
X113622013Y-88586490D01*
X113622011Y-88586488D01*
X113496488Y-88514017D01*
X113496489Y-88514017D01*
X113485006Y-88510940D01*
X113356475Y-88476500D01*
X113211525Y-88476500D01*
X113082993Y-88510940D01*
X113071511Y-88514017D01*
X112945988Y-88586488D01*
X112945982Y-88586493D01*
X112843493Y-88688982D01*
X112843488Y-88688988D01*
X112771017Y-88814511D01*
X112771016Y-88814515D01*
X112733500Y-88954525D01*
X112733500Y-89099475D01*
X112771016Y-89239485D01*
X112771017Y-89239488D01*
X112829209Y-89340279D01*
X112845682Y-89408179D01*
X112822830Y-89474206D01*
X112809505Y-89489959D01*
X112787760Y-89511704D01*
X112728723Y-89627571D01*
X112713500Y-89723692D01*
X112713500Y-90183311D01*
X112728723Y-90279428D01*
X112728723Y-90279429D01*
X112787760Y-90395295D01*
X112787763Y-90395299D01*
X112855783Y-90463319D01*
X112857436Y-90466346D01*
X112860372Y-90468161D01*
X112874062Y-90496795D01*
X112889268Y-90524642D01*
X112889021Y-90528083D01*
X112890510Y-90531196D01*
X112886548Y-90562674D01*
X112884284Y-90594334D01*
X112882088Y-90598109D01*
X112881785Y-90600519D01*
X112874293Y-90611513D01*
X112863229Y-90630541D01*
X112859682Y-90634782D01*
X112787759Y-90706706D01*
X112769375Y-90742784D01*
X112760382Y-90753541D01*
X112742516Y-90765471D01*
X112727764Y-90781092D01*
X112713246Y-90785018D01*
X112702278Y-90792344D01*
X112685044Y-90792647D01*
X112665255Y-90798000D01*
X112173044Y-90798000D01*
X112106005Y-90778315D01*
X112085363Y-90761681D01*
X107794819Y-86471137D01*
X107761334Y-86409814D01*
X107758500Y-86383456D01*
X107758500Y-85460518D01*
X107778185Y-85393479D01*
X107826206Y-85350033D01*
X107984786Y-85269233D01*
X107984785Y-85269233D01*
X107984788Y-85269232D01*
X108124928Y-85167414D01*
X108247414Y-85044928D01*
X108349232Y-84904788D01*
X108416249Y-84773258D01*
X113497500Y-84773258D01*
X113497500Y-85002741D01*
X113519181Y-85167414D01*
X113527452Y-85230238D01*
X113571192Y-85393479D01*
X113586842Y-85451887D01*
X113674650Y-85663876D01*
X113674656Y-85663888D01*
X113775374Y-85838338D01*
X113789392Y-85862617D01*
X113929081Y-86044661D01*
X113929089Y-86044670D01*
X114091330Y-86206911D01*
X114091338Y-86206918D01*
X114273382Y-86346607D01*
X114273385Y-86346608D01*
X114273388Y-86346611D01*
X114472112Y-86461344D01*
X114472117Y-86461346D01*
X114472123Y-86461349D01*
X114495754Y-86471137D01*
X114684113Y-86549158D01*
X114905762Y-86608548D01*
X115133266Y-86638500D01*
X115133273Y-86638500D01*
X115362727Y-86638500D01*
X115362734Y-86638500D01*
X115590238Y-86608548D01*
X115811887Y-86549158D01*
X116023888Y-86461344D01*
X116222612Y-86346611D01*
X116404661Y-86206919D01*
X116404665Y-86206914D01*
X116404670Y-86206911D01*
X116566911Y-86044670D01*
X116566914Y-86044665D01*
X116566919Y-86044661D01*
X116706611Y-85862612D01*
X116821344Y-85663888D01*
X116909158Y-85451887D01*
X116968548Y-85230238D01*
X116998500Y-85002734D01*
X116998500Y-84773266D01*
X116968548Y-84545762D01*
X116909158Y-84324113D01*
X116859190Y-84203480D01*
X116821349Y-84112123D01*
X116821346Y-84112117D01*
X116821344Y-84112112D01*
X116706611Y-83913388D01*
X116706608Y-83913385D01*
X116706607Y-83913382D01*
X116582167Y-83751211D01*
X116566919Y-83731339D01*
X116566915Y-83731335D01*
X116566911Y-83731330D01*
X116404670Y-83569089D01*
X116404661Y-83569081D01*
X116222617Y-83429392D01*
X116187080Y-83408875D01*
X116023888Y-83314656D01*
X116023876Y-83314650D01*
X115811887Y-83226842D01*
X115590238Y-83167452D01*
X115552215Y-83162446D01*
X115362741Y-83137500D01*
X115362734Y-83137500D01*
X115133266Y-83137500D01*
X115133258Y-83137500D01*
X114916715Y-83166009D01*
X114905762Y-83167452D01*
X114812076Y-83192554D01*
X114684112Y-83226842D01*
X114472123Y-83314650D01*
X114472109Y-83314657D01*
X114273382Y-83429392D01*
X114091338Y-83569081D01*
X113929081Y-83731338D01*
X113789392Y-83913382D01*
X113674657Y-84112109D01*
X113674650Y-84112123D01*
X113586842Y-84324112D01*
X113527453Y-84545759D01*
X113527451Y-84545770D01*
X113497500Y-84773258D01*
X108416249Y-84773258D01*
X108427873Y-84750445D01*
X108481402Y-84585701D01*
X108508500Y-84414611D01*
X108508500Y-84241389D01*
X108481402Y-84070299D01*
X108427873Y-83905555D01*
X108349232Y-83751212D01*
X108247414Y-83611072D01*
X108124928Y-83488586D01*
X107984788Y-83386768D01*
X107830445Y-83308127D01*
X107665701Y-83254598D01*
X107665699Y-83254597D01*
X107665698Y-83254597D01*
X107534271Y-83233781D01*
X107494611Y-83227500D01*
X107321389Y-83227500D01*
X107281728Y-83233781D01*
X107150302Y-83254597D01*
X106985552Y-83308128D01*
X106831211Y-83386768D01*
X106772549Y-83429389D01*
X106691072Y-83488586D01*
X106691070Y-83488588D01*
X106691069Y-83488588D01*
X106568588Y-83611069D01*
X106568588Y-83611070D01*
X106568586Y-83611072D01*
X106524859Y-83671256D01*
X106466768Y-83751211D01*
X106388128Y-83905552D01*
X106334597Y-84070302D01*
X106307500Y-84241389D01*
X106307500Y-84414610D01*
X106334597Y-84585697D01*
X106334597Y-84585699D01*
X106334598Y-84585701D01*
X106388127Y-84750445D01*
X106466768Y-84904788D01*
X106568586Y-85044928D01*
X106691072Y-85167414D01*
X106777529Y-85230229D01*
X106831213Y-85269233D01*
X106989794Y-85350033D01*
X107040591Y-85398007D01*
X107057500Y-85460518D01*
X107057500Y-86626144D01*
X107068314Y-86666500D01*
X107081386Y-86715287D01*
X107081387Y-86715290D01*
X107127527Y-86795208D01*
X107127531Y-86795213D01*
X111741137Y-91408819D01*
X111774622Y-91470142D01*
X111769638Y-91539834D01*
X111727766Y-91595767D01*
X111662302Y-91620184D01*
X111653456Y-91620500D01*
X110395739Y-91620500D01*
X110327608Y-91630426D01*
X110222514Y-91681803D01*
X110220137Y-91684181D01*
X110216085Y-91686393D01*
X110214153Y-91687773D01*
X110213986Y-91687539D01*
X110158814Y-91717666D01*
X110132456Y-91720500D01*
X109806476Y-91720500D01*
X109739437Y-91700815D01*
X109718795Y-91684181D01*
X109705116Y-91670502D01*
X109705114Y-91670500D01*
X109618512Y-91620500D01*
X109590987Y-91604608D01*
X109523394Y-91586497D01*
X109463692Y-91570500D01*
X109331908Y-91570500D01*
X109204612Y-91604608D01*
X109090486Y-91670500D01*
X109090483Y-91670502D01*
X108997302Y-91763683D01*
X108997300Y-91763686D01*
X108931408Y-91877812D01*
X108915351Y-91937739D01*
X108897300Y-92005108D01*
X108897300Y-92136892D01*
X108912016Y-92191813D01*
X108931408Y-92264187D01*
X108964354Y-92321250D01*
X108997300Y-92378314D01*
X109090486Y-92471500D01*
X109204614Y-92537392D01*
X109313395Y-92566539D01*
X109373053Y-92602902D01*
X109403583Y-92665749D01*
X109405300Y-92686313D01*
X109405300Y-92786892D01*
X109418496Y-92836142D01*
X109439408Y-92914187D01*
X109453044Y-92937805D01*
X109505300Y-93028314D01*
X109598486Y-93121500D01*
X109712614Y-93187392D01*
X109839908Y-93221500D01*
X109839910Y-93221500D01*
X109954500Y-93221500D01*
X110021539Y-93241185D01*
X110067294Y-93293989D01*
X110078500Y-93345500D01*
X110078500Y-93504260D01*
X110088426Y-93572392D01*
X110088426Y-93572393D01*
X110122230Y-93641541D01*
X110133988Y-93710414D01*
X110122230Y-93750459D01*
X110088426Y-93819606D01*
X110088426Y-93819607D01*
X110078500Y-93887739D01*
X110078500Y-94154260D01*
X110088426Y-94222392D01*
X110088426Y-94222393D01*
X110122230Y-94291541D01*
X110133988Y-94360414D01*
X110122230Y-94400459D01*
X110088426Y-94469606D01*
X110088426Y-94469607D01*
X110078500Y-94537739D01*
X110078500Y-94672514D01*
X110058815Y-94739553D01*
X110029987Y-94770889D01*
X110001078Y-94793071D01*
X109904899Y-94918413D01*
X109844444Y-95064368D01*
X109836987Y-95121000D01*
X110384358Y-95121000D01*
X110388451Y-95122201D01*
X110391253Y-95121697D01*
X110391253Y-95121500D01*
X110392353Y-95121500D01*
X110393326Y-95121325D01*
X110395739Y-95121500D01*
X110395740Y-95121500D01*
X110942500Y-95121500D01*
X111009539Y-95141185D01*
X111055294Y-95193989D01*
X111066500Y-95245500D01*
X111066500Y-95396500D01*
X111046815Y-95463539D01*
X110994011Y-95509294D01*
X110942500Y-95520500D01*
X110395739Y-95520500D01*
X110393326Y-95520675D01*
X110384358Y-95521000D01*
X109836990Y-95521000D01*
X109836988Y-95521001D01*
X109844442Y-95577627D01*
X109844444Y-95577633D01*
X109904899Y-95723585D01*
X110001076Y-95848925D01*
X110029985Y-95871107D01*
X110071189Y-95927534D01*
X110078500Y-95969484D01*
X110078500Y-96104260D01*
X110088426Y-96172392D01*
X110088426Y-96172393D01*
X110122230Y-96241541D01*
X110133988Y-96310414D01*
X110122230Y-96350459D01*
X110088426Y-96419606D01*
X110088426Y-96419607D01*
X110078500Y-96487739D01*
X110078500Y-96754260D01*
X110088426Y-96822392D01*
X110088426Y-96822393D01*
X110122230Y-96891541D01*
X110133988Y-96960414D01*
X110122230Y-97000459D01*
X110088426Y-97069606D01*
X110088426Y-97069607D01*
X110078500Y-97137739D01*
X110078500Y-97404260D01*
X110088426Y-97472392D01*
X110088426Y-97472393D01*
X110122230Y-97541541D01*
X110133988Y-97610414D01*
X110122230Y-97650459D01*
X110088426Y-97719606D01*
X110088426Y-97719607D01*
X110078500Y-97787739D01*
X110078500Y-98054260D01*
X110088426Y-98122391D01*
X110139803Y-98227485D01*
X110222514Y-98310196D01*
X110222515Y-98310196D01*
X110222517Y-98310198D01*
X110327607Y-98361573D01*
X110361673Y-98366536D01*
X110395739Y-98371500D01*
X110395740Y-98371500D01*
X111737261Y-98371500D01*
X111759971Y-98368191D01*
X111805393Y-98361573D01*
X111910483Y-98310198D01*
X111993198Y-98227483D01*
X112044573Y-98122393D01*
X112054500Y-98054260D01*
X112054500Y-97787740D01*
X112044573Y-97719607D01*
X112010768Y-97650458D01*
X111999010Y-97581587D01*
X112010769Y-97541540D01*
X112044573Y-97472393D01*
X112054500Y-97404260D01*
X112054500Y-97137740D01*
X112044573Y-97069607D01*
X112010768Y-97000458D01*
X112010201Y-96997135D01*
X112008061Y-96994530D01*
X112004363Y-96962944D01*
X111999010Y-96931587D01*
X112000213Y-96927488D01*
X111999938Y-96925134D01*
X112010768Y-96891543D01*
X112019570Y-96873538D01*
X112030782Y-96850602D01*
X112077907Y-96799021D01*
X112145440Y-96781105D01*
X112209585Y-96801785D01*
X112209640Y-96801694D01*
X112210044Y-96801933D01*
X112211939Y-96802544D01*
X112215701Y-96805278D01*
X112358802Y-96889907D01*
X112358805Y-96889909D01*
X112517717Y-96936077D01*
X112517724Y-96936079D01*
X112525998Y-96936729D01*
X112526000Y-96936728D01*
X113026000Y-96936728D01*
X113026001Y-96936729D01*
X113034275Y-96936079D01*
X113034282Y-96936077D01*
X113193194Y-96889908D01*
X113193202Y-96889905D01*
X113220878Y-96873538D01*
X113288602Y-96856354D01*
X113347122Y-96873538D01*
X113374797Y-96889905D01*
X113374805Y-96889908D01*
X113533717Y-96936077D01*
X113533724Y-96936079D01*
X113541998Y-96936729D01*
X113542000Y-96936728D01*
X114042000Y-96936728D01*
X114042001Y-96936729D01*
X114050275Y-96936079D01*
X114050282Y-96936077D01*
X114209194Y-96889909D01*
X114209197Y-96889907D01*
X114351642Y-96805666D01*
X114351650Y-96805660D01*
X114468660Y-96688650D01*
X114468666Y-96688642D01*
X114552907Y-96546197D01*
X114552908Y-96546194D01*
X114599077Y-96387283D01*
X114599078Y-96387277D01*
X114601999Y-96350157D01*
X114602000Y-96350142D01*
X114602000Y-96321500D01*
X114042000Y-96321500D01*
X114042000Y-96936728D01*
X113542000Y-96936728D01*
X113542000Y-96321500D01*
X113026000Y-96321500D01*
X113026000Y-96936728D01*
X112526000Y-96936728D01*
X112526000Y-96195500D01*
X112545685Y-96128461D01*
X112598489Y-96082706D01*
X112650000Y-96071500D01*
X112776000Y-96071500D01*
X112776000Y-95945500D01*
X112795685Y-95878461D01*
X112848489Y-95832706D01*
X112900000Y-95821500D01*
X114602000Y-95821500D01*
X114602000Y-95792857D01*
X114601999Y-95792842D01*
X114599078Y-95755722D01*
X114599077Y-95755716D01*
X114552908Y-95596805D01*
X114552907Y-95596802D01*
X114468666Y-95454357D01*
X114468660Y-95454349D01*
X114375672Y-95361361D01*
X114342187Y-95300038D01*
X114340880Y-95254282D01*
X114352500Y-95180915D01*
X114352500Y-94692083D01*
X114337462Y-94597136D01*
X114337461Y-94597134D01*
X114337461Y-94597132D01*
X114279146Y-94482682D01*
X114279144Y-94482680D01*
X114279141Y-94482676D01*
X114197675Y-94401210D01*
X114164190Y-94339887D01*
X114169174Y-94270195D01*
X114197674Y-94225849D01*
X114232509Y-94191015D01*
X114304984Y-94065485D01*
X114342500Y-93925475D01*
X114342500Y-93780525D01*
X114304984Y-93640515D01*
X114296232Y-93625357D01*
X114232510Y-93514987D01*
X114232509Y-93514985D01*
X114232506Y-93514982D01*
X114231745Y-93513990D01*
X114231360Y-93512996D01*
X114228445Y-93507946D01*
X114229232Y-93507491D01*
X114206548Y-93448822D01*
X114220584Y-93380377D01*
X114269396Y-93330385D01*
X114330118Y-93314500D01*
X114678148Y-93314500D01*
X114745187Y-93334185D01*
X114776880Y-93363480D01*
X114783594Y-93372316D01*
X114819759Y-93443294D01*
X114893737Y-93517272D01*
X114898834Y-93523980D01*
X114908399Y-93549074D01*
X114921268Y-93572642D01*
X114920654Y-93581226D01*
X114923719Y-93589267D01*
X114918199Y-93615543D01*
X114916284Y-93642334D01*
X114910771Y-93650911D01*
X114909357Y-93657645D01*
X114900986Y-93666136D01*
X114887783Y-93686681D01*
X114819763Y-93754700D01*
X114819760Y-93754704D01*
X114760723Y-93870571D01*
X114745500Y-93966692D01*
X114745500Y-94426311D01*
X114760724Y-94522431D01*
X114760724Y-94522432D01*
X114790376Y-94580627D01*
X114803272Y-94649297D01*
X114799666Y-94669015D01*
X114765500Y-94796525D01*
X114765500Y-94941475D01*
X114803016Y-95081485D01*
X114803017Y-95081488D01*
X114875488Y-95207011D01*
X114875490Y-95207013D01*
X114875491Y-95207015D01*
X114977985Y-95309509D01*
X114977986Y-95309510D01*
X114977988Y-95309511D01*
X115103511Y-95381982D01*
X115103512Y-95381982D01*
X115103515Y-95381984D01*
X115243525Y-95419500D01*
X115243528Y-95419500D01*
X115388472Y-95419500D01*
X115388475Y-95419500D01*
X115528485Y-95381984D01*
X115654015Y-95309509D01*
X115756509Y-95207015D01*
X115828984Y-95081485D01*
X115866500Y-94941475D01*
X115866500Y-94796525D01*
X115832333Y-94669013D01*
X115833996Y-94599166D01*
X115841623Y-94580627D01*
X115871275Y-94522433D01*
X115886500Y-94426307D01*
X115886499Y-93966694D01*
X115886499Y-93966692D01*
X115886499Y-93966688D01*
X115871276Y-93870571D01*
X115871276Y-93870570D01*
X115871275Y-93870568D01*
X115871275Y-93870567D01*
X115812241Y-93754706D01*
X115812239Y-93754704D01*
X115812236Y-93754700D01*
X115744216Y-93686680D01*
X115739877Y-93678734D01*
X115732629Y-93673308D01*
X115723394Y-93648548D01*
X115710731Y-93625357D01*
X115711376Y-93616326D01*
X115708213Y-93607844D01*
X115713829Y-93582023D01*
X115715715Y-93555665D01*
X115721533Y-93546611D01*
X115723065Y-93539571D01*
X115744214Y-93511320D01*
X115789588Y-93465947D01*
X115850911Y-93432462D01*
X115920603Y-93437448D01*
X115939266Y-93446240D01*
X115992515Y-93476984D01*
X116132525Y-93514500D01*
X116132528Y-93514500D01*
X116277472Y-93514500D01*
X116277475Y-93514500D01*
X116417485Y-93476984D01*
X116543015Y-93404509D01*
X116645509Y-93302015D01*
X116717984Y-93176485D01*
X116755500Y-93036475D01*
X116755500Y-92960544D01*
X116775185Y-92893505D01*
X116791819Y-92872863D01*
X117698545Y-91966137D01*
X118644470Y-91020212D01*
X118690614Y-90940288D01*
X118696400Y-90918693D01*
X118714500Y-90851144D01*
X118714500Y-85424856D01*
X118714500Y-82101289D01*
X118734185Y-82034250D01*
X118786989Y-81988495D01*
X118856147Y-81978551D01*
X118903093Y-81995441D01*
X118907848Y-81998343D01*
X119039251Y-82045316D01*
X119140570Y-82059462D01*
X119140571Y-82059463D01*
X119146144Y-82060241D01*
X119148142Y-82060520D01*
X119150022Y-82061024D01*
X119151743Y-82061023D01*
X119177456Y-82064614D01*
X119228981Y-82061264D01*
X119236987Y-82061004D01*
X122311473Y-82060322D01*
X122378516Y-82079992D01*
X122424283Y-82132786D01*
X122435500Y-82184322D01*
X122435500Y-113167500D01*
X122415815Y-113234539D01*
X122363011Y-113280294D01*
X122311500Y-113291500D01*
X84952500Y-113291500D01*
X84885461Y-113271815D01*
X84839706Y-113219011D01*
X84828500Y-113167500D01*
X84828500Y-108573258D01*
X90197500Y-108573258D01*
X90197500Y-108802741D01*
X90210454Y-108901130D01*
X90227452Y-109030238D01*
X90286842Y-109251887D01*
X90374650Y-109463876D01*
X90374656Y-109463888D01*
X90456053Y-109604873D01*
X90489392Y-109662617D01*
X90629081Y-109844661D01*
X90629089Y-109844670D01*
X90791330Y-110006911D01*
X90791338Y-110006918D01*
X90973382Y-110146607D01*
X90973385Y-110146608D01*
X90973388Y-110146611D01*
X91172112Y-110261344D01*
X91172117Y-110261346D01*
X91172123Y-110261349D01*
X91263480Y-110299190D01*
X91384113Y-110349158D01*
X91605762Y-110408548D01*
X91833266Y-110438500D01*
X91833273Y-110438500D01*
X92062727Y-110438500D01*
X92062734Y-110438500D01*
X92290238Y-110408548D01*
X92511887Y-110349158D01*
X92723888Y-110261344D01*
X92922612Y-110146611D01*
X93104661Y-110006919D01*
X93104665Y-110006914D01*
X93104670Y-110006911D01*
X93266911Y-109844670D01*
X93266914Y-109844665D01*
X93266919Y-109844661D01*
X93406611Y-109662612D01*
X93521344Y-109463888D01*
X93609158Y-109251887D01*
X93668548Y-109030238D01*
X93698500Y-108802734D01*
X93698500Y-108573266D01*
X93668548Y-108345762D01*
X93609158Y-108124113D01*
X93525496Y-107922136D01*
X93521349Y-107912123D01*
X93521346Y-107912117D01*
X93521344Y-107912112D01*
X93406611Y-107713388D01*
X93406608Y-107713385D01*
X93406607Y-107713382D01*
X93266918Y-107531338D01*
X93266911Y-107531330D01*
X93104670Y-107369089D01*
X93104661Y-107369081D01*
X92922617Y-107229392D01*
X92723890Y-107114657D01*
X92723876Y-107114650D01*
X92511887Y-107026842D01*
X92290238Y-106967452D01*
X92252215Y-106962446D01*
X92062741Y-106937500D01*
X92062734Y-106937500D01*
X91833266Y-106937500D01*
X91833258Y-106937500D01*
X91616715Y-106966009D01*
X91605762Y-106967452D01*
X91512076Y-106992554D01*
X91384112Y-107026842D01*
X91172123Y-107114650D01*
X91172109Y-107114657D01*
X90973382Y-107229392D01*
X90791338Y-107369081D01*
X90629081Y-107531338D01*
X90489392Y-107713382D01*
X90374657Y-107912109D01*
X90374650Y-107912123D01*
X90286842Y-108124112D01*
X90227453Y-108345759D01*
X90227451Y-108345770D01*
X90197500Y-108573258D01*
X84828500Y-108573258D01*
X84828500Y-102296692D01*
X93390000Y-102296692D01*
X93390000Y-102756311D01*
X93405223Y-102852428D01*
X93405223Y-102852429D01*
X93405224Y-102852432D01*
X93405225Y-102852433D01*
X93459482Y-102958919D01*
X93464260Y-102968295D01*
X93464263Y-102968299D01*
X93532283Y-103036319D01*
X93565768Y-103097642D01*
X93560784Y-103167334D01*
X93532283Y-103211681D01*
X93464263Y-103279700D01*
X93464260Y-103279704D01*
X93405223Y-103395571D01*
X93390000Y-103491692D01*
X93390000Y-103951311D01*
X93405223Y-104047428D01*
X93405223Y-104047429D01*
X93405224Y-104047432D01*
X93405225Y-104047433D01*
X93452390Y-104140000D01*
X93464260Y-104163295D01*
X93464263Y-104163299D01*
X93556200Y-104255236D01*
X93556204Y-104255239D01*
X93556206Y-104255241D01*
X93672067Y-104314275D01*
X93672069Y-104314275D01*
X93672071Y-104314276D01*
X93701228Y-104318893D01*
X93768193Y-104329500D01*
X94152806Y-104329499D01*
X94152811Y-104329499D01*
X94152811Y-104329498D01*
X94200869Y-104321887D01*
X94248928Y-104314276D01*
X94248929Y-104314276D01*
X94248930Y-104314275D01*
X94248933Y-104314275D01*
X94364794Y-104255241D01*
X94436717Y-104183317D01*
X94498038Y-104149834D01*
X94524397Y-104147000D01*
X94854071Y-104147000D01*
X94921110Y-104166685D01*
X94966865Y-104219489D01*
X94976809Y-104288647D01*
X94973370Y-104303432D01*
X94958000Y-104400475D01*
X94958000Y-104763517D01*
X94961007Y-104782500D01*
X94972854Y-104857304D01*
X95030450Y-104970342D01*
X95030452Y-104970344D01*
X95030454Y-104970347D01*
X95120152Y-105060045D01*
X95120154Y-105060046D01*
X95120158Y-105060050D01*
X95207133Y-105104366D01*
X95233198Y-105117647D01*
X95326975Y-105132499D01*
X95326981Y-105132500D01*
X95428500Y-105132499D01*
X95495538Y-105152183D01*
X95541294Y-105204986D01*
X95552500Y-105256499D01*
X95552500Y-105553255D01*
X95532815Y-105620294D01*
X95507249Y-105649039D01*
X95496822Y-105657611D01*
X95461206Y-105675759D01*
X95398598Y-105738366D01*
X95393926Y-105742208D01*
X95367110Y-105753624D01*
X95341534Y-105767590D01*
X95335348Y-105767147D01*
X95329640Y-105769578D01*
X95300903Y-105764683D01*
X95271843Y-105762605D01*
X95262299Y-105758108D01*
X95260762Y-105757847D01*
X95259715Y-105756891D01*
X95253177Y-105753811D01*
X95169689Y-105705609D01*
X95169686Y-105705608D01*
X95042392Y-105671500D01*
X94910608Y-105671500D01*
X94783312Y-105705608D01*
X94669186Y-105771500D01*
X94669183Y-105771502D01*
X94576002Y-105864683D01*
X94576000Y-105864686D01*
X94510108Y-105978812D01*
X94476000Y-106106108D01*
X94476000Y-106237891D01*
X94510108Y-106365187D01*
X94531544Y-106402315D01*
X94576000Y-106479314D01*
X94669186Y-106572500D01*
X94783314Y-106638392D01*
X94910608Y-106672500D01*
X94910610Y-106672500D01*
X95042390Y-106672500D01*
X95042392Y-106672500D01*
X95169686Y-106638392D01*
X95194802Y-106623890D01*
X95262702Y-106607417D01*
X95328729Y-106630268D01*
X95371921Y-106685189D01*
X95378564Y-106754742D01*
X95367289Y-106787571D01*
X95310223Y-106899569D01*
X95295000Y-106995692D01*
X95295000Y-107380311D01*
X95310223Y-107476428D01*
X95310223Y-107476429D01*
X95310224Y-107476432D01*
X95310225Y-107476433D01*
X95355417Y-107565128D01*
X95369260Y-107592295D01*
X95369263Y-107592299D01*
X95398818Y-107621854D01*
X95432303Y-107683177D01*
X95427319Y-107752869D01*
X95398821Y-107797214D01*
X95388356Y-107807678D01*
X95388355Y-107807680D01*
X95330037Y-107922136D01*
X95315000Y-108017083D01*
X95315000Y-108390916D01*
X95314999Y-108390916D01*
X95330037Y-108485863D01*
X95330038Y-108485866D01*
X95330039Y-108485868D01*
X95388354Y-108600318D01*
X95388355Y-108600319D01*
X95388358Y-108600323D01*
X95479176Y-108691141D01*
X95479180Y-108691144D01*
X95479182Y-108691146D01*
X95593632Y-108749461D01*
X95593634Y-108749461D01*
X95593636Y-108749462D01*
X95688583Y-108764500D01*
X95688584Y-108764500D01*
X96177416Y-108764500D01*
X96272363Y-108749462D01*
X96272363Y-108749461D01*
X96272368Y-108749461D01*
X96386818Y-108691146D01*
X96412819Y-108665144D01*
X96474140Y-108631660D01*
X96543832Y-108636644D01*
X96588180Y-108665144D01*
X96614182Y-108691146D01*
X96728632Y-108749461D01*
X96728634Y-108749461D01*
X96728636Y-108749462D01*
X96823583Y-108764500D01*
X96823584Y-108764500D01*
X97312416Y-108764500D01*
X97407363Y-108749462D01*
X97407363Y-108749461D01*
X97407368Y-108749461D01*
X97521818Y-108691146D01*
X97544377Y-108668586D01*
X97605698Y-108635102D01*
X97675390Y-108640085D01*
X97694050Y-108648877D01*
X97812015Y-108716984D01*
X97952025Y-108754500D01*
X97952028Y-108754500D01*
X98096972Y-108754500D01*
X98096975Y-108754500D01*
X98236985Y-108716984D01*
X98362515Y-108644509D01*
X98465009Y-108542015D01*
X98501533Y-108478753D01*
X101139000Y-108478753D01*
X101139000Y-108691246D01*
X101172242Y-108901127D01*
X101172242Y-108901130D01*
X101237904Y-109103217D01*
X101334375Y-109292550D01*
X101373728Y-109346716D01*
X102006037Y-108714408D01*
X102023075Y-108777993D01*
X102088901Y-108892007D01*
X102181993Y-108985099D01*
X102296007Y-109050925D01*
X102359590Y-109067962D01*
X101727282Y-109700269D01*
X101727282Y-109700270D01*
X101781449Y-109739624D01*
X101970782Y-109836095D01*
X102172870Y-109901757D01*
X102382754Y-109935000D01*
X102595246Y-109935000D01*
X102805127Y-109901757D01*
X102805130Y-109901757D01*
X103007217Y-109836095D01*
X103196554Y-109739622D01*
X103250716Y-109700270D01*
X103250717Y-109700270D01*
X102618408Y-109067962D01*
X102681993Y-109050925D01*
X102796007Y-108985099D01*
X102889099Y-108892007D01*
X102954925Y-108777993D01*
X102971962Y-108714408D01*
X103604270Y-109346717D01*
X103604270Y-109346716D01*
X103643622Y-109292554D01*
X103740096Y-109103215D01*
X103772239Y-109004288D01*
X103811676Y-108946612D01*
X103876034Y-108919413D01*
X103944880Y-108931327D01*
X103996357Y-108978571D01*
X104008100Y-109004284D01*
X104009127Y-109007446D01*
X104031281Y-109050925D01*
X104087768Y-109161788D01*
X104189586Y-109301928D01*
X104312072Y-109424414D01*
X104452212Y-109526232D01*
X104606555Y-109604873D01*
X104771299Y-109658402D01*
X104942389Y-109685500D01*
X104942390Y-109685500D01*
X105115610Y-109685500D01*
X105115611Y-109685500D01*
X105286701Y-109658402D01*
X105451445Y-109604873D01*
X105605788Y-109526232D01*
X105745928Y-109424414D01*
X105868414Y-109301928D01*
X105970232Y-109161788D01*
X106048873Y-109007445D01*
X106102402Y-108842701D01*
X106129500Y-108671611D01*
X106129500Y-108498389D01*
X106468500Y-108498389D01*
X106468500Y-108671610D01*
X106489266Y-108802727D01*
X106495598Y-108842701D01*
X106548101Y-109004288D01*
X106549128Y-109007447D01*
X106560742Y-109030240D01*
X106627768Y-109161788D01*
X106729586Y-109301928D01*
X106852072Y-109424414D01*
X106992212Y-109526232D01*
X107146555Y-109604873D01*
X107311299Y-109658402D01*
X107482389Y-109685500D01*
X107482390Y-109685500D01*
X107655610Y-109685500D01*
X107655611Y-109685500D01*
X107826701Y-109658402D01*
X107991445Y-109604873D01*
X108145788Y-109526232D01*
X108285928Y-109424414D01*
X108408414Y-109301928D01*
X108510232Y-109161788D01*
X108588873Y-109007445D01*
X108642402Y-108842701D01*
X108669500Y-108671611D01*
X108669500Y-108498389D01*
X108642402Y-108327299D01*
X108588873Y-108162555D01*
X108510232Y-108008212D01*
X108408414Y-107868072D01*
X108285928Y-107745586D01*
X108237390Y-107710321D01*
X109008500Y-107710321D01*
X109008500Y-109459678D01*
X109023032Y-109532735D01*
X109023033Y-109532739D01*
X109023034Y-109532740D01*
X109078399Y-109615601D01*
X109148757Y-109662612D01*
X109161260Y-109670966D01*
X109161264Y-109670967D01*
X109234321Y-109685499D01*
X109234324Y-109685500D01*
X109234326Y-109685500D01*
X110983676Y-109685500D01*
X110983677Y-109685499D01*
X111056740Y-109670966D01*
X111139601Y-109615601D01*
X111194966Y-109532740D01*
X111209500Y-109459674D01*
X111209500Y-108573258D01*
X113497500Y-108573258D01*
X113497500Y-108802741D01*
X113510454Y-108901130D01*
X113527452Y-109030238D01*
X113586842Y-109251887D01*
X113674650Y-109463876D01*
X113674656Y-109463888D01*
X113756053Y-109604873D01*
X113789392Y-109662617D01*
X113929081Y-109844661D01*
X113929089Y-109844670D01*
X114091330Y-110006911D01*
X114091338Y-110006918D01*
X114273382Y-110146607D01*
X114273385Y-110146608D01*
X114273388Y-110146611D01*
X114472112Y-110261344D01*
X114472117Y-110261346D01*
X114472123Y-110261349D01*
X114563480Y-110299190D01*
X114684113Y-110349158D01*
X114905762Y-110408548D01*
X115133266Y-110438500D01*
X115133273Y-110438500D01*
X115362727Y-110438500D01*
X115362734Y-110438500D01*
X115590238Y-110408548D01*
X115811887Y-110349158D01*
X116023888Y-110261344D01*
X116222612Y-110146611D01*
X116404661Y-110006919D01*
X116404665Y-110006914D01*
X116404670Y-110006911D01*
X116566911Y-109844670D01*
X116566914Y-109844665D01*
X116566919Y-109844661D01*
X116706611Y-109662612D01*
X116821344Y-109463888D01*
X116909158Y-109251887D01*
X116968548Y-109030238D01*
X116998500Y-108802734D01*
X116998500Y-108573266D01*
X116968548Y-108345762D01*
X116909158Y-108124113D01*
X116825496Y-107922136D01*
X116821349Y-107912123D01*
X116821346Y-107912117D01*
X116821344Y-107912112D01*
X116706611Y-107713388D01*
X116706608Y-107713385D01*
X116706607Y-107713382D01*
X116566918Y-107531338D01*
X116566911Y-107531330D01*
X116404670Y-107369089D01*
X116404661Y-107369081D01*
X116222617Y-107229392D01*
X116023890Y-107114657D01*
X116023876Y-107114650D01*
X115811887Y-107026842D01*
X115590238Y-106967452D01*
X115552215Y-106962446D01*
X115362741Y-106937500D01*
X115362734Y-106937500D01*
X115133266Y-106937500D01*
X115133258Y-106937500D01*
X114916715Y-106966009D01*
X114905762Y-106967452D01*
X114812076Y-106992554D01*
X114684112Y-107026842D01*
X114472123Y-107114650D01*
X114472109Y-107114657D01*
X114273382Y-107229392D01*
X114091338Y-107369081D01*
X113929081Y-107531338D01*
X113789392Y-107713382D01*
X113674657Y-107912109D01*
X113674650Y-107912123D01*
X113586842Y-108124112D01*
X113527453Y-108345759D01*
X113527451Y-108345770D01*
X113497500Y-108573258D01*
X111209500Y-108573258D01*
X111209500Y-107710326D01*
X111209500Y-107710323D01*
X111209499Y-107710321D01*
X111194967Y-107637264D01*
X111194966Y-107637260D01*
X111184672Y-107621854D01*
X111139601Y-107554399D01*
X111056740Y-107499034D01*
X111056739Y-107499033D01*
X111056735Y-107499032D01*
X110983677Y-107484500D01*
X110983674Y-107484500D01*
X109234326Y-107484500D01*
X109234323Y-107484500D01*
X109161264Y-107499032D01*
X109161260Y-107499033D01*
X109078399Y-107554399D01*
X109023033Y-107637260D01*
X109023032Y-107637264D01*
X109008500Y-107710321D01*
X108237390Y-107710321D01*
X108145788Y-107643768D01*
X107991445Y-107565127D01*
X107826701Y-107511598D01*
X107826699Y-107511597D01*
X107826698Y-107511597D01*
X107695271Y-107490781D01*
X107655611Y-107484500D01*
X107482389Y-107484500D01*
X107442728Y-107490781D01*
X107311302Y-107511597D01*
X107146552Y-107565128D01*
X106992211Y-107643768D01*
X106943685Y-107679025D01*
X106852072Y-107745586D01*
X106852070Y-107745588D01*
X106852069Y-107745588D01*
X106729588Y-107868069D01*
X106729588Y-107868070D01*
X106729586Y-107868072D01*
X106697591Y-107912109D01*
X106627768Y-108008211D01*
X106549128Y-108162552D01*
X106495597Y-108327302D01*
X106468500Y-108498389D01*
X106129500Y-108498389D01*
X106102402Y-108327299D01*
X106048873Y-108162555D01*
X105970232Y-108008212D01*
X105868414Y-107868072D01*
X105745928Y-107745586D01*
X105605788Y-107643768D01*
X105451445Y-107565127D01*
X105286701Y-107511598D01*
X105286699Y-107511597D01*
X105286698Y-107511597D01*
X105155271Y-107490781D01*
X105115611Y-107484500D01*
X104942389Y-107484500D01*
X104902728Y-107490781D01*
X104771302Y-107511597D01*
X104606552Y-107565128D01*
X104452211Y-107643768D01*
X104403685Y-107679025D01*
X104312072Y-107745586D01*
X104312070Y-107745588D01*
X104312069Y-107745588D01*
X104189588Y-107868069D01*
X104189588Y-107868070D01*
X104189586Y-107868072D01*
X104157591Y-107912109D01*
X104087768Y-108008211D01*
X104009128Y-108162550D01*
X104008099Y-108165720D01*
X104007381Y-108166769D01*
X104007266Y-108167048D01*
X104007207Y-108167023D01*
X103968657Y-108223393D01*
X103904297Y-108250587D01*
X103835451Y-108238668D01*
X103783979Y-108191420D01*
X103772239Y-108165711D01*
X103740096Y-108066784D01*
X103643624Y-107877449D01*
X103604270Y-107823282D01*
X103604269Y-107823282D01*
X102971962Y-108455590D01*
X102954925Y-108392007D01*
X102889099Y-108277993D01*
X102796007Y-108184901D01*
X102681993Y-108119075D01*
X102618409Y-108102037D01*
X103250716Y-107469728D01*
X103196550Y-107430375D01*
X103007217Y-107333904D01*
X102805129Y-107268242D01*
X102595246Y-107235000D01*
X102382754Y-107235000D01*
X102172872Y-107268242D01*
X102172869Y-107268242D01*
X101970782Y-107333904D01*
X101781439Y-107430380D01*
X101727282Y-107469727D01*
X101727282Y-107469728D01*
X102359591Y-108102037D01*
X102296007Y-108119075D01*
X102181993Y-108184901D01*
X102088901Y-108277993D01*
X102023075Y-108392007D01*
X102006037Y-108455591D01*
X101373728Y-107823282D01*
X101373727Y-107823282D01*
X101334380Y-107877439D01*
X101237904Y-108066782D01*
X101172242Y-108268869D01*
X101172242Y-108268872D01*
X101139000Y-108478753D01*
X98501533Y-108478753D01*
X98537484Y-108416485D01*
X98575000Y-108276475D01*
X98575000Y-108131525D01*
X98537484Y-107991515D01*
X98465009Y-107865985D01*
X98382705Y-107783681D01*
X98378366Y-107775735D01*
X98371119Y-107770310D01*
X98361884Y-107745550D01*
X98349220Y-107722358D01*
X98349865Y-107713328D01*
X98346702Y-107704846D01*
X98352318Y-107679025D01*
X98354204Y-107652666D01*
X98360022Y-107643612D01*
X98361554Y-107636573D01*
X98382705Y-107608319D01*
X98416205Y-107574819D01*
X98477528Y-107541334D01*
X98503886Y-107538500D01*
X100229642Y-107538500D01*
X100229644Y-107538500D01*
X100318788Y-107514614D01*
X100345773Y-107499034D01*
X100398712Y-107468470D01*
X101666470Y-106200712D01*
X101712614Y-106120788D01*
X101736500Y-106031644D01*
X101736500Y-105939356D01*
X101736500Y-105263775D01*
X101739389Y-105253935D01*
X101738126Y-105243757D01*
X101749067Y-105220975D01*
X101756185Y-105196736D01*
X101764738Y-105188345D01*
X101768375Y-105180775D01*
X101787102Y-105166409D01*
X101795491Y-105158182D01*
X101799737Y-105155567D01*
X101839818Y-105135146D01*
X101850887Y-105124076D01*
X101863270Y-105116453D01*
X101883506Y-105110933D01*
X101901913Y-105100882D01*
X101916533Y-105101926D01*
X101930677Y-105098069D01*
X101950683Y-105104366D01*
X101971605Y-105105861D01*
X101990278Y-105114659D01*
X102010855Y-105126539D01*
X102070509Y-105160981D01*
X102070510Y-105160982D01*
X102070512Y-105160982D01*
X102070515Y-105160984D01*
X102210525Y-105198500D01*
X102210528Y-105198500D01*
X102355472Y-105198500D01*
X102355475Y-105198500D01*
X102495485Y-105160984D01*
X102621015Y-105088509D01*
X102723509Y-104986015D01*
X102795984Y-104860485D01*
X102833500Y-104720475D01*
X102833500Y-104575525D01*
X102795984Y-104435515D01*
X102775756Y-104400480D01*
X102723511Y-104309988D01*
X102723506Y-104309982D01*
X102641205Y-104227681D01*
X102607720Y-104166358D01*
X102612704Y-104096666D01*
X102641205Y-104052319D01*
X102673182Y-104020342D01*
X102723509Y-103970015D01*
X102795984Y-103844485D01*
X102833500Y-103704475D01*
X102833500Y-103559525D01*
X102795984Y-103419515D01*
X102786940Y-103403851D01*
X102723511Y-103293988D01*
X102723506Y-103293982D01*
X102641205Y-103211681D01*
X102607720Y-103150358D01*
X102612704Y-103080666D01*
X102641205Y-103036319D01*
X102665206Y-103012318D01*
X102723509Y-102954015D01*
X102795984Y-102828485D01*
X102833500Y-102688475D01*
X102833500Y-102543525D01*
X102795984Y-102403515D01*
X102779112Y-102374293D01*
X102762500Y-102312293D01*
X102762500Y-102024398D01*
X102782185Y-101957359D01*
X102798819Y-101936717D01*
X102858236Y-101877299D01*
X102858241Y-101877294D01*
X102917275Y-101761433D01*
X102932500Y-101665307D01*
X102932499Y-101205694D01*
X102932499Y-101205693D01*
X102932499Y-101205688D01*
X102917276Y-101109571D01*
X102917276Y-101109570D01*
X102917275Y-101109568D01*
X102917275Y-101109567D01*
X102858241Y-100993706D01*
X102858239Y-100993704D01*
X102858236Y-100993700D01*
X102790217Y-100925681D01*
X102756732Y-100864358D01*
X102761716Y-100794666D01*
X102790217Y-100750319D01*
X102858236Y-100682299D01*
X102858241Y-100682294D01*
X102917275Y-100566433D01*
X102932500Y-100470307D01*
X102932499Y-100010694D01*
X102932499Y-100010688D01*
X102917276Y-99914571D01*
X102917276Y-99914570D01*
X102917275Y-99914568D01*
X102917275Y-99914567D01*
X102858241Y-99798706D01*
X102858239Y-99798704D01*
X102858236Y-99798700D01*
X102766299Y-99706763D01*
X102766295Y-99706760D01*
X102766294Y-99706759D01*
X102650433Y-99647725D01*
X102650431Y-99647724D01*
X102650428Y-99647723D01*
X102554307Y-99632500D01*
X102169688Y-99632500D01*
X102169688Y-99632501D01*
X102073571Y-99647723D01*
X102073570Y-99647723D01*
X101957704Y-99706760D01*
X101921954Y-99742511D01*
X101885782Y-99778682D01*
X101858851Y-99793388D01*
X101833038Y-99809977D01*
X101826838Y-99810868D01*
X101824462Y-99812166D01*
X101798103Y-99815000D01*
X101798000Y-99815000D01*
X101730961Y-99795315D01*
X101685206Y-99742511D01*
X101674000Y-99691000D01*
X101674000Y-99178136D01*
X101674000Y-99178128D01*
X101667591Y-99118518D01*
X101617296Y-98983670D01*
X101531046Y-98868454D01*
X101415830Y-98782204D01*
X101415828Y-98782203D01*
X101415827Y-98782202D01*
X101280981Y-98731908D01*
X101280982Y-98731908D01*
X101221382Y-98725501D01*
X101221380Y-98725500D01*
X101221372Y-98725500D01*
X100200628Y-98725500D01*
X100200620Y-98725500D01*
X100200617Y-98725501D01*
X100141018Y-98731908D01*
X100006172Y-98782202D01*
X100006170Y-98782204D01*
X99890954Y-98868454D01*
X99804704Y-98983670D01*
X99804702Y-98983672D01*
X99754408Y-99118518D01*
X99748001Y-99178117D01*
X99748000Y-99178136D01*
X99748000Y-100973863D01*
X99748001Y-100973882D01*
X99754408Y-101033481D01*
X99804702Y-101168327D01*
X99804703Y-101168328D01*
X99804704Y-101168330D01*
X99890954Y-101283546D01*
X100006170Y-101369796D01*
X100006171Y-101369796D01*
X100006172Y-101369797D01*
X100141018Y-101420091D01*
X100141017Y-101420091D01*
X100147945Y-101420835D01*
X100200628Y-101426500D01*
X100200637Y-101426500D01*
X101221363Y-101426500D01*
X101221372Y-101426500D01*
X101280982Y-101420091D01*
X101415830Y-101369796D01*
X101531046Y-101283546D01*
X101568233Y-101233869D01*
X101624166Y-101191998D01*
X101693858Y-101187014D01*
X101755181Y-101220499D01*
X101788666Y-101281822D01*
X101791500Y-101308180D01*
X101791500Y-101665311D01*
X101806723Y-101761428D01*
X101806723Y-101761429D01*
X101806724Y-101761432D01*
X101806725Y-101761433D01*
X101865759Y-101877294D01*
X101865760Y-101877295D01*
X101865763Y-101877300D01*
X101868616Y-101881228D01*
X101892090Y-101947036D01*
X101876260Y-102015089D01*
X101826150Y-102063779D01*
X101757671Y-102077649D01*
X101729967Y-102072034D01*
X101725371Y-102070540D01*
X101725368Y-102070539D01*
X101725364Y-102070538D01*
X101725360Y-102070537D01*
X101630416Y-102055500D01*
X101141584Y-102055500D01*
X101098933Y-102062255D01*
X101068215Y-102067120D01*
X100998922Y-102058164D01*
X100961138Y-102032327D01*
X100868150Y-101939339D01*
X100868142Y-101939333D01*
X100725697Y-101855092D01*
X100725694Y-101855091D01*
X100566783Y-101808922D01*
X100566777Y-101808921D01*
X100529657Y-101806000D01*
X100501000Y-101806000D01*
X100501000Y-105458000D01*
X100529642Y-105458000D01*
X100529657Y-105457999D01*
X100566777Y-105455078D01*
X100566783Y-105455077D01*
X100725694Y-105408908D01*
X100725697Y-105408907D01*
X100848379Y-105336354D01*
X100916103Y-105319171D01*
X100982365Y-105341331D01*
X101026129Y-105395797D01*
X101035500Y-105443086D01*
X101035500Y-105788956D01*
X101015815Y-105855995D01*
X100999181Y-105876637D01*
X100074637Y-106801181D01*
X100013314Y-106834666D01*
X99986956Y-106837500D01*
X98503886Y-106837500D01*
X98436847Y-106817815D01*
X98416205Y-106801181D01*
X98362517Y-106747493D01*
X98362511Y-106747488D01*
X98236988Y-106675017D01*
X98236989Y-106675017D01*
X98225506Y-106671940D01*
X98096975Y-106637500D01*
X98060124Y-106637500D01*
X97993085Y-106617815D01*
X97947330Y-106565011D01*
X97937386Y-106495853D01*
X97941739Y-106476608D01*
X97949456Y-106451841D01*
X97952169Y-106422000D01*
X97222000Y-106422000D01*
X97154961Y-106402315D01*
X97109206Y-106349511D01*
X97098000Y-106298000D01*
X97098000Y-106172000D01*
X96972000Y-106172000D01*
X96904961Y-106152315D01*
X96859206Y-106099511D01*
X96848000Y-106048000D01*
X96848000Y-105352000D01*
X96847163Y-105352000D01*
X96780656Y-105358043D01*
X96627640Y-105405724D01*
X96627636Y-105405726D01*
X96490480Y-105488639D01*
X96465180Y-105513939D01*
X96445741Y-105524552D01*
X96429011Y-105539050D01*
X96415680Y-105540966D01*
X96403856Y-105547423D01*
X96381768Y-105545842D01*
X96359853Y-105548994D01*
X96347599Y-105543398D01*
X96334165Y-105542437D01*
X96316440Y-105529168D01*
X96296297Y-105519969D01*
X96289014Y-105508636D01*
X96278232Y-105500565D01*
X96270494Y-105479819D01*
X96258523Y-105461191D01*
X96255371Y-105439269D01*
X96253816Y-105435100D01*
X96253500Y-105426256D01*
X96253500Y-105256499D01*
X96273185Y-105189460D01*
X96325989Y-105143705D01*
X96377500Y-105132499D01*
X96415017Y-105132499D01*
X96415018Y-105132499D01*
X96508804Y-105117646D01*
X96621842Y-105060050D01*
X96711550Y-104970342D01*
X96769146Y-104857304D01*
X96769146Y-104857302D01*
X96769147Y-104857301D01*
X96783999Y-104763524D01*
X96784000Y-104763519D01*
X96783999Y-104400482D01*
X96769146Y-104306696D01*
X96711550Y-104193658D01*
X96711545Y-104193653D01*
X96705811Y-104185759D01*
X96707165Y-104184774D01*
X96679090Y-104133368D01*
X96684069Y-104063676D01*
X96691754Y-104046969D01*
X96700214Y-104031677D01*
X96711550Y-104020342D01*
X96769146Y-103907304D01*
X96769193Y-103907005D01*
X96771528Y-103902786D01*
X96794922Y-103879649D01*
X96817517Y-103855726D01*
X96819647Y-103855198D01*
X96821207Y-103853656D01*
X96853396Y-103846840D01*
X96885338Y-103838931D01*
X96887414Y-103839638D01*
X96889562Y-103839184D01*
X96920326Y-103850854D01*
X96951473Y-103861468D01*
X96952838Y-103863187D01*
X96954889Y-103863965D01*
X96974457Y-103890409D01*
X96994925Y-103916183D01*
X96996159Y-103919738D01*
X96996449Y-103920130D01*
X96996485Y-103920677D01*
X96999104Y-103928222D01*
X97032216Y-104042193D01*
X97032217Y-104042196D01*
X97115814Y-104183552D01*
X97115821Y-104183561D01*
X97201960Y-104269700D01*
X97235445Y-104331023D01*
X97236753Y-104376773D01*
X97233000Y-104400475D01*
X97233000Y-104763517D01*
X97236007Y-104782500D01*
X97247854Y-104857304D01*
X97305450Y-104970342D01*
X97305452Y-104970344D01*
X97305454Y-104970347D01*
X97395152Y-105060045D01*
X97395154Y-105060046D01*
X97395158Y-105060050D01*
X97482133Y-105104366D01*
X97508198Y-105117647D01*
X97601975Y-105132499D01*
X97601981Y-105132500D01*
X97683163Y-105132499D01*
X97709878Y-105140343D01*
X97737332Y-105144957D01*
X97742935Y-105150049D01*
X97750201Y-105152183D01*
X97768435Y-105173226D01*
X97789037Y-105191950D01*
X97793314Y-105201937D01*
X97795957Y-105204986D01*
X97802934Y-105224393D01*
X97804507Y-105230261D01*
X97804511Y-105230273D01*
X97819386Y-105285789D01*
X97822497Y-105293298D01*
X97821266Y-105293807D01*
X97835744Y-105353494D01*
X97812891Y-105419521D01*
X97757968Y-105462710D01*
X97688415Y-105469350D01*
X97647736Y-105453708D01*
X97568363Y-105405726D01*
X97568359Y-105405724D01*
X97415342Y-105358043D01*
X97415343Y-105358043D01*
X97348837Y-105352000D01*
X97348000Y-105352000D01*
X97348000Y-105922000D01*
X97952168Y-105922000D01*
X97949456Y-105892155D01*
X97901775Y-105739142D01*
X97901477Y-105738648D01*
X97901368Y-105738236D01*
X97898696Y-105732299D01*
X97899683Y-105731854D01*
X97883640Y-105671093D01*
X97905157Y-105604619D01*
X97959196Y-105560331D01*
X98028602Y-105552289D01*
X98069593Y-105567109D01*
X98096259Y-105582505D01*
X98143209Y-105609613D01*
X98143211Y-105609613D01*
X98143212Y-105609614D01*
X98232356Y-105633500D01*
X98758824Y-105633500D01*
X98825863Y-105653185D01*
X98846505Y-105669819D01*
X98860186Y-105683500D01*
X98974314Y-105749392D01*
X99101608Y-105783500D01*
X99101610Y-105783500D01*
X99233390Y-105783500D01*
X99233392Y-105783500D01*
X99360686Y-105749392D01*
X99474814Y-105683500D01*
X99568000Y-105590314D01*
X99633892Y-105476186D01*
X99633892Y-105476185D01*
X99637956Y-105469147D01*
X99640562Y-105470651D01*
X99675377Y-105427427D01*
X99741665Y-105405346D01*
X99780717Y-105410190D01*
X99935216Y-105455077D01*
X99935222Y-105455078D01*
X99972342Y-105457999D01*
X99972358Y-105458000D01*
X100001000Y-105458000D01*
X100001000Y-104898000D01*
X99534886Y-104898000D01*
X99472887Y-104881387D01*
X99410946Y-104845625D01*
X99360687Y-104816608D01*
X99297039Y-104799554D01*
X99233392Y-104782500D01*
X99183000Y-104782500D01*
X99115961Y-104762815D01*
X99070206Y-104710011D01*
X99059000Y-104658500D01*
X99058999Y-104400480D01*
X99057294Y-104389718D01*
X99055245Y-104376780D01*
X99059698Y-104342316D01*
X99063975Y-104308001D01*
X99064168Y-104307716D01*
X99064198Y-104307490D01*
X99082495Y-104277956D01*
X99219020Y-104114277D01*
X99240064Y-104100186D01*
X99258579Y-104082899D01*
X99268607Y-104081074D01*
X99277077Y-104075404D01*
X99302401Y-104074927D01*
X99327320Y-104070395D01*
X99336742Y-104074281D01*
X99346934Y-104074090D01*
X99368494Y-104087380D01*
X99391910Y-104097039D01*
X99397735Y-104105404D01*
X99406412Y-104110752D01*
X99417363Y-104133587D01*
X99431841Y-104154374D01*
X99432219Y-104164561D01*
X99436627Y-104173751D01*
X99433494Y-104198884D01*
X99434435Y-104224196D01*
X99433319Y-104228298D01*
X99386421Y-104389718D01*
X99385770Y-104398000D01*
X100001000Y-104398000D01*
X100001000Y-103882000D01*
X98270000Y-103882000D01*
X98202961Y-103862315D01*
X98157206Y-103809511D01*
X98146000Y-103758000D01*
X98146000Y-103506000D01*
X98165685Y-103438961D01*
X98218489Y-103393206D01*
X98270000Y-103382000D01*
X100001000Y-103382000D01*
X100001000Y-102866000D01*
X99385770Y-102866000D01*
X99386421Y-102874281D01*
X99433319Y-103035701D01*
X99433120Y-103105570D01*
X99395178Y-103164240D01*
X99331540Y-103193084D01*
X99262410Y-103182943D01*
X99219019Y-103149722D01*
X99082495Y-102986043D01*
X99070719Y-102958919D01*
X99056553Y-102932975D01*
X99056348Y-102925816D01*
X99054671Y-102921952D01*
X99056004Y-102913772D01*
X99055246Y-102887219D01*
X99059000Y-102863519D01*
X99058999Y-102500482D01*
X99058999Y-102500481D01*
X99058999Y-102500476D01*
X99047795Y-102429735D01*
X99047794Y-102429733D01*
X99047691Y-102429084D01*
X99044146Y-102406696D01*
X99023410Y-102366000D01*
X99385770Y-102366000D01*
X100001000Y-102366000D01*
X100001000Y-101806000D01*
X99972342Y-101806000D01*
X99935222Y-101808921D01*
X99935216Y-101808922D01*
X99776305Y-101855091D01*
X99776302Y-101855092D01*
X99633857Y-101939333D01*
X99633849Y-101939339D01*
X99516839Y-102056349D01*
X99516833Y-102056357D01*
X99432592Y-102198802D01*
X99432590Y-102198805D01*
X99386421Y-102357718D01*
X99385770Y-102366000D01*
X99023410Y-102366000D01*
X98986550Y-102293658D01*
X98986546Y-102293654D01*
X98986545Y-102293652D01*
X98896847Y-102203954D01*
X98896844Y-102203952D01*
X98896842Y-102203950D01*
X98820017Y-102164805D01*
X98783801Y-102146352D01*
X98690017Y-102131498D01*
X98685765Y-102131164D01*
X98620478Y-102106278D01*
X98579010Y-102050045D01*
X98571500Y-102007547D01*
X98571500Y-101550500D01*
X98591185Y-101483461D01*
X98643989Y-101437706D01*
X98695500Y-101426500D01*
X98896363Y-101426500D01*
X98896372Y-101426500D01*
X98955982Y-101420091D01*
X99090830Y-101369796D01*
X99206046Y-101283546D01*
X99292296Y-101168330D01*
X99342591Y-101033482D01*
X99349000Y-100973872D01*
X99349000Y-99178128D01*
X99342591Y-99118518D01*
X99292296Y-98983670D01*
X99206046Y-98868454D01*
X99090830Y-98782204D01*
X99090828Y-98782203D01*
X99090827Y-98782202D01*
X98955981Y-98731908D01*
X98955982Y-98731908D01*
X98896382Y-98725501D01*
X98896380Y-98725500D01*
X98896372Y-98725500D01*
X97875628Y-98725500D01*
X97875620Y-98725500D01*
X97875617Y-98725501D01*
X97816018Y-98731908D01*
X97681172Y-98782202D01*
X97681170Y-98782204D01*
X97565954Y-98868454D01*
X97479704Y-98983670D01*
X97479702Y-98983672D01*
X97429408Y-99118518D01*
X97423001Y-99178117D01*
X97423000Y-99178136D01*
X97423000Y-100361827D01*
X97403315Y-100428866D01*
X97350511Y-100474621D01*
X97281353Y-100484565D01*
X97217797Y-100455540D01*
X97211319Y-100449508D01*
X97177150Y-100415339D01*
X97177142Y-100415333D01*
X97034697Y-100331092D01*
X97034694Y-100331091D01*
X96875783Y-100284922D01*
X96875777Y-100284921D01*
X96838657Y-100282000D01*
X96810000Y-100282000D01*
X96810000Y-101902000D01*
X96838642Y-101902000D01*
X96838657Y-101901999D01*
X96875777Y-101899078D01*
X96875783Y-101899077D01*
X97034694Y-101852908D01*
X97034697Y-101852907D01*
X97177142Y-101768666D01*
X97177150Y-101768660D01*
X97294160Y-101651650D01*
X97294166Y-101651642D01*
X97378407Y-101509197D01*
X97378408Y-101509194D01*
X97415779Y-101380565D01*
X97432386Y-101354560D01*
X97447175Y-101327478D01*
X97451023Y-101325376D01*
X97453385Y-101321679D01*
X97481417Y-101308780D01*
X97508498Y-101293993D01*
X97512873Y-101294306D01*
X97516857Y-101292473D01*
X97547410Y-101296776D01*
X97578190Y-101298979D01*
X97583455Y-101301854D01*
X97586044Y-101302219D01*
X97609160Y-101315890D01*
X97660817Y-101354560D01*
X97670812Y-101362042D01*
X97712682Y-101417976D01*
X97720500Y-101461308D01*
X97720500Y-102007548D01*
X97700815Y-102074587D01*
X97648011Y-102120342D01*
X97606237Y-102131165D01*
X97601993Y-102131499D01*
X97543880Y-102140702D01*
X97508196Y-102146354D01*
X97395158Y-102203950D01*
X97395157Y-102203951D01*
X97395152Y-102203954D01*
X97305454Y-102293652D01*
X97305451Y-102293657D01*
X97305450Y-102293658D01*
X97303904Y-102296693D01*
X97247852Y-102406698D01*
X97233000Y-102500475D01*
X97233000Y-102863522D01*
X97236754Y-102887224D01*
X97227796Y-102956517D01*
X97201962Y-102994298D01*
X97115818Y-103080442D01*
X97115814Y-103080447D01*
X97032217Y-103221803D01*
X97032215Y-103221806D01*
X96999104Y-103335777D01*
X96987273Y-103354301D01*
X96979707Y-103374939D01*
X96968837Y-103383170D01*
X96961498Y-103394663D01*
X96941529Y-103403851D01*
X96924007Y-103417121D01*
X96910411Y-103418169D01*
X96898025Y-103423869D01*
X96876259Y-103420803D01*
X96854345Y-103422493D01*
X96842341Y-103416025D01*
X96828838Y-103414123D01*
X96812184Y-103399775D01*
X96792836Y-103389350D01*
X96780516Y-103372493D01*
X96775904Y-103368519D01*
X96771528Y-103361214D01*
X96769193Y-103356994D01*
X96769146Y-103356696D01*
X96711550Y-103243658D01*
X96700213Y-103232321D01*
X96691754Y-103217032D01*
X96687794Y-103199306D01*
X96679090Y-103183368D01*
X96680336Y-103165916D01*
X96676523Y-103148842D01*
X96682774Y-103131790D01*
X96684069Y-103113676D01*
X96696520Y-103094299D01*
X96700575Y-103083243D01*
X96706509Y-103078748D01*
X96705811Y-103078241D01*
X96711542Y-103070349D01*
X96711550Y-103070342D01*
X96769146Y-102957304D01*
X96769146Y-102957302D01*
X96769147Y-102957301D01*
X96779782Y-102890147D01*
X96784000Y-102863519D01*
X96783999Y-102500482D01*
X96769146Y-102406696D01*
X96711550Y-102293658D01*
X96711546Y-102293654D01*
X96711545Y-102293652D01*
X96621847Y-102203954D01*
X96621844Y-102203952D01*
X96621842Y-102203950D01*
X96545017Y-102164805D01*
X96508801Y-102146352D01*
X96415017Y-102131498D01*
X96410765Y-102131164D01*
X96406923Y-102129699D01*
X96402853Y-102130285D01*
X96374551Y-102117360D01*
X96345478Y-102106278D01*
X96343037Y-102102968D01*
X96339297Y-102101260D01*
X96322476Y-102075087D01*
X96304010Y-102050045D01*
X96303109Y-102044951D01*
X96301523Y-102042482D01*
X96296500Y-102007547D01*
X96296500Y-101966862D01*
X96310000Y-101920886D01*
X96310000Y-100282000D01*
X96281342Y-100282000D01*
X96244222Y-100284921D01*
X96244216Y-100284922D01*
X96085305Y-100331091D01*
X96085302Y-100331092D01*
X95942857Y-100415333D01*
X95942853Y-100415336D01*
X95849861Y-100508328D01*
X95845060Y-100510949D01*
X95842037Y-100515509D01*
X95814720Y-100527515D01*
X95788537Y-100541812D01*
X95781752Y-100542005D01*
X95778073Y-100543623D01*
X95742783Y-100543119D01*
X95689405Y-100534665D01*
X95626270Y-100504736D01*
X95621121Y-100499873D01*
X95431263Y-100310015D01*
X95399170Y-100254429D01*
X95362484Y-100117515D01*
X95290009Y-99991985D01*
X95187515Y-99889491D01*
X95187513Y-99889490D01*
X95187511Y-99889488D01*
X95061988Y-99817017D01*
X95061989Y-99817017D01*
X95043885Y-99812166D01*
X94921975Y-99779500D01*
X94777025Y-99779500D01*
X94655115Y-99812166D01*
X94637011Y-99817017D01*
X94511488Y-99889488D01*
X94511482Y-99889493D01*
X94408993Y-99991982D01*
X94408988Y-99991988D01*
X94336517Y-100117511D01*
X94336516Y-100117515D01*
X94299000Y-100257525D01*
X94299000Y-100402475D01*
X94336516Y-100542485D01*
X94336517Y-100542488D01*
X94408988Y-100668011D01*
X94408990Y-100668013D01*
X94408991Y-100668015D01*
X94511485Y-100770509D01*
X94511486Y-100770510D01*
X94511488Y-100770511D01*
X94637011Y-100842982D01*
X94637012Y-100842982D01*
X94637015Y-100842984D01*
X94715096Y-100863906D01*
X94774753Y-100900269D01*
X94805283Y-100963115D01*
X94807000Y-100983679D01*
X94807000Y-101278916D01*
X94806999Y-101278916D01*
X94822037Y-101373863D01*
X94822038Y-101373866D01*
X94822039Y-101373868D01*
X94880354Y-101488318D01*
X94971182Y-101579146D01*
X94971183Y-101579146D01*
X94978083Y-101586046D01*
X94975667Y-101588461D01*
X95007712Y-101630030D01*
X95011930Y-101642908D01*
X95028497Y-101704738D01*
X95028498Y-101704739D01*
X95084515Y-101801763D01*
X95242297Y-101959545D01*
X95255777Y-101984231D01*
X95271987Y-102007225D01*
X95272298Y-102014487D01*
X95275781Y-102020866D01*
X95273774Y-102048925D01*
X95274979Y-102077031D01*
X95271315Y-102083307D01*
X95270797Y-102090557D01*
X95253937Y-102113078D01*
X95239757Y-102137373D01*
X95231275Y-102143351D01*
X95228926Y-102146491D01*
X95210910Y-102157709D01*
X95155363Y-102186012D01*
X95126798Y-102200567D01*
X95121948Y-102203038D01*
X95053279Y-102215934D01*
X94990166Y-102190929D01*
X94983759Y-102186012D01*
X94886739Y-102129998D01*
X94886738Y-102129997D01*
X94886737Y-102129997D01*
X94778518Y-102101000D01*
X94778517Y-102101000D01*
X94524397Y-102101000D01*
X94457358Y-102081315D01*
X94436720Y-102064685D01*
X94364794Y-101992759D01*
X94248933Y-101933725D01*
X94248931Y-101933724D01*
X94248928Y-101933723D01*
X94152807Y-101918500D01*
X93768188Y-101918500D01*
X93768188Y-101918501D01*
X93672071Y-101933723D01*
X93672070Y-101933723D01*
X93556204Y-101992760D01*
X93556200Y-101992763D01*
X93464263Y-102084700D01*
X93464260Y-102084704D01*
X93405223Y-102200571D01*
X93390000Y-102296692D01*
X84828500Y-102296692D01*
X84828500Y-96770000D01*
X101691270Y-96770000D01*
X101691921Y-96778281D01*
X101738090Y-96937194D01*
X101738092Y-96937197D01*
X101822333Y-97079642D01*
X101822339Y-97079650D01*
X101939349Y-97196660D01*
X101939357Y-97196666D01*
X102081802Y-97280907D01*
X102081805Y-97280908D01*
X102240716Y-97327077D01*
X102240722Y-97327078D01*
X102277842Y-97329999D01*
X102277858Y-97330000D01*
X102306500Y-97330000D01*
X102306500Y-96770000D01*
X101691270Y-96770000D01*
X84828500Y-96770000D01*
X84828500Y-96270000D01*
X101691270Y-96270000D01*
X102306500Y-96270000D01*
X102306500Y-95754000D01*
X101691270Y-95754000D01*
X101691921Y-95762281D01*
X101738090Y-95921194D01*
X101754464Y-95948881D01*
X101771644Y-96016606D01*
X101754464Y-96075119D01*
X101738090Y-96102805D01*
X101691921Y-96261718D01*
X101691270Y-96270000D01*
X84828500Y-96270000D01*
X84828500Y-92540157D01*
X100409000Y-92540157D01*
X100411921Y-92577277D01*
X100411922Y-92577283D01*
X100458091Y-92736194D01*
X100458093Y-92736199D01*
X100480377Y-92773881D01*
X100497558Y-92841605D01*
X100480377Y-92900119D01*
X100458093Y-92937800D01*
X100458091Y-92937805D01*
X100411922Y-93096716D01*
X100411921Y-93096722D01*
X100409000Y-93133842D01*
X100409000Y-93162500D01*
X100969000Y-93162500D01*
X100969000Y-92511500D01*
X100409000Y-92511500D01*
X100409000Y-92540157D01*
X84828500Y-92540157D01*
X84828500Y-91982842D01*
X100409000Y-91982842D01*
X100409000Y-92011500D01*
X101095000Y-92011500D01*
X101162039Y-92031185D01*
X101207794Y-92083989D01*
X101219000Y-92135500D01*
X101219000Y-92261500D01*
X101345000Y-92261500D01*
X101412039Y-92281185D01*
X101457794Y-92333989D01*
X101469000Y-92385500D01*
X101469000Y-93288500D01*
X101449315Y-93355539D01*
X101396511Y-93401294D01*
X101345000Y-93412500D01*
X101219000Y-93412500D01*
X101219000Y-93538500D01*
X101199315Y-93605539D01*
X101146511Y-93651294D01*
X101095000Y-93662500D01*
X100409000Y-93662500D01*
X100409000Y-93691157D01*
X100411921Y-93728277D01*
X100411922Y-93728283D01*
X100458091Y-93887194D01*
X100458092Y-93887197D01*
X100542333Y-94029642D01*
X100542339Y-94029650D01*
X100635327Y-94122638D01*
X100668812Y-94183961D01*
X100670120Y-94229715D01*
X100664694Y-94263979D01*
X100658500Y-94303084D01*
X100658500Y-94303088D01*
X100658500Y-94791916D01*
X100658499Y-94791916D01*
X100673537Y-94886863D01*
X100673538Y-94886866D01*
X100673539Y-94886868D01*
X100731854Y-95001318D01*
X100731855Y-95001319D01*
X100731858Y-95001323D01*
X100822676Y-95092141D01*
X100822680Y-95092144D01*
X100822682Y-95092146D01*
X100937132Y-95150461D01*
X100937134Y-95150461D01*
X100937136Y-95150462D01*
X101032083Y-95165500D01*
X101032084Y-95165500D01*
X101405916Y-95165500D01*
X101500863Y-95150462D01*
X101500863Y-95150461D01*
X101500868Y-95150461D01*
X101510427Y-95145590D01*
X101579093Y-95132693D01*
X101643834Y-95158967D01*
X101684093Y-95216073D01*
X101688476Y-95250978D01*
X101691269Y-95254000D01*
X102432500Y-95254000D01*
X102499539Y-95273685D01*
X102545294Y-95326489D01*
X102556500Y-95378000D01*
X102556500Y-95504000D01*
X102682500Y-95504000D01*
X102749539Y-95523685D01*
X102795294Y-95576489D01*
X102806500Y-95628000D01*
X102806500Y-97330000D01*
X102835142Y-97330000D01*
X102835157Y-97329999D01*
X102872277Y-97327078D01*
X102872280Y-97327077D01*
X102992004Y-97292294D01*
X103061874Y-97292493D01*
X103120544Y-97330435D01*
X103149388Y-97394073D01*
X103146376Y-97443460D01*
X103141000Y-97463525D01*
X103141000Y-97608475D01*
X103178516Y-97748485D01*
X103178517Y-97748488D01*
X103250988Y-97874011D01*
X103250990Y-97874013D01*
X103250991Y-97874015D01*
X103353485Y-97976509D01*
X103353486Y-97976510D01*
X103353488Y-97976511D01*
X103479011Y-98048982D01*
X103479012Y-98048982D01*
X103479015Y-98048984D01*
X103619025Y-98086500D01*
X103619028Y-98086500D01*
X103763972Y-98086500D01*
X103763975Y-98086500D01*
X103903985Y-98048984D01*
X104029515Y-97976509D01*
X104132009Y-97874015D01*
X104132009Y-97874014D01*
X104137756Y-97868268D01*
X104138945Y-97869457D01*
X104187552Y-97833965D01*
X104257298Y-97829810D01*
X104318218Y-97864022D01*
X104350971Y-97925740D01*
X104353500Y-97950654D01*
X104353500Y-98054260D01*
X104363426Y-98122391D01*
X104414803Y-98227485D01*
X104497514Y-98310196D01*
X104497515Y-98310196D01*
X104497517Y-98310198D01*
X104602607Y-98361573D01*
X104636673Y-98366536D01*
X104670739Y-98371500D01*
X104670740Y-98371500D01*
X106012261Y-98371500D01*
X106034971Y-98368191D01*
X106080393Y-98361573D01*
X106185483Y-98310198D01*
X106268198Y-98227483D01*
X106319573Y-98122393D01*
X106329500Y-98054260D01*
X106329500Y-97787740D01*
X106319573Y-97719607D01*
X106285768Y-97650458D01*
X106274010Y-97581587D01*
X106285769Y-97541540D01*
X106319573Y-97472393D01*
X106329500Y-97404260D01*
X106329500Y-97137740D01*
X106319573Y-97069607D01*
X106285768Y-97000458D01*
X106274010Y-96931587D01*
X106285769Y-96891540D01*
X106319573Y-96822393D01*
X106329500Y-96754260D01*
X106329500Y-96487740D01*
X106319573Y-96419607D01*
X106285768Y-96350458D01*
X106274010Y-96281587D01*
X106285769Y-96241540D01*
X106287435Y-96238132D01*
X106319573Y-96172393D01*
X106329500Y-96104260D01*
X106329500Y-95837740D01*
X106319573Y-95769607D01*
X106285768Y-95700458D01*
X106274010Y-95631587D01*
X106285769Y-95591540D01*
X106319573Y-95522393D01*
X106329500Y-95454260D01*
X106329500Y-95187740D01*
X106319573Y-95119607D01*
X106285768Y-95050458D01*
X106274010Y-94981587D01*
X106285769Y-94941540D01*
X106285801Y-94941475D01*
X106319573Y-94872393D01*
X106329500Y-94804260D01*
X106329500Y-94617602D01*
X106349185Y-94550563D01*
X106401989Y-94504808D01*
X106471147Y-94494864D01*
X106485573Y-94497822D01*
X106607525Y-94530500D01*
X106607528Y-94530500D01*
X106752472Y-94530500D01*
X106752475Y-94530500D01*
X106892485Y-94492984D01*
X107018015Y-94420509D01*
X107120509Y-94318015D01*
X107192984Y-94192485D01*
X107230500Y-94052475D01*
X107230500Y-93907525D01*
X107192984Y-93767515D01*
X107185585Y-93754700D01*
X107120511Y-93641988D01*
X107120506Y-93641982D01*
X107018017Y-93539493D01*
X107018011Y-93539488D01*
X106892488Y-93467017D01*
X106892489Y-93467017D01*
X106868201Y-93460509D01*
X106752475Y-93429500D01*
X106607525Y-93429500D01*
X106485592Y-93462171D01*
X106415744Y-93460509D01*
X106357881Y-93421347D01*
X106330377Y-93357118D01*
X106329500Y-93342397D01*
X106329500Y-93237739D01*
X106322164Y-93187391D01*
X106319573Y-93169607D01*
X106285768Y-93100458D01*
X106274010Y-93031587D01*
X106285769Y-92991540D01*
X106319573Y-92922393D01*
X106329500Y-92854260D01*
X106329500Y-92587740D01*
X106327976Y-92577283D01*
X106319573Y-92519608D01*
X106315609Y-92511500D01*
X106285768Y-92450458D01*
X106274010Y-92381587D01*
X106285769Y-92341540D01*
X106289367Y-92334181D01*
X106319573Y-92272393D01*
X106329500Y-92204260D01*
X106329500Y-91937740D01*
X106319573Y-91869607D01*
X106268198Y-91764517D01*
X106268196Y-91764515D01*
X106268196Y-91764514D01*
X106185485Y-91681803D01*
X106080391Y-91630426D01*
X106012261Y-91620500D01*
X106012260Y-91620500D01*
X104670740Y-91620500D01*
X104670739Y-91620500D01*
X104602608Y-91630426D01*
X104497514Y-91681803D01*
X104414803Y-91764514D01*
X104363426Y-91869608D01*
X104354654Y-91929818D01*
X104353500Y-91937740D01*
X104353500Y-92204260D01*
X104354379Y-92210290D01*
X104357050Y-92228624D01*
X104347235Y-92297801D01*
X104301579Y-92350690D01*
X104234576Y-92370500D01*
X103875544Y-92370500D01*
X103846103Y-92361855D01*
X103816117Y-92355332D01*
X103811101Y-92351577D01*
X103808505Y-92350815D01*
X103787863Y-92334181D01*
X103706818Y-92253136D01*
X103673333Y-92191813D01*
X103670499Y-92165455D01*
X103670499Y-91589129D01*
X103670498Y-91589123D01*
X103669481Y-91579666D01*
X103664091Y-91529517D01*
X103652738Y-91499079D01*
X103613797Y-91394671D01*
X103613793Y-91394664D01*
X103527547Y-91279455D01*
X103527544Y-91279452D01*
X103412335Y-91193206D01*
X103412328Y-91193202D01*
X103277486Y-91142910D01*
X103277485Y-91142909D01*
X103277483Y-91142909D01*
X103217873Y-91136500D01*
X103217863Y-91136500D01*
X102522129Y-91136500D01*
X102522123Y-91136501D01*
X102462516Y-91142908D01*
X102327671Y-91193202D01*
X102327664Y-91193206D01*
X102212455Y-91279452D01*
X102150590Y-91362092D01*
X102136317Y-91372776D01*
X102125634Y-91387047D01*
X102108931Y-91393276D01*
X102094656Y-91403963D01*
X102076871Y-91405234D01*
X102060170Y-91411464D01*
X102042749Y-91407674D01*
X102024964Y-91408946D01*
X102009316Y-91400401D01*
X101991897Y-91396612D01*
X101963643Y-91375461D01*
X101815819Y-91227637D01*
X101782334Y-91166314D01*
X101779500Y-91139956D01*
X101779500Y-90882083D01*
X101764462Y-90787136D01*
X101764461Y-90787134D01*
X101764461Y-90787132D01*
X101706146Y-90672682D01*
X101706144Y-90672680D01*
X101706141Y-90672676D01*
X101615323Y-90581858D01*
X101615319Y-90581855D01*
X101615318Y-90581854D01*
X101500868Y-90523539D01*
X101500866Y-90523538D01*
X101500863Y-90523537D01*
X101405916Y-90508500D01*
X101032084Y-90508500D01*
X100937136Y-90523537D01*
X100822680Y-90581855D01*
X100822676Y-90581858D01*
X100731858Y-90672676D01*
X100731855Y-90672680D01*
X100731854Y-90672682D01*
X100678032Y-90778315D01*
X100673537Y-90787136D01*
X100659038Y-90878686D01*
X100658500Y-90882084D01*
X100658500Y-91370916D01*
X100664922Y-91411464D01*
X100670120Y-91444284D01*
X100661164Y-91513577D01*
X100635328Y-91551361D01*
X100542336Y-91644353D01*
X100542333Y-91644357D01*
X100458092Y-91786802D01*
X100458091Y-91786805D01*
X100411922Y-91945716D01*
X100411921Y-91945722D01*
X100409000Y-91982842D01*
X84828500Y-91982842D01*
X84828500Y-84773258D01*
X90197500Y-84773258D01*
X90197500Y-85002741D01*
X90219181Y-85167414D01*
X90227452Y-85230238D01*
X90271192Y-85393479D01*
X90286842Y-85451887D01*
X90374650Y-85663876D01*
X90374656Y-85663888D01*
X90475374Y-85838338D01*
X90489392Y-85862617D01*
X90629081Y-86044661D01*
X90629089Y-86044670D01*
X90791330Y-86206911D01*
X90791338Y-86206918D01*
X90973382Y-86346607D01*
X90973385Y-86346608D01*
X90973388Y-86346611D01*
X91172112Y-86461344D01*
X91172117Y-86461346D01*
X91172123Y-86461349D01*
X91195754Y-86471137D01*
X91384113Y-86549158D01*
X91605762Y-86608548D01*
X91833266Y-86638500D01*
X91833273Y-86638500D01*
X92062727Y-86638500D01*
X92062734Y-86638500D01*
X92290238Y-86608548D01*
X92511887Y-86549158D01*
X92723888Y-86461344D01*
X92906350Y-86356000D01*
X99786270Y-86356000D01*
X99786921Y-86364281D01*
X99833090Y-86523194D01*
X99833092Y-86523197D01*
X99917333Y-86665642D01*
X99917339Y-86665650D01*
X100034349Y-86782660D01*
X100034357Y-86782666D01*
X100176802Y-86866907D01*
X100176805Y-86866908D01*
X100335716Y-86913077D01*
X100335722Y-86913078D01*
X100372842Y-86915999D01*
X100372858Y-86916000D01*
X100401500Y-86916000D01*
X100401500Y-86356000D01*
X99786270Y-86356000D01*
X92906350Y-86356000D01*
X92922612Y-86346611D01*
X93104661Y-86206919D01*
X93104665Y-86206914D01*
X93104670Y-86206911D01*
X93266911Y-86044670D01*
X93266914Y-86044665D01*
X93266919Y-86044661D01*
X93406611Y-85862612D01*
X93521344Y-85663888D01*
X93609158Y-85451887D01*
X93668548Y-85230238D01*
X93698500Y-85002734D01*
X93698500Y-84773266D01*
X93668548Y-84545762D01*
X93609158Y-84324113D01*
X93559190Y-84203480D01*
X93521349Y-84112123D01*
X93521346Y-84112117D01*
X93521344Y-84112112D01*
X93406611Y-83913388D01*
X93406608Y-83913385D01*
X93406607Y-83913382D01*
X93338250Y-83824299D01*
X93266919Y-83731339D01*
X93266915Y-83731335D01*
X93266911Y-83731330D01*
X93213594Y-83678013D01*
X98438000Y-83678013D01*
X98438000Y-84078000D01*
X99354988Y-84078000D01*
X99322075Y-84135007D01*
X99288000Y-84262174D01*
X99288000Y-84393826D01*
X99322075Y-84520993D01*
X99354988Y-84578000D01*
X98438001Y-84578000D01*
X98438001Y-84977986D01*
X98448494Y-85080697D01*
X98503641Y-85247119D01*
X98503643Y-85247124D01*
X98595684Y-85396345D01*
X98719654Y-85520315D01*
X98868875Y-85612356D01*
X98868880Y-85612358D01*
X99035302Y-85667505D01*
X99035309Y-85667506D01*
X99138019Y-85677999D01*
X99537999Y-85677999D01*
X99538000Y-85677998D01*
X99538000Y-84761012D01*
X99595007Y-84793925D01*
X99722174Y-84828000D01*
X99853826Y-84828000D01*
X99980993Y-84793925D01*
X100038000Y-84761012D01*
X100038000Y-85684000D01*
X100018315Y-85751039D01*
X99965511Y-85796794D01*
X99914000Y-85808000D01*
X99798461Y-85808000D01*
X99786921Y-85847718D01*
X99786270Y-85856000D01*
X100527500Y-85856000D01*
X100594539Y-85875685D01*
X100640294Y-85928489D01*
X100651500Y-85980000D01*
X100651500Y-86106000D01*
X100777500Y-86106000D01*
X100844539Y-86125685D01*
X100890294Y-86178489D01*
X100901500Y-86230000D01*
X100901500Y-86916000D01*
X100930142Y-86916000D01*
X100930157Y-86915999D01*
X100967277Y-86913078D01*
X100967283Y-86913077D01*
X101126194Y-86866908D01*
X101126197Y-86866907D01*
X101268642Y-86782666D01*
X101268646Y-86782663D01*
X101361637Y-86689672D01*
X101422960Y-86656187D01*
X101468716Y-86654880D01*
X101542083Y-86666500D01*
X101542084Y-86666500D01*
X102030916Y-86666500D01*
X102125863Y-86651462D01*
X102125863Y-86651461D01*
X102125868Y-86651461D01*
X102240318Y-86593146D01*
X102331146Y-86502318D01*
X102389461Y-86387868D01*
X102394509Y-86356000D01*
X102404500Y-86292916D01*
X102404500Y-86035044D01*
X102424185Y-85968005D01*
X102440819Y-85947363D01*
X102512497Y-85875685D01*
X102608470Y-85779712D01*
X102654614Y-85699788D01*
X102678500Y-85610643D01*
X102678500Y-85518356D01*
X102678500Y-85460518D01*
X102698185Y-85393479D01*
X102746206Y-85350033D01*
X102904786Y-85269233D01*
X102904785Y-85269233D01*
X102904788Y-85269232D01*
X103044928Y-85167414D01*
X103167414Y-85044928D01*
X103269232Y-84904788D01*
X103347873Y-84750445D01*
X103401402Y-84585701D01*
X103428500Y-84414611D01*
X103428500Y-84241389D01*
X103767500Y-84241389D01*
X103767500Y-84414610D01*
X103794597Y-84585697D01*
X103794597Y-84585699D01*
X103794598Y-84585701D01*
X103848127Y-84750445D01*
X103926768Y-84904788D01*
X104028586Y-85044928D01*
X104151072Y-85167414D01*
X104291212Y-85269232D01*
X104445555Y-85347873D01*
X104610299Y-85401402D01*
X104781389Y-85428500D01*
X104781390Y-85428500D01*
X104954610Y-85428500D01*
X104954611Y-85428500D01*
X105125701Y-85401402D01*
X105290445Y-85347873D01*
X105444788Y-85269232D01*
X105584928Y-85167414D01*
X105707414Y-85044928D01*
X105809232Y-84904788D01*
X105887873Y-84750445D01*
X105941402Y-84585701D01*
X105968500Y-84414611D01*
X105968500Y-84241389D01*
X105941402Y-84070299D01*
X105887873Y-83905555D01*
X105809232Y-83751212D01*
X105707414Y-83611072D01*
X105584928Y-83488586D01*
X105444788Y-83386768D01*
X105290445Y-83308127D01*
X105125701Y-83254598D01*
X105125699Y-83254597D01*
X105125698Y-83254597D01*
X104994271Y-83233781D01*
X104954611Y-83227500D01*
X104781389Y-83227500D01*
X104741728Y-83233781D01*
X104610302Y-83254597D01*
X104445552Y-83308128D01*
X104291211Y-83386768D01*
X104232549Y-83429389D01*
X104151072Y-83488586D01*
X104151070Y-83488588D01*
X104151069Y-83488588D01*
X104028588Y-83611069D01*
X104028588Y-83611070D01*
X104028586Y-83611072D01*
X103984859Y-83671256D01*
X103926768Y-83751211D01*
X103848128Y-83905552D01*
X103794597Y-84070302D01*
X103767500Y-84241389D01*
X103428500Y-84241389D01*
X103401402Y-84070299D01*
X103347873Y-83905555D01*
X103269232Y-83751212D01*
X103167414Y-83611072D01*
X103044928Y-83488586D01*
X102904788Y-83386768D01*
X102750445Y-83308127D01*
X102585701Y-83254598D01*
X102585699Y-83254597D01*
X102585698Y-83254597D01*
X102454271Y-83233781D01*
X102414611Y-83227500D01*
X102241389Y-83227500D01*
X102201728Y-83233781D01*
X102070302Y-83254597D01*
X101905552Y-83308128D01*
X101751211Y-83386768D01*
X101692549Y-83429389D01*
X101611072Y-83488586D01*
X101611070Y-83488588D01*
X101611069Y-83488588D01*
X101488588Y-83611069D01*
X101488588Y-83611070D01*
X101488586Y-83611072D01*
X101444859Y-83671256D01*
X101386768Y-83751211D01*
X101372484Y-83779246D01*
X101324509Y-83830042D01*
X101256688Y-83846837D01*
X101190553Y-83824299D01*
X101147102Y-83769584D01*
X101137999Y-83722951D01*
X101137999Y-83678028D01*
X101137998Y-83678012D01*
X101127505Y-83575302D01*
X101072358Y-83408880D01*
X101072356Y-83408875D01*
X100980315Y-83259654D01*
X100856345Y-83135684D01*
X100707124Y-83043643D01*
X100707119Y-83043641D01*
X100540697Y-82988494D01*
X100540690Y-82988493D01*
X100437986Y-82978000D01*
X100038000Y-82978000D01*
X100038000Y-83894988D01*
X99980993Y-83862075D01*
X99853826Y-83828000D01*
X99722174Y-83828000D01*
X99595007Y-83862075D01*
X99538000Y-83894988D01*
X99538000Y-82978000D01*
X99138028Y-82978000D01*
X99138012Y-82978001D01*
X99035302Y-82988494D01*
X98868880Y-83043641D01*
X98868875Y-83043643D01*
X98719654Y-83135684D01*
X98595684Y-83259654D01*
X98503643Y-83408875D01*
X98503641Y-83408880D01*
X98448494Y-83575302D01*
X98448493Y-83575309D01*
X98438000Y-83678013D01*
X93213594Y-83678013D01*
X93104670Y-83569089D01*
X93104661Y-83569081D01*
X92922617Y-83429392D01*
X92887080Y-83408875D01*
X92723888Y-83314656D01*
X92723876Y-83314650D01*
X92511887Y-83226842D01*
X92290238Y-83167452D01*
X92252215Y-83162446D01*
X92062741Y-83137500D01*
X92062734Y-83137500D01*
X91833266Y-83137500D01*
X91833258Y-83137500D01*
X91616715Y-83166009D01*
X91605762Y-83167452D01*
X91512076Y-83192554D01*
X91384112Y-83226842D01*
X91172123Y-83314650D01*
X91172109Y-83314657D01*
X90973382Y-83429392D01*
X90791338Y-83569081D01*
X90629081Y-83731338D01*
X90489392Y-83913382D01*
X90374657Y-84112109D01*
X90374650Y-84112123D01*
X90286842Y-84324112D01*
X90227453Y-84545759D01*
X90227451Y-84545770D01*
X90197500Y-84773258D01*
X84828500Y-84773258D01*
X84828500Y-81214108D01*
X96146500Y-81214108D01*
X96146500Y-81345891D01*
X96180608Y-81473187D01*
X96213554Y-81530250D01*
X96246500Y-81587314D01*
X96339686Y-81680500D01*
X96438521Y-81737563D01*
X96449530Y-81743919D01*
X96453814Y-81746392D01*
X96581108Y-81780500D01*
X96581110Y-81780500D01*
X96712890Y-81780500D01*
X96712892Y-81780500D01*
X96840186Y-81746392D01*
X96954314Y-81680500D01*
X97047500Y-81587314D01*
X97113392Y-81473186D01*
X97147500Y-81345892D01*
X97147500Y-81214108D01*
X97113392Y-81086814D01*
X97047500Y-80972686D01*
X96954314Y-80879500D01*
X96897250Y-80846554D01*
X96840187Y-80813608D01*
X96776539Y-80796554D01*
X96712892Y-80779500D01*
X96581108Y-80779500D01*
X96453812Y-80813608D01*
X96339686Y-80879500D01*
X96339683Y-80879502D01*
X96246502Y-80972683D01*
X96246500Y-80972686D01*
X96180608Y-81086812D01*
X96146500Y-81214108D01*
X84828500Y-81214108D01*
X84828500Y-76824500D01*
X84848185Y-76757461D01*
X84900989Y-76711706D01*
X84952500Y-76700500D01*
X114562729Y-76700500D01*
X114629768Y-76720185D01*
G37*
%TD.AperFunction*%
%TA.AperFunction,Conductor*%
G36*
X116218425Y-77663643D02*
G01*
X116222924Y-77663429D01*
X116255690Y-77676547D01*
X116265811Y-77682391D01*
X116265813Y-77682391D01*
X116265814Y-77682392D01*
X116393108Y-77716500D01*
X116393109Y-77716500D01*
X116400958Y-77718603D01*
X116400362Y-77720827D01*
X116453403Y-77744289D01*
X116491877Y-77802612D01*
X116492711Y-77872477D01*
X116489507Y-77882297D01*
X116486404Y-77890616D01*
X116486401Y-77890627D01*
X116480000Y-77950155D01*
X116480000Y-77998000D01*
X117256000Y-77998000D01*
X117323039Y-78017685D01*
X117368794Y-78070489D01*
X117380000Y-78122000D01*
X117380000Y-78374000D01*
X117360315Y-78441039D01*
X117307511Y-78486794D01*
X117256000Y-78498000D01*
X116480000Y-78498000D01*
X116480000Y-78545844D01*
X116486401Y-78605372D01*
X116486403Y-78605379D01*
X116536645Y-78740086D01*
X116536649Y-78740093D01*
X116622808Y-78855186D01*
X116679811Y-78897858D01*
X116721682Y-78953792D01*
X116729500Y-78997125D01*
X116729500Y-79522678D01*
X116744032Y-79595735D01*
X116744033Y-79595739D01*
X116750664Y-79605663D01*
X116799399Y-79678601D01*
X116860396Y-79719357D01*
X116882260Y-79733966D01*
X116882264Y-79733967D01*
X116955321Y-79748499D01*
X116955324Y-79748500D01*
X116955326Y-79748500D01*
X117804675Y-79748500D01*
X117865308Y-79736439D01*
X117934899Y-79742666D01*
X117990077Y-79785528D01*
X118013322Y-79851418D01*
X118013500Y-79858056D01*
X118013500Y-80665128D01*
X117993815Y-80732167D01*
X117941011Y-80777922D01*
X117871853Y-80787866D01*
X117835698Y-80776848D01*
X117701044Y-80712002D01*
X117551635Y-80677900D01*
X117551629Y-80677900D01*
X117540628Y-80677900D01*
X117540369Y-80677831D01*
X117474353Y-80677900D01*
X117409107Y-80677900D01*
X117401760Y-80677900D01*
X117400590Y-80677976D01*
X116192962Y-80679239D01*
X116125902Y-80659624D01*
X116080092Y-80606868D01*
X116068832Y-80555201D01*
X116068843Y-80521441D01*
X116069688Y-77783894D01*
X116071395Y-77778086D01*
X116070250Y-77772144D01*
X116081132Y-77744962D01*
X116089393Y-77716861D01*
X116093969Y-77712897D01*
X116096219Y-77707280D01*
X116120071Y-77690294D01*
X116142211Y-77671123D01*
X116148201Y-77670263D01*
X116153133Y-77666752D01*
X116182389Y-77665358D01*
X116211373Y-77661201D01*
X116218425Y-77663643D01*
G37*
%TD.AperFunction*%
%TA.AperFunction,Conductor*%
G36*
X122378539Y-76720185D02*
G01*
X122424294Y-76772989D01*
X122435500Y-76824500D01*
X122435500Y-77471499D01*
X122415815Y-77538538D01*
X122363011Y-77584293D01*
X122293853Y-77594237D01*
X122276905Y-77590575D01*
X122178280Y-77561921D01*
X122178281Y-77561921D01*
X122170000Y-77561269D01*
X122170000Y-78302500D01*
X122150315Y-78369539D01*
X122097511Y-78415294D01*
X122046000Y-78426500D01*
X121794000Y-78426500D01*
X121726961Y-78406815D01*
X121681206Y-78354011D01*
X121670000Y-78302500D01*
X121670000Y-77561269D01*
X121661718Y-77561921D01*
X121502805Y-77608090D01*
X121502802Y-77608092D01*
X121360357Y-77692333D01*
X121360353Y-77692336D01*
X121250718Y-77801971D01*
X121189395Y-77835455D01*
X121119703Y-77830471D01*
X121106757Y-77824780D01*
X121065433Y-77803725D01*
X121065431Y-77803724D01*
X121065428Y-77803723D01*
X120969307Y-77788500D01*
X120584688Y-77788500D01*
X120584688Y-77788501D01*
X120488571Y-77803723D01*
X120488570Y-77803723D01*
X120372704Y-77862760D01*
X120372701Y-77862762D01*
X120325785Y-77909680D01*
X120298856Y-77924384D01*
X120273038Y-77940977D01*
X120266838Y-77941868D01*
X120264462Y-77943166D01*
X120238103Y-77946000D01*
X120112808Y-77946000D01*
X120045769Y-77926315D01*
X120009706Y-77890890D01*
X119960261Y-77816890D01*
X119939383Y-77750213D01*
X119957868Y-77682833D01*
X119960261Y-77679110D01*
X120015964Y-77595743D01*
X120015964Y-77595742D01*
X120015966Y-77595740D01*
X120030500Y-77522674D01*
X120030500Y-76973326D01*
X120030500Y-76973323D01*
X120030499Y-76973321D01*
X120015967Y-76900264D01*
X120015967Y-76900262D01*
X120013937Y-76897224D01*
X120011375Y-76893389D01*
X119990498Y-76826715D01*
X120008982Y-76759334D01*
X120060960Y-76712644D01*
X120114478Y-76700500D01*
X122311500Y-76700500D01*
X122378539Y-76720185D01*
G37*
%TD.AperFunction*%
%TD*%
M02*
