%TF.GenerationSoftware,KiCad,Pcbnew,10.0.4*%
%TF.CreationDate,2026-10-03T22:47:07+02:00*%
%TF.ProjectId,00-air-temp-monitor,30302d61-6972-42d7-9465-6d702d6d6f6e,rev?*%
%TF.SameCoordinates,Original*%
%TF.FileFunction,Paste,Top*%
%TF.FilePolarity,Positive*%
%FSLAX46Y46*%
G04 Gerber Fmt 4.6, Leading zero omitted, Abs format (unit mm)*
G04 Created by KiCad (PCBNEW 10.0.4) date 2026-10-03 22:47:07*
%MOMM*%
%LPD*%
G01*
G04 APERTURE LIST*
G04 Aperture macros list*
%AMRoundRect*
0 Rectangle with rounded corners*
0 $1 Rounding radius*
0 $2 $3 $4 $5 $6 $7 $8 $9 X,Y pos of 4 corners*
0 Add a 4 corners polygon primitive as box body*
4,1,4,$2,$3,$4,$5,$6,$7,$8,$9,$2,$3,0*
0 Add four circle primitives for the rounded corners*
1,1,$1+$1,$2,$3*
1,1,$1+$1,$4,$5*
1,1,$1+$1,$6,$7*
1,1,$1+$1,$8,$9*
0 Add four rect primitives between the rounded corners*
20,1,$1+$1,$2,$3,$4,$5,0*
20,1,$1+$1,$4,$5,$6,$7,0*
20,1,$1+$1,$6,$7,$8,$9,0*
20,1,$1+$1,$8,$9,$2,$3,0*%
G04 Aperture macros list end*
%ADD10RoundRect,0.160000X0.197500X0.160000X-0.197500X0.160000X-0.197500X-0.160000X0.197500X-0.160000X0*%
%ADD11RoundRect,0.155000X0.212500X0.155000X-0.212500X0.155000X-0.212500X-0.155000X0.212500X-0.155000X0*%
%ADD12RoundRect,0.160000X-0.160000X0.197500X-0.160000X-0.197500X0.160000X-0.197500X0.160000X0.197500X0*%
%ADD13R,0.800000X0.500000*%
%ADD14RoundRect,0.150000X0.512500X0.150000X-0.512500X0.150000X-0.512500X-0.150000X0.512500X-0.150000X0*%
%ADD15RoundRect,0.160000X0.160000X-0.197500X0.160000X0.197500X-0.160000X0.197500X-0.160000X-0.197500X0*%
%ADD16RoundRect,0.250000X-0.300000X0.275000X-0.300000X-0.275000X0.300000X-0.275000X0.300000X0.275000X0*%
%ADD17RoundRect,0.155000X0.155000X-0.212500X0.155000X0.212500X-0.155000X0.212500X-0.155000X-0.212500X0*%
%ADD18RoundRect,0.155000X-0.155000X0.212500X-0.155000X-0.212500X0.155000X-0.212500X0.155000X0.212500X0*%
%ADD19RoundRect,0.100000X-0.637500X-0.100000X0.637500X-0.100000X0.637500X0.100000X-0.637500X0.100000X0*%
%ADD20RoundRect,0.155000X-0.212500X-0.155000X0.212500X-0.155000X0.212500X0.155000X-0.212500X0.155000X0*%
%ADD21RoundRect,0.160000X-0.197500X-0.160000X0.197500X-0.160000X0.197500X0.160000X-0.197500X0.160000X0*%
%ADD22RoundRect,0.250001X-0.462499X-0.849999X0.462499X-0.849999X0.462499X0.849999X-0.462499X0.849999X0*%
G04 APERTURE END LIST*
D10*
%TO.C,R2*%
X97098000Y-107188000D03*
X95903000Y-107188000D03*
%TD*%
D11*
%TO.C,C9*%
X101386000Y-102616000D03*
X100251000Y-102616000D03*
%TD*%
D12*
%TO.C,R5*%
X102362000Y-100240500D03*
X102362000Y-101435500D03*
%TD*%
D13*
%TO.C,U4*%
X119380000Y-79248000D03*
X119380000Y-78248000D03*
X119380000Y-77248000D03*
X117380000Y-77248000D03*
X117380000Y-78248000D03*
X117380000Y-79248000D03*
%TD*%
D14*
%TO.C,U2*%
X98146000Y-104582000D03*
X98146000Y-103632000D03*
X98146000Y-102682000D03*
X95871000Y-102682000D03*
X95871000Y-103632000D03*
X95871000Y-104582000D03*
%TD*%
D15*
%TO.C,R7*%
X115316000Y-94196500D03*
X115316000Y-93001500D03*
%TD*%
D16*
%TO.C,Y1*%
X102870000Y-91912000D03*
X102870000Y-93762000D03*
%TD*%
D17*
%TO.C,C14*%
X121920000Y-79561500D03*
X121920000Y-78426500D03*
%TD*%
D11*
%TO.C,C4*%
X103691500Y-96520000D03*
X102556500Y-96520000D03*
%TD*%
%TO.C,C3*%
X103691500Y-95504000D03*
X102556500Y-95504000D03*
%TD*%
%TO.C,C11*%
X101386000Y-104648000D03*
X100251000Y-104648000D03*
%TD*%
D18*
%TO.C,C1*%
X112776000Y-94936500D03*
X112776000Y-96071500D03*
%TD*%
D11*
%TO.C,C13*%
X101786500Y-86106000D03*
X100651500Y-86106000D03*
%TD*%
D18*
%TO.C,C2*%
X113792000Y-94936500D03*
X113792000Y-96071500D03*
%TD*%
D12*
%TO.C,R8*%
X113284000Y-89953500D03*
X113284000Y-91148500D03*
%TD*%
D19*
%TO.C,U1*%
X105341500Y-92071000D03*
X105341500Y-92721000D03*
X105341500Y-93371000D03*
X105341500Y-94021000D03*
X105341500Y-94671000D03*
X105341500Y-95321000D03*
X105341500Y-95971000D03*
X105341500Y-96621000D03*
X105341500Y-97271000D03*
X105341500Y-97921000D03*
X111066500Y-97921000D03*
X111066500Y-97271000D03*
X111066500Y-96621000D03*
X111066500Y-95971000D03*
X111066500Y-95321000D03*
X111066500Y-94671000D03*
X111066500Y-94021000D03*
X111066500Y-93371000D03*
X111066500Y-92721000D03*
X111066500Y-92071000D03*
%TD*%
D11*
%TO.C,C10*%
X101386000Y-103632000D03*
X100251000Y-103632000D03*
%TD*%
D20*
%TO.C,C12*%
X95425000Y-101092000D03*
X96560000Y-101092000D03*
%TD*%
D21*
%TO.C,R3*%
X95903000Y-106172000D03*
X97098000Y-106172000D03*
%TD*%
D17*
%TO.C,C6*%
X101219000Y-94547500D03*
X101219000Y-93412500D03*
%TD*%
D11*
%TO.C,C8*%
X97068000Y-108204000D03*
X95933000Y-108204000D03*
%TD*%
D12*
%TO.C,R9*%
X120777000Y-78396500D03*
X120777000Y-79591500D03*
%TD*%
D18*
%TO.C,C5*%
X101219000Y-91126500D03*
X101219000Y-92261500D03*
%TD*%
D12*
%TO.C,R6*%
X93960500Y-102526500D03*
X93960500Y-103721500D03*
%TD*%
D22*
%TO.C,L1*%
X98386000Y-100076000D03*
X100711000Y-100076000D03*
%TD*%
M02*
