%TF.GenerationSoftware,KiCad,Pcbnew,10.0.4*%
%TF.CreationDate,2026-10-03T22:47:07+02:00*%
%TF.ProjectId,00-air-temp-monitor,30302d61-6972-42d7-9465-6d702d6d6f6e,rev?*%
%TF.SameCoordinates,Original*%
%TF.FileFunction,Legend,Top*%
%TF.FilePolarity,Positive*%
%FSLAX46Y46*%
G04 Gerber Fmt 4.6, Leading zero omitted, Abs format (unit mm)*
G04 Created by KiCad (PCBNEW 10.0.4) date 2026-10-03 22:47:07*
%MOMM*%
%LPD*%
G01*
G04 APERTURE LIST*
%ADD10C,0.150000*%
%ADD11C,0.120000*%
%ADD12C,0.100000*%
G04 APERTURE END LIST*
D10*
X98390833Y-107573427D02*
X98107499Y-107168665D01*
X97905118Y-107573427D02*
X97905118Y-106723427D01*
X97905118Y-106723427D02*
X98228928Y-106723427D01*
X98228928Y-106723427D02*
X98309880Y-106763903D01*
X98309880Y-106763903D02*
X98350357Y-106804379D01*
X98350357Y-106804379D02*
X98390833Y-106885331D01*
X98390833Y-106885331D02*
X98390833Y-107006760D01*
X98390833Y-107006760D02*
X98350357Y-107087712D01*
X98350357Y-107087712D02*
X98309880Y-107128189D01*
X98309880Y-107128189D02*
X98228928Y-107168665D01*
X98228928Y-107168665D02*
X97905118Y-107168665D01*
X98714642Y-106804379D02*
X98755118Y-106763903D01*
X98755118Y-106763903D02*
X98836071Y-106723427D01*
X98836071Y-106723427D02*
X99038452Y-106723427D01*
X99038452Y-106723427D02*
X99119404Y-106763903D01*
X99119404Y-106763903D02*
X99159880Y-106804379D01*
X99159880Y-106804379D02*
X99200357Y-106885331D01*
X99200357Y-106885331D02*
X99200357Y-106966284D01*
X99200357Y-106966284D02*
X99159880Y-107087712D01*
X99159880Y-107087712D02*
X98674166Y-107573427D01*
X98674166Y-107573427D02*
X99200357Y-107573427D01*
X103490333Y-102920474D02*
X103449857Y-102960951D01*
X103449857Y-102960951D02*
X103328428Y-103001427D01*
X103328428Y-103001427D02*
X103247476Y-103001427D01*
X103247476Y-103001427D02*
X103126047Y-102960951D01*
X103126047Y-102960951D02*
X103045095Y-102879998D01*
X103045095Y-102879998D02*
X103004618Y-102799046D01*
X103004618Y-102799046D02*
X102964142Y-102637141D01*
X102964142Y-102637141D02*
X102964142Y-102515712D01*
X102964142Y-102515712D02*
X103004618Y-102353808D01*
X103004618Y-102353808D02*
X103045095Y-102272855D01*
X103045095Y-102272855D02*
X103126047Y-102191903D01*
X103126047Y-102191903D02*
X103247476Y-102151427D01*
X103247476Y-102151427D02*
X103328428Y-102151427D01*
X103328428Y-102151427D02*
X103449857Y-102191903D01*
X103449857Y-102191903D02*
X103490333Y-102232379D01*
X103895095Y-103001427D02*
X104056999Y-103001427D01*
X104056999Y-103001427D02*
X104137952Y-102960951D01*
X104137952Y-102960951D02*
X104178428Y-102920474D01*
X104178428Y-102920474D02*
X104259380Y-102799046D01*
X104259380Y-102799046D02*
X104299857Y-102637141D01*
X104299857Y-102637141D02*
X104299857Y-102313331D01*
X104299857Y-102313331D02*
X104259380Y-102232379D01*
X104259380Y-102232379D02*
X104218904Y-102191903D01*
X104218904Y-102191903D02*
X104137952Y-102151427D01*
X104137952Y-102151427D02*
X103976047Y-102151427D01*
X103976047Y-102151427D02*
X103895095Y-102191903D01*
X103895095Y-102191903D02*
X103854618Y-102232379D01*
X103854618Y-102232379D02*
X103814142Y-102313331D01*
X103814142Y-102313331D02*
X103814142Y-102515712D01*
X103814142Y-102515712D02*
X103854618Y-102596665D01*
X103854618Y-102596665D02*
X103895095Y-102637141D01*
X103895095Y-102637141D02*
X103976047Y-102677617D01*
X103976047Y-102677617D02*
X104137952Y-102677617D01*
X104137952Y-102677617D02*
X104218904Y-102637141D01*
X104218904Y-102637141D02*
X104259380Y-102596665D01*
X104259380Y-102596665D02*
X104299857Y-102515712D01*
X103986819Y-101004666D02*
X103510628Y-101337999D01*
X103986819Y-101576094D02*
X102986819Y-101576094D01*
X102986819Y-101576094D02*
X102986819Y-101195142D01*
X102986819Y-101195142D02*
X103034438Y-101099904D01*
X103034438Y-101099904D02*
X103082057Y-101052285D01*
X103082057Y-101052285D02*
X103177295Y-101004666D01*
X103177295Y-101004666D02*
X103320152Y-101004666D01*
X103320152Y-101004666D02*
X103415390Y-101052285D01*
X103415390Y-101052285D02*
X103463009Y-101099904D01*
X103463009Y-101099904D02*
X103510628Y-101195142D01*
X103510628Y-101195142D02*
X103510628Y-101576094D01*
X102986819Y-100099904D02*
X102986819Y-100576094D01*
X102986819Y-100576094D02*
X103463009Y-100623713D01*
X103463009Y-100623713D02*
X103415390Y-100576094D01*
X103415390Y-100576094D02*
X103367771Y-100480856D01*
X103367771Y-100480856D02*
X103367771Y-100242761D01*
X103367771Y-100242761D02*
X103415390Y-100147523D01*
X103415390Y-100147523D02*
X103463009Y-100099904D01*
X103463009Y-100099904D02*
X103558247Y-100052285D01*
X103558247Y-100052285D02*
X103796342Y-100052285D01*
X103796342Y-100052285D02*
X103891580Y-100099904D01*
X103891580Y-100099904D02*
X103939200Y-100147523D01*
X103939200Y-100147523D02*
X103986819Y-100242761D01*
X103986819Y-100242761D02*
X103986819Y-100480856D01*
X103986819Y-100480856D02*
X103939200Y-100576094D01*
X103939200Y-100576094D02*
X103891580Y-100623713D01*
X111112380Y-81489827D02*
X111112380Y-82177922D01*
X111112380Y-82177922D02*
X111152857Y-82258874D01*
X111152857Y-82258874D02*
X111193333Y-82299351D01*
X111193333Y-82299351D02*
X111274285Y-82339827D01*
X111274285Y-82339827D02*
X111436190Y-82339827D01*
X111436190Y-82339827D02*
X111517142Y-82299351D01*
X111517142Y-82299351D02*
X111557619Y-82258874D01*
X111557619Y-82258874D02*
X111598095Y-82177922D01*
X111598095Y-82177922D02*
X111598095Y-81489827D01*
X111921904Y-81489827D02*
X112448095Y-81489827D01*
X112448095Y-81489827D02*
X112164761Y-81813636D01*
X112164761Y-81813636D02*
X112286190Y-81813636D01*
X112286190Y-81813636D02*
X112367142Y-81854112D01*
X112367142Y-81854112D02*
X112407618Y-81894589D01*
X112407618Y-81894589D02*
X112448095Y-81975541D01*
X112448095Y-81975541D02*
X112448095Y-82177922D01*
X112448095Y-82177922D02*
X112407618Y-82258874D01*
X112407618Y-82258874D02*
X112367142Y-82299351D01*
X112367142Y-82299351D02*
X112286190Y-82339827D01*
X112286190Y-82339827D02*
X112043333Y-82339827D01*
X112043333Y-82339827D02*
X111962380Y-82299351D01*
X111962380Y-82299351D02*
X111921904Y-82258874D01*
X93058880Y-104945427D02*
X93058880Y-105633522D01*
X93058880Y-105633522D02*
X93099357Y-105714474D01*
X93099357Y-105714474D02*
X93139833Y-105754951D01*
X93139833Y-105754951D02*
X93220785Y-105795427D01*
X93220785Y-105795427D02*
X93382690Y-105795427D01*
X93382690Y-105795427D02*
X93463642Y-105754951D01*
X93463642Y-105754951D02*
X93504119Y-105714474D01*
X93504119Y-105714474D02*
X93544595Y-105633522D01*
X93544595Y-105633522D02*
X93544595Y-104945427D01*
X93908880Y-105026379D02*
X93949356Y-104985903D01*
X93949356Y-104985903D02*
X94030309Y-104945427D01*
X94030309Y-104945427D02*
X94232690Y-104945427D01*
X94232690Y-104945427D02*
X94313642Y-104985903D01*
X94313642Y-104985903D02*
X94354118Y-105026379D01*
X94354118Y-105026379D02*
X94394595Y-105107331D01*
X94394595Y-105107331D02*
X94394595Y-105188284D01*
X94394595Y-105188284D02*
X94354118Y-105309712D01*
X94354118Y-105309712D02*
X93868404Y-105795427D01*
X93868404Y-105795427D02*
X94394595Y-105795427D01*
X115701427Y-96280666D02*
X115296665Y-96564000D01*
X115701427Y-96766381D02*
X114851427Y-96766381D01*
X114851427Y-96766381D02*
X114851427Y-96442571D01*
X114851427Y-96442571D02*
X114891903Y-96361619D01*
X114891903Y-96361619D02*
X114932379Y-96321142D01*
X114932379Y-96321142D02*
X115013331Y-96280666D01*
X115013331Y-96280666D02*
X115134760Y-96280666D01*
X115134760Y-96280666D02*
X115215712Y-96321142D01*
X115215712Y-96321142D02*
X115256189Y-96361619D01*
X115256189Y-96361619D02*
X115296665Y-96442571D01*
X115296665Y-96442571D02*
X115296665Y-96766381D01*
X114851427Y-95997333D02*
X114851427Y-95430666D01*
X114851427Y-95430666D02*
X115701427Y-95794952D01*
X102848628Y-90646190D02*
X103324819Y-90646190D01*
X102324819Y-90979523D02*
X102848628Y-90646190D01*
X102848628Y-90646190D02*
X102324819Y-90312857D01*
X103324819Y-89455714D02*
X103324819Y-90027142D01*
X103324819Y-89741428D02*
X102324819Y-89741428D01*
X102324819Y-89741428D02*
X102467676Y-89836666D01*
X102467676Y-89836666D02*
X102562914Y-89931904D01*
X102562914Y-89931904D02*
X102610533Y-90027142D01*
X102982333Y-98983474D02*
X102941857Y-99023951D01*
X102941857Y-99023951D02*
X102820428Y-99064427D01*
X102820428Y-99064427D02*
X102739476Y-99064427D01*
X102739476Y-99064427D02*
X102618047Y-99023951D01*
X102618047Y-99023951D02*
X102537095Y-98942998D01*
X102537095Y-98942998D02*
X102496618Y-98862046D01*
X102496618Y-98862046D02*
X102456142Y-98700141D01*
X102456142Y-98700141D02*
X102456142Y-98578712D01*
X102456142Y-98578712D02*
X102496618Y-98416808D01*
X102496618Y-98416808D02*
X102537095Y-98335855D01*
X102537095Y-98335855D02*
X102618047Y-98254903D01*
X102618047Y-98254903D02*
X102739476Y-98214427D01*
X102739476Y-98214427D02*
X102820428Y-98214427D01*
X102820428Y-98214427D02*
X102941857Y-98254903D01*
X102941857Y-98254903D02*
X102982333Y-98295379D01*
X103710904Y-98497760D02*
X103710904Y-99064427D01*
X103508523Y-98173951D02*
X103306142Y-98781093D01*
X103306142Y-98781093D02*
X103832333Y-98781093D01*
X102982333Y-97840474D02*
X102941857Y-97880951D01*
X102941857Y-97880951D02*
X102820428Y-97921427D01*
X102820428Y-97921427D02*
X102739476Y-97921427D01*
X102739476Y-97921427D02*
X102618047Y-97880951D01*
X102618047Y-97880951D02*
X102537095Y-97799998D01*
X102537095Y-97799998D02*
X102496618Y-97719046D01*
X102496618Y-97719046D02*
X102456142Y-97557141D01*
X102456142Y-97557141D02*
X102456142Y-97435712D01*
X102456142Y-97435712D02*
X102496618Y-97273808D01*
X102496618Y-97273808D02*
X102537095Y-97192855D01*
X102537095Y-97192855D02*
X102618047Y-97111903D01*
X102618047Y-97111903D02*
X102739476Y-97071427D01*
X102739476Y-97071427D02*
X102820428Y-97071427D01*
X102820428Y-97071427D02*
X102941857Y-97111903D01*
X102941857Y-97111903D02*
X102982333Y-97152379D01*
X103265666Y-97071427D02*
X103791857Y-97071427D01*
X103791857Y-97071427D02*
X103508523Y-97395236D01*
X103508523Y-97395236D02*
X103629952Y-97395236D01*
X103629952Y-97395236D02*
X103710904Y-97435712D01*
X103710904Y-97435712D02*
X103751380Y-97476189D01*
X103751380Y-97476189D02*
X103791857Y-97557141D01*
X103791857Y-97557141D02*
X103791857Y-97759522D01*
X103791857Y-97759522D02*
X103751380Y-97840474D01*
X103751380Y-97840474D02*
X103710904Y-97880951D01*
X103710904Y-97880951D02*
X103629952Y-97921427D01*
X103629952Y-97921427D02*
X103387095Y-97921427D01*
X103387095Y-97921427D02*
X103306142Y-97880951D01*
X103306142Y-97880951D02*
X103265666Y-97840474D01*
X102752571Y-104952474D02*
X102712095Y-104992951D01*
X102712095Y-104992951D02*
X102590666Y-105033427D01*
X102590666Y-105033427D02*
X102509714Y-105033427D01*
X102509714Y-105033427D02*
X102388285Y-104992951D01*
X102388285Y-104992951D02*
X102307333Y-104911998D01*
X102307333Y-104911998D02*
X102266856Y-104831046D01*
X102266856Y-104831046D02*
X102226380Y-104669141D01*
X102226380Y-104669141D02*
X102226380Y-104547712D01*
X102226380Y-104547712D02*
X102266856Y-104385808D01*
X102266856Y-104385808D02*
X102307333Y-104304855D01*
X102307333Y-104304855D02*
X102388285Y-104223903D01*
X102388285Y-104223903D02*
X102509714Y-104183427D01*
X102509714Y-104183427D02*
X102590666Y-104183427D01*
X102590666Y-104183427D02*
X102712095Y-104223903D01*
X102712095Y-104223903D02*
X102752571Y-104264379D01*
X103562095Y-105033427D02*
X103076380Y-105033427D01*
X103319237Y-105033427D02*
X103319237Y-104183427D01*
X103319237Y-104183427D02*
X103238285Y-104304855D01*
X103238285Y-104304855D02*
X103157333Y-104385808D01*
X103157333Y-104385808D02*
X103076380Y-104426284D01*
X104371619Y-105033427D02*
X103885904Y-105033427D01*
X104128761Y-105033427D02*
X104128761Y-104183427D01*
X104128761Y-104183427D02*
X104047809Y-104304855D01*
X104047809Y-104304855D02*
X103966857Y-104385808D01*
X103966857Y-104385808D02*
X103885904Y-104426284D01*
X113080474Y-97677666D02*
X113120951Y-97718142D01*
X113120951Y-97718142D02*
X113161427Y-97839571D01*
X113161427Y-97839571D02*
X113161427Y-97920523D01*
X113161427Y-97920523D02*
X113120951Y-98041952D01*
X113120951Y-98041952D02*
X113039998Y-98122904D01*
X113039998Y-98122904D02*
X112959046Y-98163381D01*
X112959046Y-98163381D02*
X112797141Y-98203857D01*
X112797141Y-98203857D02*
X112675712Y-98203857D01*
X112675712Y-98203857D02*
X112513808Y-98163381D01*
X112513808Y-98163381D02*
X112432855Y-98122904D01*
X112432855Y-98122904D02*
X112351903Y-98041952D01*
X112351903Y-98041952D02*
X112311427Y-97920523D01*
X112311427Y-97920523D02*
X112311427Y-97839571D01*
X112311427Y-97839571D02*
X112351903Y-97718142D01*
X112351903Y-97718142D02*
X112392379Y-97677666D01*
X113161427Y-96868142D02*
X113161427Y-97353857D01*
X113161427Y-97111000D02*
X112311427Y-97111000D01*
X112311427Y-97111000D02*
X112432855Y-97191952D01*
X112432855Y-97191952D02*
X112513808Y-97272904D01*
X112513808Y-97272904D02*
X112554284Y-97353857D01*
X103280071Y-86410474D02*
X103239595Y-86450951D01*
X103239595Y-86450951D02*
X103118166Y-86491427D01*
X103118166Y-86491427D02*
X103037214Y-86491427D01*
X103037214Y-86491427D02*
X102915785Y-86450951D01*
X102915785Y-86450951D02*
X102834833Y-86369998D01*
X102834833Y-86369998D02*
X102794356Y-86289046D01*
X102794356Y-86289046D02*
X102753880Y-86127141D01*
X102753880Y-86127141D02*
X102753880Y-86005712D01*
X102753880Y-86005712D02*
X102794356Y-85843808D01*
X102794356Y-85843808D02*
X102834833Y-85762855D01*
X102834833Y-85762855D02*
X102915785Y-85681903D01*
X102915785Y-85681903D02*
X103037214Y-85641427D01*
X103037214Y-85641427D02*
X103118166Y-85641427D01*
X103118166Y-85641427D02*
X103239595Y-85681903D01*
X103239595Y-85681903D02*
X103280071Y-85722379D01*
X104089595Y-86491427D02*
X103603880Y-86491427D01*
X103846737Y-86491427D02*
X103846737Y-85641427D01*
X103846737Y-85641427D02*
X103765785Y-85762855D01*
X103765785Y-85762855D02*
X103684833Y-85843808D01*
X103684833Y-85843808D02*
X103603880Y-85884284D01*
X104372928Y-85641427D02*
X104899119Y-85641427D01*
X104899119Y-85641427D02*
X104615785Y-85965236D01*
X104615785Y-85965236D02*
X104737214Y-85965236D01*
X104737214Y-85965236D02*
X104818166Y-86005712D01*
X104818166Y-86005712D02*
X104858642Y-86046189D01*
X104858642Y-86046189D02*
X104899119Y-86127141D01*
X104899119Y-86127141D02*
X104899119Y-86329522D01*
X104899119Y-86329522D02*
X104858642Y-86410474D01*
X104858642Y-86410474D02*
X104818166Y-86450951D01*
X104818166Y-86450951D02*
X104737214Y-86491427D01*
X104737214Y-86491427D02*
X104494357Y-86491427D01*
X104494357Y-86491427D02*
X104413404Y-86450951D01*
X104413404Y-86450951D02*
X104372928Y-86410474D01*
X114096474Y-97677666D02*
X114136951Y-97718142D01*
X114136951Y-97718142D02*
X114177427Y-97839571D01*
X114177427Y-97839571D02*
X114177427Y-97920523D01*
X114177427Y-97920523D02*
X114136951Y-98041952D01*
X114136951Y-98041952D02*
X114055998Y-98122904D01*
X114055998Y-98122904D02*
X113975046Y-98163381D01*
X113975046Y-98163381D02*
X113813141Y-98203857D01*
X113813141Y-98203857D02*
X113691712Y-98203857D01*
X113691712Y-98203857D02*
X113529808Y-98163381D01*
X113529808Y-98163381D02*
X113448855Y-98122904D01*
X113448855Y-98122904D02*
X113367903Y-98041952D01*
X113367903Y-98041952D02*
X113327427Y-97920523D01*
X113327427Y-97920523D02*
X113327427Y-97839571D01*
X113327427Y-97839571D02*
X113367903Y-97718142D01*
X113367903Y-97718142D02*
X113408379Y-97677666D01*
X113408379Y-97353857D02*
X113367903Y-97313381D01*
X113367903Y-97313381D02*
X113327427Y-97232428D01*
X113327427Y-97232428D02*
X113327427Y-97030047D01*
X113327427Y-97030047D02*
X113367903Y-96949095D01*
X113367903Y-96949095D02*
X113408379Y-96908619D01*
X113408379Y-96908619D02*
X113489331Y-96868142D01*
X113489331Y-96868142D02*
X113570284Y-96868142D01*
X113570284Y-96868142D02*
X113691712Y-96908619D01*
X113691712Y-96908619D02*
X114177427Y-97394333D01*
X114177427Y-97394333D02*
X114177427Y-96868142D01*
X113669427Y-88152666D02*
X113264665Y-88436000D01*
X113669427Y-88638381D02*
X112819427Y-88638381D01*
X112819427Y-88638381D02*
X112819427Y-88314571D01*
X112819427Y-88314571D02*
X112859903Y-88233619D01*
X112859903Y-88233619D02*
X112900379Y-88193142D01*
X112900379Y-88193142D02*
X112981331Y-88152666D01*
X112981331Y-88152666D02*
X113102760Y-88152666D01*
X113102760Y-88152666D02*
X113183712Y-88193142D01*
X113183712Y-88193142D02*
X113224189Y-88233619D01*
X113224189Y-88233619D02*
X113264665Y-88314571D01*
X113264665Y-88314571D02*
X113264665Y-88638381D01*
X113183712Y-87666952D02*
X113143236Y-87747904D01*
X113143236Y-87747904D02*
X113102760Y-87788381D01*
X113102760Y-87788381D02*
X113021808Y-87828857D01*
X113021808Y-87828857D02*
X112981331Y-87828857D01*
X112981331Y-87828857D02*
X112900379Y-87788381D01*
X112900379Y-87788381D02*
X112859903Y-87747904D01*
X112859903Y-87747904D02*
X112819427Y-87666952D01*
X112819427Y-87666952D02*
X112819427Y-87505047D01*
X112819427Y-87505047D02*
X112859903Y-87424095D01*
X112859903Y-87424095D02*
X112900379Y-87383619D01*
X112900379Y-87383619D02*
X112981331Y-87343142D01*
X112981331Y-87343142D02*
X113021808Y-87343142D01*
X113021808Y-87343142D02*
X113102760Y-87383619D01*
X113102760Y-87383619D02*
X113143236Y-87424095D01*
X113143236Y-87424095D02*
X113183712Y-87505047D01*
X113183712Y-87505047D02*
X113183712Y-87666952D01*
X113183712Y-87666952D02*
X113224189Y-87747904D01*
X113224189Y-87747904D02*
X113264665Y-87788381D01*
X113264665Y-87788381D02*
X113345617Y-87828857D01*
X113345617Y-87828857D02*
X113507522Y-87828857D01*
X113507522Y-87828857D02*
X113588474Y-87788381D01*
X113588474Y-87788381D02*
X113628951Y-87747904D01*
X113628951Y-87747904D02*
X113669427Y-87666952D01*
X113669427Y-87666952D02*
X113669427Y-87505047D01*
X113669427Y-87505047D02*
X113628951Y-87424095D01*
X113628951Y-87424095D02*
X113588474Y-87383619D01*
X113588474Y-87383619D02*
X113507522Y-87343142D01*
X113507522Y-87343142D02*
X113345617Y-87343142D01*
X113345617Y-87343142D02*
X113264665Y-87383619D01*
X113264665Y-87383619D02*
X113224189Y-87424095D01*
X113224189Y-87424095D02*
X113183712Y-87505047D01*
X107556380Y-90331427D02*
X107556380Y-91019522D01*
X107556380Y-91019522D02*
X107596857Y-91100474D01*
X107596857Y-91100474D02*
X107637333Y-91140951D01*
X107637333Y-91140951D02*
X107718285Y-91181427D01*
X107718285Y-91181427D02*
X107880190Y-91181427D01*
X107880190Y-91181427D02*
X107961142Y-91140951D01*
X107961142Y-91140951D02*
X108001619Y-91100474D01*
X108001619Y-91100474D02*
X108042095Y-91019522D01*
X108042095Y-91019522D02*
X108042095Y-90331427D01*
X108892095Y-91181427D02*
X108406380Y-91181427D01*
X108649237Y-91181427D02*
X108649237Y-90331427D01*
X108649237Y-90331427D02*
X108568285Y-90452855D01*
X108568285Y-90452855D02*
X108487333Y-90533808D01*
X108487333Y-90533808D02*
X108406380Y-90574284D01*
X102752571Y-103936474D02*
X102712095Y-103976951D01*
X102712095Y-103976951D02*
X102590666Y-104017427D01*
X102590666Y-104017427D02*
X102509714Y-104017427D01*
X102509714Y-104017427D02*
X102388285Y-103976951D01*
X102388285Y-103976951D02*
X102307333Y-103895998D01*
X102307333Y-103895998D02*
X102266856Y-103815046D01*
X102266856Y-103815046D02*
X102226380Y-103653141D01*
X102226380Y-103653141D02*
X102226380Y-103531712D01*
X102226380Y-103531712D02*
X102266856Y-103369808D01*
X102266856Y-103369808D02*
X102307333Y-103288855D01*
X102307333Y-103288855D02*
X102388285Y-103207903D01*
X102388285Y-103207903D02*
X102509714Y-103167427D01*
X102509714Y-103167427D02*
X102590666Y-103167427D01*
X102590666Y-103167427D02*
X102712095Y-103207903D01*
X102712095Y-103207903D02*
X102752571Y-103248379D01*
X103562095Y-104017427D02*
X103076380Y-104017427D01*
X103319237Y-104017427D02*
X103319237Y-103167427D01*
X103319237Y-103167427D02*
X103238285Y-103288855D01*
X103238285Y-103288855D02*
X103157333Y-103369808D01*
X103157333Y-103369808D02*
X103076380Y-103410284D01*
X104088285Y-103167427D02*
X104169238Y-103167427D01*
X104169238Y-103167427D02*
X104250190Y-103207903D01*
X104250190Y-103207903D02*
X104290666Y-103248379D01*
X104290666Y-103248379D02*
X104331142Y-103329331D01*
X104331142Y-103329331D02*
X104371619Y-103491236D01*
X104371619Y-103491236D02*
X104371619Y-103693617D01*
X104371619Y-103693617D02*
X104331142Y-103855522D01*
X104331142Y-103855522D02*
X104290666Y-103936474D01*
X104290666Y-103936474D02*
X104250190Y-103976951D01*
X104250190Y-103976951D02*
X104169238Y-104017427D01*
X104169238Y-104017427D02*
X104088285Y-104017427D01*
X104088285Y-104017427D02*
X104007333Y-103976951D01*
X104007333Y-103976951D02*
X103966857Y-103936474D01*
X103966857Y-103936474D02*
X103926380Y-103855522D01*
X103926380Y-103855522D02*
X103885904Y-103693617D01*
X103885904Y-103693617D02*
X103885904Y-103491236D01*
X103885904Y-103491236D02*
X103926380Y-103329331D01*
X103926380Y-103329331D02*
X103966857Y-103248379D01*
X103966857Y-103248379D02*
X104007333Y-103207903D01*
X104007333Y-103207903D02*
X104088285Y-103167427D01*
X95446071Y-100380474D02*
X95405595Y-100420951D01*
X95405595Y-100420951D02*
X95284166Y-100461427D01*
X95284166Y-100461427D02*
X95203214Y-100461427D01*
X95203214Y-100461427D02*
X95081785Y-100420951D01*
X95081785Y-100420951D02*
X95000833Y-100339998D01*
X95000833Y-100339998D02*
X94960356Y-100259046D01*
X94960356Y-100259046D02*
X94919880Y-100097141D01*
X94919880Y-100097141D02*
X94919880Y-99975712D01*
X94919880Y-99975712D02*
X94960356Y-99813808D01*
X94960356Y-99813808D02*
X95000833Y-99732855D01*
X95000833Y-99732855D02*
X95081785Y-99651903D01*
X95081785Y-99651903D02*
X95203214Y-99611427D01*
X95203214Y-99611427D02*
X95284166Y-99611427D01*
X95284166Y-99611427D02*
X95405595Y-99651903D01*
X95405595Y-99651903D02*
X95446071Y-99692379D01*
X96255595Y-100461427D02*
X95769880Y-100461427D01*
X96012737Y-100461427D02*
X96012737Y-99611427D01*
X96012737Y-99611427D02*
X95931785Y-99732855D01*
X95931785Y-99732855D02*
X95850833Y-99813808D01*
X95850833Y-99813808D02*
X95769880Y-99854284D01*
X96579404Y-99692379D02*
X96619880Y-99651903D01*
X96619880Y-99651903D02*
X96700833Y-99611427D01*
X96700833Y-99611427D02*
X96903214Y-99611427D01*
X96903214Y-99611427D02*
X96984166Y-99651903D01*
X96984166Y-99651903D02*
X97024642Y-99692379D01*
X97024642Y-99692379D02*
X97065119Y-99773331D01*
X97065119Y-99773331D02*
X97065119Y-99854284D01*
X97065119Y-99854284D02*
X97024642Y-99975712D01*
X97024642Y-99975712D02*
X96538928Y-100461427D01*
X96538928Y-100461427D02*
X97065119Y-100461427D01*
X98390833Y-106557427D02*
X98107499Y-106152665D01*
X97905118Y-106557427D02*
X97905118Y-105707427D01*
X97905118Y-105707427D02*
X98228928Y-105707427D01*
X98228928Y-105707427D02*
X98309880Y-105747903D01*
X98309880Y-105747903D02*
X98350357Y-105788379D01*
X98350357Y-105788379D02*
X98390833Y-105869331D01*
X98390833Y-105869331D02*
X98390833Y-105990760D01*
X98390833Y-105990760D02*
X98350357Y-106071712D01*
X98350357Y-106071712D02*
X98309880Y-106112189D01*
X98309880Y-106112189D02*
X98228928Y-106152665D01*
X98228928Y-106152665D02*
X97905118Y-106152665D01*
X98674166Y-105707427D02*
X99200357Y-105707427D01*
X99200357Y-105707427D02*
X98917023Y-106031236D01*
X98917023Y-106031236D02*
X99038452Y-106031236D01*
X99038452Y-106031236D02*
X99119404Y-106071712D01*
X99119404Y-106071712D02*
X99159880Y-106112189D01*
X99159880Y-106112189D02*
X99200357Y-106193141D01*
X99200357Y-106193141D02*
X99200357Y-106395522D01*
X99200357Y-106395522D02*
X99159880Y-106476474D01*
X99159880Y-106476474D02*
X99119404Y-106516951D01*
X99119404Y-106516951D02*
X99038452Y-106557427D01*
X99038452Y-106557427D02*
X98795595Y-106557427D01*
X98795595Y-106557427D02*
X98714642Y-106516951D01*
X98714642Y-106516951D02*
X98674166Y-106476474D01*
X100380474Y-94121666D02*
X100420951Y-94162142D01*
X100420951Y-94162142D02*
X100461427Y-94283571D01*
X100461427Y-94283571D02*
X100461427Y-94364523D01*
X100461427Y-94364523D02*
X100420951Y-94485952D01*
X100420951Y-94485952D02*
X100339998Y-94566904D01*
X100339998Y-94566904D02*
X100259046Y-94607381D01*
X100259046Y-94607381D02*
X100097141Y-94647857D01*
X100097141Y-94647857D02*
X99975712Y-94647857D01*
X99975712Y-94647857D02*
X99813808Y-94607381D01*
X99813808Y-94607381D02*
X99732855Y-94566904D01*
X99732855Y-94566904D02*
X99651903Y-94485952D01*
X99651903Y-94485952D02*
X99611427Y-94364523D01*
X99611427Y-94364523D02*
X99611427Y-94283571D01*
X99611427Y-94283571D02*
X99651903Y-94162142D01*
X99651903Y-94162142D02*
X99692379Y-94121666D01*
X99611427Y-93393095D02*
X99611427Y-93555000D01*
X99611427Y-93555000D02*
X99651903Y-93635952D01*
X99651903Y-93635952D02*
X99692379Y-93676428D01*
X99692379Y-93676428D02*
X99813808Y-93757381D01*
X99813808Y-93757381D02*
X99975712Y-93797857D01*
X99975712Y-93797857D02*
X100299522Y-93797857D01*
X100299522Y-93797857D02*
X100380474Y-93757381D01*
X100380474Y-93757381D02*
X100420951Y-93716904D01*
X100420951Y-93716904D02*
X100461427Y-93635952D01*
X100461427Y-93635952D02*
X100461427Y-93474047D01*
X100461427Y-93474047D02*
X100420951Y-93393095D01*
X100420951Y-93393095D02*
X100380474Y-93352619D01*
X100380474Y-93352619D02*
X100299522Y-93312142D01*
X100299522Y-93312142D02*
X100097141Y-93312142D01*
X100097141Y-93312142D02*
X100016189Y-93352619D01*
X100016189Y-93352619D02*
X99975712Y-93393095D01*
X99975712Y-93393095D02*
X99935236Y-93474047D01*
X99935236Y-93474047D02*
X99935236Y-93635952D01*
X99935236Y-93635952D02*
X99975712Y-93716904D01*
X99975712Y-93716904D02*
X100016189Y-93757381D01*
X100016189Y-93757381D02*
X100097141Y-93797857D01*
X98390833Y-108508474D02*
X98350357Y-108548951D01*
X98350357Y-108548951D02*
X98228928Y-108589427D01*
X98228928Y-108589427D02*
X98147976Y-108589427D01*
X98147976Y-108589427D02*
X98026547Y-108548951D01*
X98026547Y-108548951D02*
X97945595Y-108467998D01*
X97945595Y-108467998D02*
X97905118Y-108387046D01*
X97905118Y-108387046D02*
X97864642Y-108225141D01*
X97864642Y-108225141D02*
X97864642Y-108103712D01*
X97864642Y-108103712D02*
X97905118Y-107941808D01*
X97905118Y-107941808D02*
X97945595Y-107860855D01*
X97945595Y-107860855D02*
X98026547Y-107779903D01*
X98026547Y-107779903D02*
X98147976Y-107739427D01*
X98147976Y-107739427D02*
X98228928Y-107739427D01*
X98228928Y-107739427D02*
X98350357Y-107779903D01*
X98350357Y-107779903D02*
X98390833Y-107820379D01*
X98876547Y-108103712D02*
X98795595Y-108063236D01*
X98795595Y-108063236D02*
X98755118Y-108022760D01*
X98755118Y-108022760D02*
X98714642Y-107941808D01*
X98714642Y-107941808D02*
X98714642Y-107901331D01*
X98714642Y-107901331D02*
X98755118Y-107820379D01*
X98755118Y-107820379D02*
X98795595Y-107779903D01*
X98795595Y-107779903D02*
X98876547Y-107739427D01*
X98876547Y-107739427D02*
X99038452Y-107739427D01*
X99038452Y-107739427D02*
X99119404Y-107779903D01*
X99119404Y-107779903D02*
X99159880Y-107820379D01*
X99159880Y-107820379D02*
X99200357Y-107901331D01*
X99200357Y-107901331D02*
X99200357Y-107941808D01*
X99200357Y-107941808D02*
X99159880Y-108022760D01*
X99159880Y-108022760D02*
X99119404Y-108063236D01*
X99119404Y-108063236D02*
X99038452Y-108103712D01*
X99038452Y-108103712D02*
X98876547Y-108103712D01*
X98876547Y-108103712D02*
X98795595Y-108144189D01*
X98795595Y-108144189D02*
X98755118Y-108184665D01*
X98755118Y-108184665D02*
X98714642Y-108265617D01*
X98714642Y-108265617D02*
X98714642Y-108427522D01*
X98714642Y-108427522D02*
X98755118Y-108508474D01*
X98755118Y-108508474D02*
X98795595Y-108548951D01*
X98795595Y-108548951D02*
X98876547Y-108589427D01*
X98876547Y-108589427D02*
X99038452Y-108589427D01*
X99038452Y-108589427D02*
X99119404Y-108548951D01*
X99119404Y-108548951D02*
X99159880Y-108508474D01*
X99159880Y-108508474D02*
X99200357Y-108427522D01*
X99200357Y-108427522D02*
X99200357Y-108265617D01*
X99200357Y-108265617D02*
X99159880Y-108184665D01*
X99159880Y-108184665D02*
X99119404Y-108144189D01*
X99119404Y-108144189D02*
X99038452Y-108103712D01*
X100380474Y-91835666D02*
X100420951Y-91876142D01*
X100420951Y-91876142D02*
X100461427Y-91997571D01*
X100461427Y-91997571D02*
X100461427Y-92078523D01*
X100461427Y-92078523D02*
X100420951Y-92199952D01*
X100420951Y-92199952D02*
X100339998Y-92280904D01*
X100339998Y-92280904D02*
X100259046Y-92321381D01*
X100259046Y-92321381D02*
X100097141Y-92361857D01*
X100097141Y-92361857D02*
X99975712Y-92361857D01*
X99975712Y-92361857D02*
X99813808Y-92321381D01*
X99813808Y-92321381D02*
X99732855Y-92280904D01*
X99732855Y-92280904D02*
X99651903Y-92199952D01*
X99651903Y-92199952D02*
X99611427Y-92078523D01*
X99611427Y-92078523D02*
X99611427Y-91997571D01*
X99611427Y-91997571D02*
X99651903Y-91876142D01*
X99651903Y-91876142D02*
X99692379Y-91835666D01*
X99611427Y-91066619D02*
X99611427Y-91471381D01*
X99611427Y-91471381D02*
X100016189Y-91511857D01*
X100016189Y-91511857D02*
X99975712Y-91471381D01*
X99975712Y-91471381D02*
X99935236Y-91390428D01*
X99935236Y-91390428D02*
X99935236Y-91188047D01*
X99935236Y-91188047D02*
X99975712Y-91107095D01*
X99975712Y-91107095D02*
X100016189Y-91066619D01*
X100016189Y-91066619D02*
X100097141Y-91026142D01*
X100097141Y-91026142D02*
X100299522Y-91026142D01*
X100299522Y-91026142D02*
X100380474Y-91066619D01*
X100380474Y-91066619D02*
X100420951Y-91107095D01*
X100420951Y-91107095D02*
X100461427Y-91188047D01*
X100461427Y-91188047D02*
X100461427Y-91390428D01*
X100461427Y-91390428D02*
X100420951Y-91471381D01*
X100420951Y-91471381D02*
X100380474Y-91511857D01*
X92891319Y-103290666D02*
X92415128Y-103623999D01*
X92891319Y-103862094D02*
X91891319Y-103862094D01*
X91891319Y-103862094D02*
X91891319Y-103481142D01*
X91891319Y-103481142D02*
X91938938Y-103385904D01*
X91938938Y-103385904D02*
X91986557Y-103338285D01*
X91986557Y-103338285D02*
X92081795Y-103290666D01*
X92081795Y-103290666D02*
X92224652Y-103290666D01*
X92224652Y-103290666D02*
X92319890Y-103338285D01*
X92319890Y-103338285D02*
X92367509Y-103385904D01*
X92367509Y-103385904D02*
X92415128Y-103481142D01*
X92415128Y-103481142D02*
X92415128Y-103862094D01*
X91891319Y-102433523D02*
X91891319Y-102623999D01*
X91891319Y-102623999D02*
X91938938Y-102719237D01*
X91938938Y-102719237D02*
X91986557Y-102766856D01*
X91986557Y-102766856D02*
X92129414Y-102862094D01*
X92129414Y-102862094D02*
X92319890Y-102909713D01*
X92319890Y-102909713D02*
X92700842Y-102909713D01*
X92700842Y-102909713D02*
X92796080Y-102862094D01*
X92796080Y-102862094D02*
X92843700Y-102814475D01*
X92843700Y-102814475D02*
X92891319Y-102719237D01*
X92891319Y-102719237D02*
X92891319Y-102528761D01*
X92891319Y-102528761D02*
X92843700Y-102433523D01*
X92843700Y-102433523D02*
X92796080Y-102385904D01*
X92796080Y-102385904D02*
X92700842Y-102338285D01*
X92700842Y-102338285D02*
X92462747Y-102338285D01*
X92462747Y-102338285D02*
X92367509Y-102385904D01*
X92367509Y-102385904D02*
X92319890Y-102433523D01*
X92319890Y-102433523D02*
X92272271Y-102528761D01*
X92272271Y-102528761D02*
X92272271Y-102719237D01*
X92272271Y-102719237D02*
X92319890Y-102814475D01*
X92319890Y-102814475D02*
X92367509Y-102862094D01*
X92367509Y-102862094D02*
X92462747Y-102909713D01*
X99406833Y-98429427D02*
X99002071Y-98429427D01*
X99002071Y-98429427D02*
X99002071Y-97579427D01*
X100135405Y-98429427D02*
X99649690Y-98429427D01*
X99892547Y-98429427D02*
X99892547Y-97579427D01*
X99892547Y-97579427D02*
X99811595Y-97700855D01*
X99811595Y-97700855D02*
X99730643Y-97781808D01*
X99730643Y-97781808D02*
X99649690Y-97822284D01*
%TO.C,R2*%
D11*
X96668121Y-106808000D02*
X96332879Y-106808000D01*
X96668121Y-107568000D02*
X96332879Y-107568000D01*
%TO.C,C9*%
X100934335Y-102256000D02*
X100702665Y-102256000D01*
X100934335Y-102976000D02*
X100702665Y-102976000D01*
%TO.C,R5*%
X101982000Y-100670379D02*
X101982000Y-101005621D01*
X102742000Y-100670379D02*
X102742000Y-101005621D01*
%TO.C,U3*%
D12*
X89948000Y-82888000D02*
X89948000Y-110688000D01*
X89948000Y-82888000D02*
X117248000Y-82888000D01*
X89948000Y-110688000D02*
X117248000Y-110688000D01*
X117248000Y-110688000D02*
X117248000Y-82888000D01*
%TO.C,U4*%
X116880000Y-79748000D02*
X116880000Y-76748000D01*
X119880000Y-76748000D02*
X116880000Y-76748000D01*
X119880000Y-79748000D02*
X116880000Y-79748000D01*
X119880000Y-79748000D02*
X119880000Y-76748000D01*
X120405000Y-79573000D02*
G75*
G02*
X120105000Y-79573000I-150000J0D01*
G01*
X120105000Y-79573000D02*
G75*
G02*
X120405000Y-79573000I150000J0D01*
G01*
%TO.C,U2*%
D11*
X96098500Y-102072000D02*
X97918500Y-102072000D01*
X96098500Y-102122000D02*
X96098500Y-102072000D01*
X96098500Y-105192000D02*
X96098500Y-105142000D01*
X97918500Y-102072000D02*
X97918500Y-102122000D01*
X97918500Y-105142000D02*
X97918500Y-105192000D01*
X97918500Y-105192000D02*
X96098500Y-105192000D01*
X98458500Y-105142000D02*
X98698500Y-105472000D01*
X98218500Y-105472000D01*
X98458500Y-105142000D01*
G36*
X98698500Y-105472000D02*
G01*
X98218500Y-105472000D01*
X98458500Y-105142000D01*
X98698500Y-105472000D01*
G37*
%TO.C,R7*%
X114936000Y-93766621D02*
X114936000Y-93431379D01*
X115696000Y-93766621D02*
X115696000Y-93431379D01*
%TO.C,Y1*%
X102010000Y-91127000D02*
X102010000Y-94097000D01*
X103730000Y-91127000D02*
X102010000Y-91127000D01*
X103730000Y-94097000D02*
X103730000Y-91127000D01*
%TO.C,C14*%
X121560000Y-79109835D02*
X121560000Y-78878165D01*
X122280000Y-79109835D02*
X122280000Y-78878165D01*
%TO.C,C4*%
X103239835Y-96160000D02*
X103008165Y-96160000D01*
X103239835Y-96880000D02*
X103008165Y-96880000D01*
%TO.C,C3*%
X103239835Y-95144000D02*
X103008165Y-95144000D01*
X103239835Y-95864000D02*
X103008165Y-95864000D01*
%TO.C,C11*%
X100934335Y-104288000D02*
X100702665Y-104288000D01*
X100934335Y-105008000D02*
X100702665Y-105008000D01*
%TO.C,C1*%
X112416000Y-95388165D02*
X112416000Y-95619835D01*
X113136000Y-95388165D02*
X113136000Y-95619835D01*
%TO.C,C13*%
X101334835Y-85746000D02*
X101103165Y-85746000D01*
X101334835Y-86466000D02*
X101103165Y-86466000D01*
%TO.C,C2*%
X113432000Y-95388165D02*
X113432000Y-95619835D01*
X114152000Y-95388165D02*
X114152000Y-95619835D01*
%TO.C,R8*%
X112904000Y-90383379D02*
X112904000Y-90718621D01*
X113664000Y-90383379D02*
X113664000Y-90718621D01*
%TO.C,U1*%
X105894000Y-91611000D02*
X110514000Y-91611000D01*
X110514000Y-98381000D02*
X105894000Y-98381000D01*
X104344000Y-92066000D02*
X104014000Y-92306000D01*
X104014000Y-91826000D01*
X104344000Y-92066000D01*
G36*
X104344000Y-92066000D02*
G01*
X104014000Y-92306000D01*
X104014000Y-91826000D01*
X104344000Y-92066000D01*
G37*
%TO.C,C10*%
X100934335Y-103272000D02*
X100702665Y-103272000D01*
X100934335Y-103992000D02*
X100702665Y-103992000D01*
%TO.C,C12*%
X95876665Y-100732000D02*
X96108335Y-100732000D01*
X95876665Y-101452000D02*
X96108335Y-101452000D01*
%TO.C,R3*%
X96332879Y-105792000D02*
X96668121Y-105792000D01*
X96332879Y-106552000D02*
X96668121Y-106552000D01*
%TO.C,C6*%
X100859000Y-94095835D02*
X100859000Y-93864165D01*
X101579000Y-94095835D02*
X101579000Y-93864165D01*
%TO.C,C8*%
X96616335Y-107844000D02*
X96384665Y-107844000D01*
X96616335Y-108564000D02*
X96384665Y-108564000D01*
%TO.C,R9*%
X120397000Y-78826379D02*
X120397000Y-79161621D01*
X121157000Y-78826379D02*
X121157000Y-79161621D01*
%TO.C,C5*%
X100859000Y-91578165D02*
X100859000Y-91809835D01*
X101579000Y-91578165D02*
X101579000Y-91809835D01*
%TO.C,R6*%
X93580500Y-102956379D02*
X93580500Y-103291621D01*
X94340500Y-102956379D02*
X94340500Y-103291621D01*
%TO.C,L1*%
X99287248Y-98966000D02*
X99809752Y-98966000D01*
X99287248Y-101186000D02*
X99809752Y-101186000D01*
%TD*%
M02*
