M48
; DRILL file KiCad 10.0.4 date 2026-10-03T22:47:12
; FORMAT={-:-/ absolute / metric / decimal}
; #@! TF.CreationDate,2026-10-03T22:47:12+02:00
; #@! TF.GenerationSoftware,Kicad,Pcbnew,10.0.4
; #@! TF.FileFunction,Plated,1,4,PTH
FMAT,2
METRIC
; #@! TA.AperFunction,Plated,PTH,ViaDrill
T1C0.200
; #@! TA.AperFunction,Plated,PTH,ViaDrill
T2C0.300
; #@! TA.AperFunction,Plated,PTH,ComponentDrill
T3C1.000
%
G90
G05
T1
X97.008Y-103.124
X97.008Y-103.632
X97.008Y-104.14
X99.421Y-102.616
X99.421Y-103.251
X99.421Y-103.886
X99.421Y-104.521
X100.584Y-92.837
X101.219Y-92.837
X101.854Y-92.837
T2
X86.36Y-83.82
X86.36Y-86.36
X86.36Y-88.9
X86.36Y-91.44
X86.36Y-99.06
X86.36Y-101.6
X86.36Y-104.14
X86.36Y-106.68
X86.36Y-109.22
X86.36Y-111.76
X88.9Y-78.74
X88.9Y-81.28
X88.9Y-83.82
X88.9Y-86.36
X88.9Y-88.9
X88.9Y-91.44
X88.9Y-99.06
X88.9Y-101.6
X88.9Y-104.14
X88.9Y-106.68
X88.9Y-109.22
X88.9Y-111.76
X91.44Y-78.74
X91.44Y-81.28
X91.44Y-88.9
X91.44Y-91.44
X91.44Y-99.06
X91.44Y-101.6
X91.44Y-104.14
X91.44Y-111.76
X93.98Y-86.36
X93.98Y-88.9
X93.98Y-91.44
X93.98Y-93.98
X93.98Y-106.68
X93.98Y-111.76
X94.107Y-77.978
X94.849Y-100.33
X94.977Y-106.172
X95.992Y-100.076
X96.52Y-78.74
X96.52Y-88.9
X96.52Y-91.44
X96.52Y-93.98
X96.52Y-96.52
X96.52Y-109.22
X96.52Y-111.76
X96.627Y-101.854
X96.647Y-81.28
X96.754Y-100.076
X97.389Y-101.854
X98.024Y-106.172
X98.024Y-107.188
X98.024Y-108.204
X99.06Y-78.74
X99.06Y-81.28
X99.06Y-91.44
X99.06Y-93.98
X99.06Y-96.52
X99.06Y-109.22
X99.06Y-111.76
X99.167Y-105.283
X101.6Y-78.74
X101.6Y-81.28
X101.6Y-111.76
X101.727Y-96.139
X101.727Y-96.901
X102.283Y-102.616
X102.283Y-103.632
X102.283Y-104.648
X103.691Y-97.536
X104.14Y-78.74
X104.14Y-81.28
X104.14Y-111.76
X106.68Y-78.74
X106.68Y-81.28
X106.68Y-88.9
X106.68Y-93.98
X106.68Y-96.52
X106.68Y-99.06
X106.68Y-101.6
X106.68Y-111.76
X109.22Y-78.74
X109.22Y-81.28
X109.22Y-83.82
X109.22Y-86.36
X109.22Y-104.14
X109.22Y-111.76
X109.398Y-92.071
X109.906Y-92.721
X109.957Y-95.326
X111.76Y-78.74
X111.76Y-81.28
X111.76Y-83.82
X111.76Y-86.36
X111.76Y-101.6
X111.76Y-104.14
X111.76Y-111.76
X112.776Y-97.028
X113.284Y-89.027
X113.792Y-93.853
X113.792Y-97.028
X114.173Y-91.186
X114.3Y-99.06
X114.3Y-101.6
X114.3Y-104.14
X114.3Y-111.76
X114.681Y-96.012
X114.681Y-96.774
X115.316Y-94.869
X116.205Y-92.964
X116.447Y-78.74
X116.459Y-77.216
X116.459Y-78.105
X116.84Y-99.06
X116.84Y-101.6
X116.84Y-104.14
X116.84Y-111.76
X118.237Y-93.091
X118.237Y-93.853
X118.237Y-94.615
X118.237Y-95.377
X118.237Y-96.139
X118.237Y-96.901
X119.38Y-83.82
X119.38Y-86.36
X119.38Y-88.9
X119.38Y-91.44
X119.38Y-99.06
X119.38Y-101.6
X119.38Y-104.14
X119.38Y-106.68
X119.38Y-109.22
X119.38Y-111.76
X121.539Y-77.597
X121.92Y-80.328
X121.92Y-83.82
X121.92Y-86.36
X121.92Y-88.9
X121.92Y-91.44
X121.92Y-99.06
X121.92Y-101.6
X121.92Y-104.14
X121.92Y-106.68
X121.92Y-109.22
X121.92Y-111.76
X122.174Y-77.597
T3
X99.788Y-84.328
X102.328Y-84.328
X102.489Y-108.585
X104.868Y-84.328
X105.029Y-108.585
X107.408Y-84.328
X107.569Y-108.585
X110.109Y-108.585
M30
