%TF.GenerationSoftware,KiCad,Pcbnew,10.0.4*%
%TF.CreationDate,2026-10-03T22:47:07+02:00*%
%TF.ProjectId,00-air-temp-monitor,30302d61-6972-42d7-9465-6d702d6d6f6e,rev?*%
%TF.SameCoordinates,Original*%
%TF.FileFunction,Copper,L4,Bot*%
%TF.FilePolarity,Positive*%
%FSLAX46Y46*%
G04 Gerber Fmt 4.6, Leading zero omitted, Abs format (unit mm)*
G04 Created by KiCad (PCBNEW 10.0.4) date 2026-10-03 22:47:07*
%MOMM*%
%LPD*%
G01*
G04 APERTURE LIST*
G04 Aperture macros list*
%AMRoundRect*
0 Rectangle with rounded corners*
0 $1 Rounding radius*
0 $2 $3 $4 $5 $6 $7 $8 $9 X,Y pos of 4 corners*
0 Add a 4 corners polygon primitive as box body*
4,1,4,$2,$3,$4,$5,$6,$7,$8,$9,$2,$3,0*
0 Add four circle primitives for the rounded corners*
1,1,$1+$1,$2,$3*
1,1,$1+$1,$4,$5*
1,1,$1+$1,$6,$7*
1,1,$1+$1,$8,$9*
0 Add four rect primitives between the rounded corners*
20,1,$1+$1,$2,$3,$4,$5,0*
20,1,$1+$1,$4,$5,$6,$7,0*
20,1,$1+$1,$6,$7,$8,$9,0*
20,1,$1+$1,$8,$9,$2,$3,0*%
G04 Aperture macros list end*
%TA.AperFunction,WasherPad*%
%ADD10C,3.000000*%
%TD*%
%TA.AperFunction,ComponentPad*%
%ADD11RoundRect,0.250000X-0.600000X-0.600000X0.600000X-0.600000X0.600000X0.600000X-0.600000X0.600000X0*%
%TD*%
%TA.AperFunction,ComponentPad*%
%ADD12C,1.700000*%
%TD*%
%TA.AperFunction,SMDPad,CuDef*%
%ADD13R,1.200000X0.900000*%
%TD*%
%TA.AperFunction,SMDPad,CuDef*%
%ADD14RoundRect,0.543750X-1.268750X-1.706250X1.268750X-1.706250X1.268750X1.706250X-1.268750X1.706250X0*%
%TD*%
%TA.AperFunction,SMDPad,CuDef*%
%ADD15RoundRect,0.160000X0.197500X0.160000X-0.197500X0.160000X-0.197500X-0.160000X0.197500X-0.160000X0*%
%TD*%
%TA.AperFunction,SMDPad,CuDef*%
%ADD16RoundRect,0.155000X0.155000X-0.212500X0.155000X0.212500X-0.155000X0.212500X-0.155000X-0.212500X0*%
%TD*%
%TA.AperFunction,ComponentPad*%
%ADD17R,1.700000X1.700000*%
%TD*%
%TA.AperFunction,SMDPad,CuDef*%
%ADD18RoundRect,0.160000X-0.197500X-0.160000X0.197500X-0.160000X0.197500X0.160000X-0.197500X0.160000X0*%
%TD*%
%TA.AperFunction,ViaPad*%
%ADD19C,0.600000*%
%TD*%
%TA.AperFunction,ViaPad*%
%ADD20C,0.500000*%
%TD*%
%TA.AperFunction,ViaPad*%
%ADD21C,0.400000*%
%TD*%
%TA.AperFunction,Conductor*%
%ADD22C,0.500000*%
%TD*%
%TA.AperFunction,Conductor*%
%ADD23C,0.200000*%
%TD*%
%TA.AperFunction,Conductor*%
%ADD24C,0.400000*%
%TD*%
G04 APERTURE END LIST*
D10*
%TO.P,U3,*%
%TO.N,*%
X91948000Y-84888000D03*
X91948000Y-108688000D03*
X115248000Y-84888000D03*
X115248000Y-108688000D03*
D11*
%TO.P,U3,1,GND_1*%
%TO.N,GND*%
X99788000Y-84328000D03*
D12*
%TO.P,U3,2,VCC_2*%
%TO.N,+3V3*%
X102328000Y-84328000D03*
%TO.P,U3,3,SCL_3*%
%TO.N,/I2C1_SCL*%
X104868000Y-84328000D03*
%TO.P,U3,4,SDA_4*%
%TO.N,/I2C1_SDA*%
X107408000Y-84328000D03*
%TD*%
D13*
%TO.P,SW1,1,1_1*%
%TO.N,GND*%
X92958000Y-78181000D03*
%TO.P,SW1,2,2_2*%
%TO.N,/NRST*%
X92958000Y-81331000D03*
%TO.P,SW1,3*%
%TO.N,N/C*%
X85858000Y-78181000D03*
%TO.P,SW1,4*%
X85858000Y-81331000D03*
%TD*%
D14*
%TO.P,BT1,1,+_1*%
%TO.N,+BATT*%
X86942000Y-94996000D03*
%TO.P,BT1,2,-_2*%
%TO.N,GND*%
X120322000Y-94996000D03*
%TD*%
D15*
%TO.P,R1,1*%
%TO.N,+3V3*%
X95720500Y-81280000D03*
%TO.P,R1,2*%
%TO.N,/NRST*%
X94525500Y-81280000D03*
%TD*%
D16*
%TO.P,C7,1*%
%TO.N,/NRST*%
X94488000Y-79942500D03*
%TO.P,C7,2*%
%TO.N,GND*%
X94488000Y-78807500D03*
%TD*%
D17*
%TO.P,J1,1,Pin_1_1*%
%TO.N,+3V3*%
X110109000Y-108585000D03*
D12*
%TO.P,J1,2,Pin_2_2*%
%TO.N,/SWDIO*%
X107569000Y-108585000D03*
%TO.P,J1,3,Pin_3_3*%
%TO.N,/SWCLK*%
X105029000Y-108585000D03*
%TO.P,J1,4,Pin_4_4*%
%TO.N,GND*%
X102489000Y-108585000D03*
%TD*%
D18*
%TO.P,R4,1*%
%TO.N,Net-(U2-FB)*%
X95903000Y-106172000D03*
%TO.P,R4,2*%
%TO.N,GND*%
X97098000Y-106172000D03*
%TD*%
D19*
%TO.N,+3V3*%
X121920000Y-80327600D03*
X98024500Y-107188000D03*
X103691500Y-97536000D03*
X113792000Y-93853000D03*
X115316000Y-94869000D03*
X102283000Y-102616000D03*
X113284000Y-89027000D03*
X102283000Y-104648000D03*
X98024500Y-108204000D03*
X102283000Y-103632000D03*
D20*
X96647000Y-81280000D03*
%TO.N,Net-(U2-FB)*%
X94976500Y-106172000D03*
D19*
%TO.N,GND*%
X119380000Y-88900000D03*
X114300000Y-104140000D03*
X86360000Y-111760000D03*
D20*
X109956600Y-95326200D03*
D19*
X93980000Y-93980000D03*
X88900000Y-81280000D03*
X96520000Y-109220000D03*
X114300000Y-99060000D03*
X91440000Y-81280000D03*
X88900000Y-109220000D03*
X121920000Y-111760000D03*
X91440000Y-101600000D03*
X111760000Y-104140000D03*
X112776000Y-97028000D03*
X96520000Y-93980000D03*
X99060000Y-93980000D03*
X104140000Y-78740000D03*
X86360000Y-101600000D03*
X106680000Y-101600000D03*
X121920000Y-88900000D03*
X88900000Y-86360000D03*
X93980000Y-91440000D03*
D21*
X101854000Y-92837000D03*
D19*
X88900000Y-78740000D03*
X111760000Y-78740000D03*
X86360000Y-104140000D03*
X96520000Y-111760000D03*
X96627500Y-101854000D03*
X116840000Y-104140000D03*
X121920000Y-106680000D03*
X86360000Y-91440000D03*
D21*
X99421500Y-103251000D03*
D19*
X101600000Y-81280000D03*
X106680000Y-78740000D03*
X114300000Y-101600000D03*
X118237000Y-96901000D03*
X91440000Y-88900000D03*
D20*
X121539000Y-77597000D03*
D19*
X96520000Y-88900000D03*
D21*
X99421500Y-102616000D03*
D19*
X86360000Y-86360000D03*
X121920000Y-104140000D03*
D21*
X97008500Y-103124000D03*
D19*
X88900000Y-83820000D03*
X118237000Y-96139000D03*
X98024500Y-106172000D03*
X86360000Y-106680000D03*
D21*
X99421500Y-104521000D03*
D19*
X91440000Y-99060000D03*
X88900000Y-99060000D03*
X94107000Y-77978000D03*
D20*
X122174000Y-77597000D03*
D19*
X93980000Y-111760000D03*
X99060000Y-78740000D03*
X106680000Y-111760000D03*
D21*
X99421500Y-103886000D03*
D20*
X116459000Y-78105000D03*
X101727000Y-96901000D03*
D21*
X101219000Y-92837000D03*
D19*
X99060000Y-109220000D03*
X119380000Y-104140000D03*
X88900000Y-106680000D03*
X111760000Y-81280000D03*
X86360000Y-109220000D03*
X88900000Y-101600000D03*
D20*
X101727000Y-96139000D03*
D19*
X99060000Y-96520000D03*
X114300000Y-111760000D03*
X91440000Y-111760000D03*
X88900000Y-111760000D03*
X121920000Y-83820000D03*
X118237000Y-95377000D03*
X114681000Y-96774000D03*
X119380000Y-91440000D03*
X99060000Y-81280000D03*
X109220000Y-111760000D03*
X104140000Y-111760000D03*
X119380000Y-106680000D03*
X111760000Y-83820000D03*
X106680000Y-99060000D03*
X121920000Y-86360000D03*
X119380000Y-86360000D03*
X86360000Y-88900000D03*
D21*
X97008500Y-103632000D03*
D19*
X106680000Y-81280000D03*
X116840000Y-99060000D03*
X96520000Y-96520000D03*
X116840000Y-101600000D03*
X106680000Y-88900000D03*
X91440000Y-104140000D03*
X118237000Y-94615000D03*
X119380000Y-99060000D03*
X119380000Y-101600000D03*
X119380000Y-83820000D03*
X88900000Y-88900000D03*
X119380000Y-109220000D03*
X99060000Y-91440000D03*
X111760000Y-101600000D03*
X96754500Y-100076000D03*
X121920000Y-101600000D03*
X93980000Y-106680000D03*
X118237000Y-93091000D03*
D21*
X97008500Y-104140000D03*
D19*
X101600000Y-111760000D03*
D20*
X116447000Y-78740000D03*
D19*
X121920000Y-109220000D03*
X96520000Y-78740000D03*
X109220000Y-81280000D03*
X106680000Y-96520000D03*
X88900000Y-91440000D03*
X116840000Y-111760000D03*
X109220000Y-83820000D03*
X95992500Y-100076000D03*
X93980000Y-88900000D03*
X91440000Y-78740000D03*
X121920000Y-91440000D03*
X99060000Y-111760000D03*
X119380000Y-111760000D03*
X109220000Y-78740000D03*
D21*
X100584000Y-92837000D03*
D19*
X118237000Y-93853000D03*
X104140000Y-81280000D03*
X93980000Y-86360000D03*
X86360000Y-99060000D03*
X97389500Y-101854000D03*
X111760000Y-111760000D03*
X113792000Y-97028000D03*
X101600000Y-78740000D03*
X86360000Y-83820000D03*
X109220000Y-104140000D03*
X88900000Y-104140000D03*
X121920000Y-99060000D03*
X111760000Y-86360000D03*
X109220000Y-86360000D03*
X114681000Y-96012000D03*
X96520000Y-91440000D03*
X91440000Y-91440000D03*
%TO.N,/I2C1_SCL*%
X116205000Y-92964000D03*
D20*
%TO.N,/I2C1_SDA*%
X116459000Y-77216000D03*
X114173000Y-91186000D03*
%TO.N,+BATT*%
X99167500Y-105283000D03*
D19*
X94849500Y-100330000D03*
%TO.N,/NRST*%
X106680000Y-93980000D03*
D20*
%TO.N,/SWDIO*%
X109905800Y-92721000D03*
%TO.N,/SWCLK*%
X109397800Y-92071000D03*
%TD*%
%TO.N,+3V3*%
D22*
X96647000Y-81280000D02*
X95720500Y-81280000D01*
%TO.N,Net-(U2-FB)*%
D23*
X94976500Y-106172000D02*
X95903000Y-106172000D01*
%TO.N,GND*%
X94488000Y-78359000D02*
X94107000Y-77978000D01*
X94107000Y-77978000D02*
X93161000Y-77978000D01*
D24*
X98024500Y-106172000D02*
X97098000Y-106172000D01*
D23*
X94488000Y-78807500D02*
X94488000Y-78359000D01*
X93161000Y-77978000D02*
X92958000Y-78181000D01*
%TO.N,/I2C1_SCL*%
X106807000Y-86741000D02*
X113030000Y-92964000D01*
X113030000Y-92964000D02*
X116205000Y-92964000D01*
X104868000Y-84328000D02*
X106807000Y-86267000D01*
X106807000Y-86267000D02*
X106807000Y-86741000D01*
%TO.N,/I2C1_SDA*%
X117602000Y-77216000D02*
X116459000Y-77216000D01*
X114173000Y-91186000D02*
X114173000Y-88915818D01*
X118364000Y-77978000D02*
X117602000Y-77216000D01*
X114173000Y-88915818D02*
X118364000Y-84724818D01*
X118364000Y-84724818D02*
X118364000Y-77978000D01*
%TO.N,+BATT*%
X99167500Y-105283000D02*
X95738500Y-105283000D01*
X95357500Y-100838000D02*
X94849500Y-100330000D01*
D22*
X91313000Y-94996000D02*
X94849500Y-98532500D01*
D23*
X95357500Y-104902000D02*
X95357500Y-100838000D01*
D22*
X86942000Y-94996000D02*
X91313000Y-94996000D01*
D23*
X95738500Y-105283000D02*
X95357500Y-104902000D01*
D22*
X94849500Y-98532500D02*
X94849500Y-100330000D01*
%TO.N,/NRST*%
D23*
X94525500Y-79980000D02*
X94488000Y-79942500D01*
X94525500Y-81280000D02*
X94525500Y-83603500D01*
X94525500Y-81280000D02*
X94525500Y-79980000D01*
X105003600Y-89001600D02*
X106680000Y-90678000D01*
X94525500Y-83603500D02*
X99923600Y-89001600D01*
X106680000Y-90678000D02*
X106680000Y-93980000D01*
X94488000Y-79942500D02*
X93412500Y-79942500D01*
X99923600Y-89001600D02*
X105003600Y-89001600D01*
X92958000Y-80397000D02*
X92958000Y-81331000D01*
X93412500Y-79942500D02*
X92958000Y-80397000D01*
%TO.N,/SWDIO*%
X109347000Y-101727000D02*
X109347000Y-93243400D01*
X107569000Y-108585000D02*
X107569000Y-103505000D01*
X109347000Y-93243400D02*
X109867700Y-92722700D01*
X107569000Y-103505000D02*
X109347000Y-101727000D01*
%TO.N,/SWCLK*%
X108864400Y-92557600D02*
X108864400Y-101396800D01*
X106426000Y-103835200D02*
X106426000Y-107188000D01*
X108864400Y-101396800D02*
X106426000Y-103835200D01*
X109351000Y-92071000D02*
X108864400Y-92557600D01*
X106426000Y-107188000D02*
X105029000Y-108585000D01*
%TD*%
%TA.AperFunction,Conductor*%
%TO.N,GND*%
G36*
X114629768Y-76720185D02*
G01*
X114675523Y-76772989D01*
X114686729Y-76824452D01*
X114688500Y-81379006D01*
X114688500Y-81456430D01*
X114722602Y-81605839D01*
X114789098Y-81743919D01*
X114789099Y-81743920D01*
X114789100Y-81743922D01*
X114884655Y-81863745D01*
X115004478Y-81959300D01*
X115004479Y-81959300D01*
X115004480Y-81959301D01*
X115142560Y-82025797D01*
X115291969Y-82059899D01*
X115291974Y-82059899D01*
X115291976Y-82059900D01*
X115302713Y-82059900D01*
X117390979Y-82059900D01*
X117407167Y-82060961D01*
X117409107Y-82061216D01*
X117409109Y-82061217D01*
X117409111Y-82061217D01*
X117474938Y-82061217D01*
X117475001Y-82061217D01*
X117547303Y-82061144D01*
X117547311Y-82061142D01*
X117547313Y-82061142D01*
X117688680Y-82030798D01*
X117688682Y-82030797D01*
X117688681Y-82030797D01*
X117688687Y-82030796D01*
X117820553Y-81971452D01*
X117820562Y-81971445D01*
X117826224Y-81968140D01*
X117827648Y-81970578D01*
X117881585Y-81950923D01*
X117949744Y-81966288D01*
X117998776Y-82016064D01*
X118013500Y-82074670D01*
X118013500Y-84528273D01*
X117993815Y-84595312D01*
X117977181Y-84615954D01*
X117151436Y-85441699D01*
X117090113Y-85475184D01*
X117020421Y-85470200D01*
X116964488Y-85428328D01*
X116940071Y-85362864D01*
X116943979Y-85321929D01*
X116968548Y-85230238D01*
X116998500Y-85002734D01*
X116998500Y-84773266D01*
X116968548Y-84545762D01*
X116909158Y-84324113D01*
X116859190Y-84203480D01*
X116821349Y-84112123D01*
X116821346Y-84112117D01*
X116821344Y-84112112D01*
X116706611Y-83913388D01*
X116706608Y-83913385D01*
X116706607Y-83913382D01*
X116566918Y-83731338D01*
X116566911Y-83731330D01*
X116404670Y-83569089D01*
X116404661Y-83569081D01*
X116222617Y-83429392D01*
X116187080Y-83408875D01*
X116023888Y-83314656D01*
X116023876Y-83314650D01*
X115811887Y-83226842D01*
X115590238Y-83167452D01*
X115552215Y-83162446D01*
X115362741Y-83137500D01*
X115362734Y-83137500D01*
X115133266Y-83137500D01*
X115133258Y-83137500D01*
X114916715Y-83166009D01*
X114905762Y-83167452D01*
X114812076Y-83192554D01*
X114684112Y-83226842D01*
X114472123Y-83314650D01*
X114472109Y-83314657D01*
X114273382Y-83429392D01*
X114091338Y-83569081D01*
X113929081Y-83731338D01*
X113789392Y-83913382D01*
X113674657Y-84112109D01*
X113674650Y-84112123D01*
X113586842Y-84324112D01*
X113527453Y-84545759D01*
X113527451Y-84545770D01*
X113497500Y-84773258D01*
X113497500Y-85002741D01*
X113519181Y-85167414D01*
X113527452Y-85230238D01*
X113580576Y-85428500D01*
X113586842Y-85451887D01*
X113674650Y-85663876D01*
X113674657Y-85663890D01*
X113789392Y-85862617D01*
X113929081Y-86044661D01*
X113929089Y-86044670D01*
X114091330Y-86206911D01*
X114091338Y-86206918D01*
X114273382Y-86346607D01*
X114273385Y-86346608D01*
X114273388Y-86346611D01*
X114472112Y-86461344D01*
X114472117Y-86461346D01*
X114472123Y-86461349D01*
X114563480Y-86499190D01*
X114684113Y-86549158D01*
X114905762Y-86608548D01*
X115133266Y-86638500D01*
X115133273Y-86638500D01*
X115362727Y-86638500D01*
X115362734Y-86638500D01*
X115590238Y-86608548D01*
X115681927Y-86583980D01*
X115751773Y-86585643D01*
X115809636Y-86624805D01*
X115837140Y-86689034D01*
X115825554Y-86757936D01*
X115801698Y-86791436D01*
X113902010Y-88691124D01*
X113840687Y-88724609D01*
X113770995Y-88719625D01*
X113726648Y-88691124D01*
X113622017Y-88586493D01*
X113622011Y-88586488D01*
X113496488Y-88514017D01*
X113496489Y-88514017D01*
X113485006Y-88510940D01*
X113356475Y-88476500D01*
X113211525Y-88476500D01*
X113082993Y-88510940D01*
X113071511Y-88514017D01*
X112945988Y-88586488D01*
X112945982Y-88586493D01*
X112843493Y-88688982D01*
X112843488Y-88688988D01*
X112771017Y-88814511D01*
X112771016Y-88814515D01*
X112733500Y-88954525D01*
X112733500Y-89099475D01*
X112764941Y-89216812D01*
X112771017Y-89239488D01*
X112843488Y-89365011D01*
X112843490Y-89365013D01*
X112843491Y-89365015D01*
X112945985Y-89467509D01*
X112945986Y-89467510D01*
X112945988Y-89467511D01*
X113071511Y-89539982D01*
X113071512Y-89539982D01*
X113071515Y-89539984D01*
X113211525Y-89577500D01*
X113211528Y-89577500D01*
X113356472Y-89577500D01*
X113356475Y-89577500D01*
X113496485Y-89539984D01*
X113622015Y-89467509D01*
X113622020Y-89467503D01*
X113623010Y-89466745D01*
X113624003Y-89466360D01*
X113629054Y-89463445D01*
X113629508Y-89464232D01*
X113688178Y-89441548D01*
X113756623Y-89455584D01*
X113806615Y-89504396D01*
X113822500Y-89565118D01*
X113822500Y-90777324D01*
X113802815Y-90844363D01*
X113786181Y-90865005D01*
X113772502Y-90878683D01*
X113772500Y-90878686D01*
X113706608Y-90992812D01*
X113672500Y-91120108D01*
X113672500Y-91251891D01*
X113706608Y-91379187D01*
X113739554Y-91436250D01*
X113772500Y-91493314D01*
X113865686Y-91586500D01*
X113979814Y-91652392D01*
X114107108Y-91686500D01*
X114107110Y-91686500D01*
X114238890Y-91686500D01*
X114238892Y-91686500D01*
X114366186Y-91652392D01*
X114480314Y-91586500D01*
X114573500Y-91493314D01*
X114639392Y-91379186D01*
X114673500Y-91251892D01*
X114673500Y-91120108D01*
X114639392Y-90992814D01*
X114573500Y-90878686D01*
X114559819Y-90865005D01*
X114526334Y-90803682D01*
X114523500Y-90777324D01*
X114523500Y-89112362D01*
X114543185Y-89045323D01*
X114559819Y-89024681D01*
X115108000Y-88476500D01*
X118644470Y-84940030D01*
X118690614Y-84860106D01*
X118705000Y-84806416D01*
X118714500Y-84770962D01*
X118714500Y-82101289D01*
X118734185Y-82034250D01*
X118786989Y-81988495D01*
X118856147Y-81978551D01*
X118903093Y-81995441D01*
X118907848Y-81998343D01*
X119039251Y-82045316D01*
X119140570Y-82059462D01*
X119140571Y-82059463D01*
X119146144Y-82060241D01*
X119148142Y-82060520D01*
X119150022Y-82061024D01*
X119151743Y-82061023D01*
X119177456Y-82064614D01*
X119228981Y-82061264D01*
X119236987Y-82061004D01*
X122311473Y-82060322D01*
X122378516Y-82079992D01*
X122424283Y-82132786D01*
X122435500Y-82184322D01*
X122435500Y-92370602D01*
X122415815Y-92437641D01*
X122363011Y-92483396D01*
X122293853Y-92493340D01*
X122232836Y-92466456D01*
X122173432Y-92417705D01*
X122173426Y-92417701D01*
X121992109Y-92320785D01*
X121795363Y-92261102D01*
X121642022Y-92246000D01*
X120572000Y-92246000D01*
X120572000Y-97745999D01*
X121642021Y-97745999D01*
X121795362Y-97730897D01*
X121992109Y-97671214D01*
X122173426Y-97574298D01*
X122173432Y-97574294D01*
X122232836Y-97525544D01*
X122297146Y-97498232D01*
X122366013Y-97510023D01*
X122417573Y-97557176D01*
X122435500Y-97621398D01*
X122435500Y-113167500D01*
X122415815Y-113234539D01*
X122363011Y-113280294D01*
X122311500Y-113291500D01*
X84952500Y-113291500D01*
X84885461Y-113271815D01*
X84839706Y-113219011D01*
X84828500Y-113167500D01*
X84828500Y-108573258D01*
X90197500Y-108573258D01*
X90197500Y-108802741D01*
X90210454Y-108901130D01*
X90227452Y-109030238D01*
X90286842Y-109251887D01*
X90374650Y-109463876D01*
X90374656Y-109463888D01*
X90456053Y-109604873D01*
X90489392Y-109662617D01*
X90629081Y-109844661D01*
X90629089Y-109844670D01*
X90791330Y-110006911D01*
X90791338Y-110006918D01*
X90973382Y-110146607D01*
X90973385Y-110146608D01*
X90973388Y-110146611D01*
X91172112Y-110261344D01*
X91172117Y-110261346D01*
X91172123Y-110261349D01*
X91263480Y-110299190D01*
X91384113Y-110349158D01*
X91605762Y-110408548D01*
X91833266Y-110438500D01*
X91833273Y-110438500D01*
X92062727Y-110438500D01*
X92062734Y-110438500D01*
X92290238Y-110408548D01*
X92511887Y-110349158D01*
X92723888Y-110261344D01*
X92922612Y-110146611D01*
X93104661Y-110006919D01*
X93104665Y-110006914D01*
X93104670Y-110006911D01*
X93266911Y-109844670D01*
X93266914Y-109844665D01*
X93266919Y-109844661D01*
X93406611Y-109662612D01*
X93521344Y-109463888D01*
X93609158Y-109251887D01*
X93668548Y-109030238D01*
X93698500Y-108802734D01*
X93698500Y-108573266D01*
X93668548Y-108345762D01*
X93609158Y-108124113D01*
X93521344Y-107912112D01*
X93406611Y-107713388D01*
X93406608Y-107713385D01*
X93406607Y-107713382D01*
X93266918Y-107531338D01*
X93266911Y-107531330D01*
X93104670Y-107369089D01*
X93104661Y-107369081D01*
X92922617Y-107229392D01*
X92723890Y-107114657D01*
X92723876Y-107114650D01*
X92511887Y-107026842D01*
X92290238Y-106967452D01*
X92252215Y-106962446D01*
X92062741Y-106937500D01*
X92062734Y-106937500D01*
X91833266Y-106937500D01*
X91833258Y-106937500D01*
X91616715Y-106966009D01*
X91605762Y-106967452D01*
X91516177Y-106991456D01*
X91384112Y-107026842D01*
X91172123Y-107114650D01*
X91172109Y-107114657D01*
X90973382Y-107229392D01*
X90791338Y-107369081D01*
X90629081Y-107531338D01*
X90489392Y-107713382D01*
X90374657Y-107912109D01*
X90374650Y-107912123D01*
X90286842Y-108124112D01*
X90227453Y-108345759D01*
X90227451Y-108345770D01*
X90197500Y-108573258D01*
X84828500Y-108573258D01*
X84828500Y-97279277D01*
X84848185Y-97212238D01*
X84900989Y-97166483D01*
X84970147Y-97156539D01*
X85033703Y-97185564D01*
X85043413Y-97195679D01*
X85043427Y-97195666D01*
X85048350Y-97200589D01*
X85048351Y-97200590D01*
X85174910Y-97327149D01*
X85326457Y-97422373D01*
X85495394Y-97481486D01*
X85495395Y-97481486D01*
X85495398Y-97481487D01*
X85569632Y-97489850D01*
X85628639Y-97496499D01*
X85628640Y-97496500D01*
X85628644Y-97496500D01*
X88255360Y-97496500D01*
X88255360Y-97496499D01*
X88329594Y-97488135D01*
X88388601Y-97481487D01*
X88388602Y-97481486D01*
X88388606Y-97481486D01*
X88557543Y-97422373D01*
X88709090Y-97327149D01*
X88835649Y-97200590D01*
X88930873Y-97049043D01*
X88989986Y-96880106D01*
X89005000Y-96746856D01*
X89005000Y-95620500D01*
X89024685Y-95553461D01*
X89077489Y-95507706D01*
X89129000Y-95496500D01*
X91054324Y-95496500D01*
X91121363Y-95516185D01*
X91142005Y-95532819D01*
X94312681Y-98703494D01*
X94346166Y-98764817D01*
X94349000Y-98791175D01*
X94349000Y-100062710D01*
X94339563Y-100110159D01*
X94336516Y-100117513D01*
X94317758Y-100187520D01*
X94299000Y-100257525D01*
X94299000Y-100402475D01*
X94304001Y-100421137D01*
X94336517Y-100542488D01*
X94408988Y-100668011D01*
X94408990Y-100668013D01*
X94408991Y-100668015D01*
X94511485Y-100770509D01*
X94511486Y-100770510D01*
X94511488Y-100770511D01*
X94637011Y-100842982D01*
X94637012Y-100842982D01*
X94637015Y-100842984D01*
X94777025Y-100880500D01*
X94852956Y-100880500D01*
X94882396Y-100889144D01*
X94912383Y-100895668D01*
X94917398Y-100899422D01*
X94919995Y-100900185D01*
X94940637Y-100916819D01*
X94970681Y-100946863D01*
X95004166Y-101008186D01*
X95007000Y-101034544D01*
X95007000Y-104948145D01*
X95021572Y-105002530D01*
X95030884Y-105037283D01*
X95030887Y-105037290D01*
X95077027Y-105117208D01*
X95077031Y-105117213D01*
X95458031Y-105498212D01*
X95460710Y-105500891D01*
X95494195Y-105562214D01*
X95489211Y-105631906D01*
X95460710Y-105676253D01*
X95402858Y-105734105D01*
X95341535Y-105767590D01*
X95271843Y-105762606D01*
X95253177Y-105753811D01*
X95169689Y-105705609D01*
X95169686Y-105705608D01*
X95042392Y-105671500D01*
X94910608Y-105671500D01*
X94783312Y-105705608D01*
X94669186Y-105771500D01*
X94669183Y-105771502D01*
X94576002Y-105864683D01*
X94576000Y-105864686D01*
X94510108Y-105978812D01*
X94476000Y-106106108D01*
X94476000Y-106237891D01*
X94510108Y-106365187D01*
X94542910Y-106422000D01*
X94576000Y-106479314D01*
X94669186Y-106572500D01*
X94783314Y-106638392D01*
X94910608Y-106672500D01*
X94910610Y-106672500D01*
X95042390Y-106672500D01*
X95042392Y-106672500D01*
X95169686Y-106638392D01*
X95253178Y-106590187D01*
X95321076Y-106573715D01*
X95387103Y-106596567D01*
X95402858Y-106609894D01*
X95461200Y-106668236D01*
X95461204Y-106668239D01*
X95461206Y-106668241D01*
X95577067Y-106727275D01*
X95577069Y-106727275D01*
X95577071Y-106727276D01*
X95606228Y-106731893D01*
X95673193Y-106742500D01*
X96132806Y-106742499D01*
X96132811Y-106742499D01*
X96132811Y-106742498D01*
X96228933Y-106727275D01*
X96237072Y-106723128D01*
X96305742Y-106710231D01*
X96370482Y-106736507D01*
X96381049Y-106745930D01*
X96490480Y-106855360D01*
X96627636Y-106938273D01*
X96627640Y-106938275D01*
X96780657Y-106985956D01*
X96780656Y-106985956D01*
X96847163Y-106992000D01*
X96848000Y-106992000D01*
X97348000Y-106992000D01*
X97350000Y-106992000D01*
X97417039Y-107011685D01*
X97462794Y-107064489D01*
X97474000Y-107116000D01*
X97474000Y-107260475D01*
X97511516Y-107400485D01*
X97511517Y-107400488D01*
X97583988Y-107526011D01*
X97583993Y-107526017D01*
X97666295Y-107608319D01*
X97699780Y-107669642D01*
X97694796Y-107739334D01*
X97666295Y-107783681D01*
X97583993Y-107865982D01*
X97583988Y-107865988D01*
X97511517Y-107991511D01*
X97511516Y-107991515D01*
X97474000Y-108131525D01*
X97474000Y-108276475D01*
X97487620Y-108327304D01*
X97511517Y-108416488D01*
X97583988Y-108542011D01*
X97583990Y-108542013D01*
X97583991Y-108542015D01*
X97686485Y-108644509D01*
X97686486Y-108644510D01*
X97686488Y-108644511D01*
X97812011Y-108716982D01*
X97812012Y-108716982D01*
X97812015Y-108716984D01*
X97952025Y-108754500D01*
X97952028Y-108754500D01*
X98096972Y-108754500D01*
X98096975Y-108754500D01*
X98236985Y-108716984D01*
X98362515Y-108644509D01*
X98465009Y-108542015D01*
X98501533Y-108478753D01*
X101139000Y-108478753D01*
X101139000Y-108691246D01*
X101172242Y-108901127D01*
X101172242Y-108901130D01*
X101237904Y-109103217D01*
X101334375Y-109292550D01*
X101373728Y-109346716D01*
X102006037Y-108714408D01*
X102023075Y-108777993D01*
X102088901Y-108892007D01*
X102181993Y-108985099D01*
X102296007Y-109050925D01*
X102359590Y-109067962D01*
X101727282Y-109700269D01*
X101727282Y-109700270D01*
X101781449Y-109739624D01*
X101970782Y-109836095D01*
X102172870Y-109901757D01*
X102382754Y-109935000D01*
X102595246Y-109935000D01*
X102805127Y-109901757D01*
X102805130Y-109901757D01*
X103007217Y-109836095D01*
X103196554Y-109739622D01*
X103250716Y-109700270D01*
X103250717Y-109700270D01*
X102618408Y-109067962D01*
X102681993Y-109050925D01*
X102796007Y-108985099D01*
X102889099Y-108892007D01*
X102954925Y-108777993D01*
X102971962Y-108714408D01*
X103604270Y-109346717D01*
X103604270Y-109346716D01*
X103643622Y-109292554D01*
X103740096Y-109103215D01*
X103772239Y-109004288D01*
X103811676Y-108946612D01*
X103876034Y-108919413D01*
X103944880Y-108931327D01*
X103996357Y-108978571D01*
X104008100Y-109004284D01*
X104009127Y-109007446D01*
X104031281Y-109050925D01*
X104087768Y-109161788D01*
X104189586Y-109301928D01*
X104312072Y-109424414D01*
X104452212Y-109526232D01*
X104606555Y-109604873D01*
X104771299Y-109658402D01*
X104942389Y-109685500D01*
X104942390Y-109685500D01*
X105115610Y-109685500D01*
X105115611Y-109685500D01*
X105286701Y-109658402D01*
X105451445Y-109604873D01*
X105605788Y-109526232D01*
X105745928Y-109424414D01*
X105868414Y-109301928D01*
X105970232Y-109161788D01*
X106048873Y-109007445D01*
X106102402Y-108842701D01*
X106129500Y-108671611D01*
X106129500Y-108498389D01*
X106102402Y-108327299D01*
X106048873Y-108162555D01*
X106048869Y-108162549D01*
X106047401Y-108158028D01*
X106045406Y-108088186D01*
X106077649Y-108032030D01*
X106706469Y-107403212D01*
X106752614Y-107323288D01*
X106776500Y-107234144D01*
X106776500Y-104031743D01*
X106796185Y-103964704D01*
X106812819Y-103944062D01*
X107006819Y-103750062D01*
X107068142Y-103716577D01*
X107137834Y-103721561D01*
X107193767Y-103763433D01*
X107218184Y-103828897D01*
X107218500Y-103837743D01*
X107218500Y-107452481D01*
X107198815Y-107519520D01*
X107150795Y-107562966D01*
X106992211Y-107643768D01*
X106934575Y-107685644D01*
X106852072Y-107745586D01*
X106852070Y-107745588D01*
X106852069Y-107745588D01*
X106729588Y-107868069D01*
X106729588Y-107868070D01*
X106729586Y-107868072D01*
X106697591Y-107912109D01*
X106627768Y-108008211D01*
X106549128Y-108162552D01*
X106495597Y-108327302D01*
X106468500Y-108498389D01*
X106468500Y-108671610D01*
X106489266Y-108802727D01*
X106495598Y-108842701D01*
X106548101Y-109004288D01*
X106549128Y-109007447D01*
X106560742Y-109030240D01*
X106627768Y-109161788D01*
X106729586Y-109301928D01*
X106852072Y-109424414D01*
X106992212Y-109526232D01*
X107146555Y-109604873D01*
X107311299Y-109658402D01*
X107482389Y-109685500D01*
X107482390Y-109685500D01*
X107655610Y-109685500D01*
X107655611Y-109685500D01*
X107826701Y-109658402D01*
X107991445Y-109604873D01*
X108145788Y-109526232D01*
X108285928Y-109424414D01*
X108408414Y-109301928D01*
X108510232Y-109161788D01*
X108588873Y-109007445D01*
X108642402Y-108842701D01*
X108669500Y-108671611D01*
X108669500Y-108498389D01*
X108642402Y-108327299D01*
X108588873Y-108162555D01*
X108510232Y-108008212D01*
X108408414Y-107868072D01*
X108285928Y-107745586D01*
X108237390Y-107710321D01*
X109008500Y-107710321D01*
X109008500Y-109459678D01*
X109023032Y-109532735D01*
X109023033Y-109532739D01*
X109023034Y-109532740D01*
X109078399Y-109615601D01*
X109148757Y-109662612D01*
X109161260Y-109670966D01*
X109161264Y-109670967D01*
X109234321Y-109685499D01*
X109234324Y-109685500D01*
X109234326Y-109685500D01*
X110983676Y-109685500D01*
X110983677Y-109685499D01*
X111056740Y-109670966D01*
X111139601Y-109615601D01*
X111194966Y-109532740D01*
X111209500Y-109459674D01*
X111209500Y-108573258D01*
X113497500Y-108573258D01*
X113497500Y-108802741D01*
X113510454Y-108901130D01*
X113527452Y-109030238D01*
X113586842Y-109251887D01*
X113674650Y-109463876D01*
X113674656Y-109463888D01*
X113756053Y-109604873D01*
X113789392Y-109662617D01*
X113929081Y-109844661D01*
X113929089Y-109844670D01*
X114091330Y-110006911D01*
X114091338Y-110006918D01*
X114273382Y-110146607D01*
X114273385Y-110146608D01*
X114273388Y-110146611D01*
X114472112Y-110261344D01*
X114472117Y-110261346D01*
X114472123Y-110261349D01*
X114563480Y-110299190D01*
X114684113Y-110349158D01*
X114905762Y-110408548D01*
X115133266Y-110438500D01*
X115133273Y-110438500D01*
X115362727Y-110438500D01*
X115362734Y-110438500D01*
X115590238Y-110408548D01*
X115811887Y-110349158D01*
X116023888Y-110261344D01*
X116222612Y-110146611D01*
X116404661Y-110006919D01*
X116404665Y-110006914D01*
X116404670Y-110006911D01*
X116566911Y-109844670D01*
X116566914Y-109844665D01*
X116566919Y-109844661D01*
X116706611Y-109662612D01*
X116821344Y-109463888D01*
X116909158Y-109251887D01*
X116968548Y-109030238D01*
X116998500Y-108802734D01*
X116998500Y-108573266D01*
X116968548Y-108345762D01*
X116909158Y-108124113D01*
X116821344Y-107912112D01*
X116706611Y-107713388D01*
X116706608Y-107713385D01*
X116706607Y-107713382D01*
X116566918Y-107531338D01*
X116566911Y-107531330D01*
X116404670Y-107369089D01*
X116404661Y-107369081D01*
X116222617Y-107229392D01*
X116023890Y-107114657D01*
X116023876Y-107114650D01*
X115811887Y-107026842D01*
X115590238Y-106967452D01*
X115552215Y-106962446D01*
X115362741Y-106937500D01*
X115362734Y-106937500D01*
X115133266Y-106937500D01*
X115133258Y-106937500D01*
X114916715Y-106966009D01*
X114905762Y-106967452D01*
X114816177Y-106991456D01*
X114684112Y-107026842D01*
X114472123Y-107114650D01*
X114472109Y-107114657D01*
X114273382Y-107229392D01*
X114091338Y-107369081D01*
X113929081Y-107531338D01*
X113789392Y-107713382D01*
X113674657Y-107912109D01*
X113674650Y-107912123D01*
X113586842Y-108124112D01*
X113527453Y-108345759D01*
X113527451Y-108345770D01*
X113497500Y-108573258D01*
X111209500Y-108573258D01*
X111209500Y-107710326D01*
X111209500Y-107710323D01*
X111209499Y-107710321D01*
X111194967Y-107637264D01*
X111194966Y-107637260D01*
X111189119Y-107628509D01*
X111139601Y-107554399D01*
X111056740Y-107499034D01*
X111056739Y-107499033D01*
X111056735Y-107499032D01*
X110983677Y-107484500D01*
X110983674Y-107484500D01*
X109234326Y-107484500D01*
X109234323Y-107484500D01*
X109161264Y-107499032D01*
X109161260Y-107499033D01*
X109078399Y-107554399D01*
X109023033Y-107637260D01*
X109023032Y-107637264D01*
X109008500Y-107710321D01*
X108237390Y-107710321D01*
X108145788Y-107643768D01*
X108058848Y-107599470D01*
X107987205Y-107562966D01*
X107936409Y-107514991D01*
X107919500Y-107452481D01*
X107919500Y-103701544D01*
X107939185Y-103634505D01*
X107955819Y-103613863D01*
X108741197Y-102828485D01*
X109627470Y-101942212D01*
X109673614Y-101862288D01*
X109697500Y-101773143D01*
X109697500Y-101680856D01*
X109697500Y-96753520D01*
X118009501Y-96753520D01*
X118024602Y-96906862D01*
X118084285Y-97103609D01*
X118181201Y-97284926D01*
X118181205Y-97284932D01*
X118311635Y-97443864D01*
X118470567Y-97574294D01*
X118470573Y-97574298D01*
X118651890Y-97671214D01*
X118848636Y-97730897D01*
X119001978Y-97745999D01*
X120071999Y-97745999D01*
X120072000Y-97745998D01*
X120072000Y-95246000D01*
X118009501Y-95246000D01*
X118009501Y-96753520D01*
X109697500Y-96753520D01*
X109697500Y-94796525D01*
X114765500Y-94796525D01*
X114765500Y-94941475D01*
X114803016Y-95081485D01*
X114803017Y-95081488D01*
X114875488Y-95207011D01*
X114875490Y-95207013D01*
X114875491Y-95207015D01*
X114977985Y-95309509D01*
X114977986Y-95309510D01*
X114977988Y-95309511D01*
X115103511Y-95381982D01*
X115103512Y-95381982D01*
X115103515Y-95381984D01*
X115243525Y-95419500D01*
X115243528Y-95419500D01*
X115388472Y-95419500D01*
X115388475Y-95419500D01*
X115528485Y-95381984D01*
X115654015Y-95309509D01*
X115756509Y-95207015D01*
X115828984Y-95081485D01*
X115866500Y-94941475D01*
X115866500Y-94796525D01*
X115828984Y-94656515D01*
X115756509Y-94530985D01*
X115654015Y-94428491D01*
X115654013Y-94428490D01*
X115654011Y-94428488D01*
X115528488Y-94356017D01*
X115528489Y-94356017D01*
X115517006Y-94352940D01*
X115388475Y-94318500D01*
X115243525Y-94318500D01*
X115114993Y-94352940D01*
X115103511Y-94356017D01*
X114977988Y-94428488D01*
X114977982Y-94428493D01*
X114875493Y-94530982D01*
X114875488Y-94530988D01*
X114803017Y-94656511D01*
X114803016Y-94656515D01*
X114765500Y-94796525D01*
X109697500Y-94796525D01*
X109697500Y-93439944D01*
X109706144Y-93410503D01*
X109712668Y-93380517D01*
X109716422Y-93375501D01*
X109717185Y-93372905D01*
X109733819Y-93352263D01*
X109828263Y-93257819D01*
X109889586Y-93224334D01*
X109915944Y-93221500D01*
X109971690Y-93221500D01*
X109971692Y-93221500D01*
X110098986Y-93187392D01*
X110213114Y-93121500D01*
X110306300Y-93028314D01*
X110372192Y-92914186D01*
X110406300Y-92786892D01*
X110406300Y-92655108D01*
X110372192Y-92527814D01*
X110306300Y-92413686D01*
X110213114Y-92320500D01*
X110098986Y-92254608D01*
X109990205Y-92225460D01*
X109930546Y-92189096D01*
X109900017Y-92126249D01*
X109898300Y-92105686D01*
X109898300Y-92005110D01*
X109898300Y-92005108D01*
X109864192Y-91877814D01*
X109798300Y-91763686D01*
X109705114Y-91670500D01*
X109648050Y-91637554D01*
X109590987Y-91604608D01*
X109523394Y-91586497D01*
X109463692Y-91570500D01*
X109331908Y-91570500D01*
X109204612Y-91604608D01*
X109090486Y-91670500D01*
X109090483Y-91670502D01*
X108997302Y-91763683D01*
X108997300Y-91763686D01*
X108931409Y-91877812D01*
X108897148Y-92005676D01*
X108865054Y-92061263D01*
X108583929Y-92342388D01*
X108555588Y-92391479D01*
X108555586Y-92391482D01*
X108537786Y-92422309D01*
X108513900Y-92511456D01*
X108513900Y-101200256D01*
X108494215Y-101267295D01*
X108477581Y-101287937D01*
X106145531Y-103619986D01*
X106145525Y-103619994D01*
X106108153Y-103684726D01*
X106108153Y-103684727D01*
X106099387Y-103699909D01*
X106099386Y-103699912D01*
X106075500Y-103789056D01*
X106075500Y-106991456D01*
X106055815Y-107058495D01*
X106039181Y-107079137D01*
X105581970Y-107536347D01*
X105520647Y-107569832D01*
X105455971Y-107566597D01*
X105286698Y-107511597D01*
X105155271Y-107490781D01*
X105115611Y-107484500D01*
X104942389Y-107484500D01*
X104902728Y-107490781D01*
X104771302Y-107511597D01*
X104606552Y-107565128D01*
X104452211Y-107643768D01*
X104394575Y-107685644D01*
X104312072Y-107745586D01*
X104312070Y-107745588D01*
X104312069Y-107745588D01*
X104189588Y-107868069D01*
X104189588Y-107868070D01*
X104189586Y-107868072D01*
X104157591Y-107912109D01*
X104087768Y-108008211D01*
X104009128Y-108162550D01*
X104008099Y-108165720D01*
X104007381Y-108166769D01*
X104007266Y-108167048D01*
X104007207Y-108167023D01*
X103968657Y-108223393D01*
X103904297Y-108250587D01*
X103835451Y-108238668D01*
X103783979Y-108191420D01*
X103772239Y-108165711D01*
X103740096Y-108066784D01*
X103643624Y-107877449D01*
X103604270Y-107823282D01*
X103604269Y-107823282D01*
X102971962Y-108455590D01*
X102954925Y-108392007D01*
X102889099Y-108277993D01*
X102796007Y-108184901D01*
X102681993Y-108119075D01*
X102618409Y-108102037D01*
X103250716Y-107469728D01*
X103196550Y-107430375D01*
X103007217Y-107333904D01*
X102805129Y-107268242D01*
X102595246Y-107235000D01*
X102382754Y-107235000D01*
X102172872Y-107268242D01*
X102172869Y-107268242D01*
X101970782Y-107333904D01*
X101781439Y-107430380D01*
X101727282Y-107469727D01*
X101727282Y-107469728D01*
X102359591Y-108102037D01*
X102296007Y-108119075D01*
X102181993Y-108184901D01*
X102088901Y-108277993D01*
X102023075Y-108392007D01*
X102006037Y-108455591D01*
X101373728Y-107823282D01*
X101373727Y-107823282D01*
X101334380Y-107877439D01*
X101237904Y-108066782D01*
X101172242Y-108268869D01*
X101172242Y-108268872D01*
X101139000Y-108478753D01*
X98501533Y-108478753D01*
X98537484Y-108416485D01*
X98575000Y-108276475D01*
X98575000Y-108131525D01*
X98537484Y-107991515D01*
X98465009Y-107865985D01*
X98382705Y-107783681D01*
X98381734Y-107781903D01*
X98379988Y-107780877D01*
X98365061Y-107751368D01*
X98349220Y-107722358D01*
X98349364Y-107720338D01*
X98348450Y-107718531D01*
X98351845Y-107685644D01*
X98354204Y-107652666D01*
X98355483Y-107650407D01*
X98355626Y-107649030D01*
X98359936Y-107642549D01*
X98373507Y-107618601D01*
X98377813Y-107613210D01*
X98465009Y-107526015D01*
X98537484Y-107400485D01*
X98575000Y-107260475D01*
X98575000Y-107115525D01*
X98537484Y-106975515D01*
X98532829Y-106967453D01*
X98465011Y-106849988D01*
X98465006Y-106849982D01*
X98362517Y-106747493D01*
X98362511Y-106747488D01*
X98236988Y-106675017D01*
X98236989Y-106675017D01*
X98225506Y-106671940D01*
X98096975Y-106637500D01*
X98060124Y-106637500D01*
X97993085Y-106617815D01*
X97947330Y-106565011D01*
X97937386Y-106495853D01*
X97941739Y-106476608D01*
X97949456Y-106451841D01*
X97952169Y-106422000D01*
X97348000Y-106422000D01*
X97348000Y-106992000D01*
X96848000Y-106992000D01*
X96848000Y-106296000D01*
X96867685Y-106228961D01*
X96920489Y-106183206D01*
X96972000Y-106172000D01*
X97098000Y-106172000D01*
X97098000Y-106046000D01*
X97117685Y-105978961D01*
X97170489Y-105933206D01*
X97222000Y-105922000D01*
X97952168Y-105922000D01*
X97949457Y-105892160D01*
X97918991Y-105794390D01*
X97917841Y-105724530D01*
X97954642Y-105665137D01*
X98017711Y-105635069D01*
X98037377Y-105633500D01*
X98758824Y-105633500D01*
X98825863Y-105653185D01*
X98846505Y-105669819D01*
X98860186Y-105683500D01*
X98974314Y-105749392D01*
X99101608Y-105783500D01*
X99101610Y-105783500D01*
X99233390Y-105783500D01*
X99233392Y-105783500D01*
X99360686Y-105749392D01*
X99474814Y-105683500D01*
X99568000Y-105590314D01*
X99633892Y-105476186D01*
X99668000Y-105348892D01*
X99668000Y-105217108D01*
X99633892Y-105089814D01*
X99568000Y-104975686D01*
X99474814Y-104882500D01*
X99417750Y-104849554D01*
X99360687Y-104816608D01*
X99273090Y-104793137D01*
X99233392Y-104782500D01*
X99101608Y-104782500D01*
X98974312Y-104816608D01*
X98860186Y-104882500D01*
X98860183Y-104882502D01*
X98846505Y-104896181D01*
X98785182Y-104929666D01*
X98758824Y-104932500D01*
X95935043Y-104932500D01*
X95905603Y-104923855D01*
X95875616Y-104917332D01*
X95870600Y-104913577D01*
X95868004Y-104912815D01*
X95847367Y-104896186D01*
X95744317Y-104793135D01*
X95710834Y-104731814D01*
X95708000Y-104705456D01*
X95708000Y-102543525D01*
X101732500Y-102543525D01*
X101732500Y-102688475D01*
X101770016Y-102828485D01*
X101770017Y-102828488D01*
X101842488Y-102954011D01*
X101842493Y-102954017D01*
X101924795Y-103036319D01*
X101958280Y-103097642D01*
X101953296Y-103167334D01*
X101924795Y-103211681D01*
X101842493Y-103293982D01*
X101842488Y-103293988D01*
X101770017Y-103419511D01*
X101770016Y-103419515D01*
X101732500Y-103559525D01*
X101732500Y-103704475D01*
X101770016Y-103844485D01*
X101770017Y-103844488D01*
X101842488Y-103970011D01*
X101842493Y-103970017D01*
X101924795Y-104052319D01*
X101958280Y-104113642D01*
X101953296Y-104183334D01*
X101924795Y-104227681D01*
X101842493Y-104309982D01*
X101842488Y-104309988D01*
X101770017Y-104435511D01*
X101770016Y-104435515D01*
X101732500Y-104575525D01*
X101732500Y-104720475D01*
X101749120Y-104782500D01*
X101770017Y-104860488D01*
X101842488Y-104986011D01*
X101842490Y-104986013D01*
X101842491Y-104986015D01*
X101944985Y-105088509D01*
X101944986Y-105088510D01*
X101944988Y-105088511D01*
X102070511Y-105160982D01*
X102070512Y-105160982D01*
X102070515Y-105160984D01*
X102210525Y-105198500D01*
X102210528Y-105198500D01*
X102355472Y-105198500D01*
X102355475Y-105198500D01*
X102495485Y-105160984D01*
X102621015Y-105088509D01*
X102723509Y-104986015D01*
X102795984Y-104860485D01*
X102833500Y-104720475D01*
X102833500Y-104575525D01*
X102795984Y-104435515D01*
X102723509Y-104309985D01*
X102641205Y-104227681D01*
X102607720Y-104166358D01*
X102612704Y-104096666D01*
X102641205Y-104052319D01*
X102661781Y-104031743D01*
X102723509Y-103970015D01*
X102795984Y-103844485D01*
X102833500Y-103704475D01*
X102833500Y-103559525D01*
X102795984Y-103419515D01*
X102723509Y-103293985D01*
X102641205Y-103211681D01*
X102607720Y-103150358D01*
X102612704Y-103080666D01*
X102641205Y-103036319D01*
X102723509Y-102954015D01*
X102795984Y-102828485D01*
X102833500Y-102688475D01*
X102833500Y-102543525D01*
X102795984Y-102403515D01*
X102723509Y-102277985D01*
X102621015Y-102175491D01*
X102621013Y-102175490D01*
X102621011Y-102175488D01*
X102495488Y-102103017D01*
X102495489Y-102103017D01*
X102484006Y-102099940D01*
X102355475Y-102065500D01*
X102210525Y-102065500D01*
X102081993Y-102099940D01*
X102070511Y-102103017D01*
X101944988Y-102175488D01*
X101944982Y-102175493D01*
X101842493Y-102277982D01*
X101842488Y-102277988D01*
X101770017Y-102403511D01*
X101770016Y-102403515D01*
X101732500Y-102543525D01*
X95708000Y-102543525D01*
X95708000Y-100791858D01*
X95708000Y-100791856D01*
X95684114Y-100702712D01*
X95637969Y-100622787D01*
X95436319Y-100421137D01*
X95402834Y-100359814D01*
X95400000Y-100333456D01*
X95400000Y-100257527D01*
X95400000Y-100257525D01*
X95362484Y-100117515D01*
X95362483Y-100117513D01*
X95359437Y-100110159D01*
X95350000Y-100062710D01*
X95350000Y-98466610D01*
X95350000Y-98466608D01*
X95315892Y-98339314D01*
X95250000Y-98225186D01*
X95156814Y-98132000D01*
X95156813Y-98131999D01*
X95152483Y-98127669D01*
X95152472Y-98127659D01*
X94567892Y-97543079D01*
X94488338Y-97463525D01*
X103141000Y-97463525D01*
X103141000Y-97608475D01*
X103177850Y-97745998D01*
X103178517Y-97748488D01*
X103250988Y-97874011D01*
X103250990Y-97874013D01*
X103250991Y-97874015D01*
X103353485Y-97976509D01*
X103353486Y-97976510D01*
X103353488Y-97976511D01*
X103479011Y-98048982D01*
X103479012Y-98048982D01*
X103479015Y-98048984D01*
X103619025Y-98086500D01*
X103619028Y-98086500D01*
X103763972Y-98086500D01*
X103763975Y-98086500D01*
X103903985Y-98048984D01*
X104029515Y-97976509D01*
X104132009Y-97874015D01*
X104204484Y-97748485D01*
X104242000Y-97608475D01*
X104242000Y-97463525D01*
X104204484Y-97323515D01*
X104133512Y-97200589D01*
X104132011Y-97197988D01*
X104132006Y-97197982D01*
X104029517Y-97095493D01*
X104029511Y-97095488D01*
X103903988Y-97023017D01*
X103903989Y-97023017D01*
X103892506Y-97019940D01*
X103763975Y-96985500D01*
X103619025Y-96985500D01*
X103490493Y-97019940D01*
X103479011Y-97023017D01*
X103353488Y-97095488D01*
X103353482Y-97095493D01*
X103250993Y-97197982D01*
X103250988Y-97197988D01*
X103178517Y-97323511D01*
X103178516Y-97323515D01*
X103141000Y-97463525D01*
X94488338Y-97463525D01*
X91620316Y-94595502D01*
X91620315Y-94595501D01*
X91620314Y-94595500D01*
X91563250Y-94562554D01*
X91506187Y-94529608D01*
X91442539Y-94512554D01*
X91378892Y-94495500D01*
X91378891Y-94495500D01*
X89129000Y-94495500D01*
X89061961Y-94475815D01*
X89016206Y-94423011D01*
X89005000Y-94371500D01*
X89005000Y-93245140D01*
X89004999Y-93245139D01*
X89004923Y-93244468D01*
X88997264Y-93176485D01*
X88989987Y-93111898D01*
X88989986Y-93111895D01*
X88930872Y-92942955D01*
X88835649Y-92791410D01*
X88709089Y-92664850D01*
X88557544Y-92569627D01*
X88388604Y-92510513D01*
X88388601Y-92510512D01*
X88255360Y-92495500D01*
X88255356Y-92495500D01*
X85628644Y-92495500D01*
X85628640Y-92495500D01*
X85495398Y-92510512D01*
X85495395Y-92510513D01*
X85326455Y-92569627D01*
X85174910Y-92664850D01*
X85043427Y-92796334D01*
X85042211Y-92795118D01*
X84992240Y-92830182D01*
X84922428Y-92833020D01*
X84862163Y-92797665D01*
X84830580Y-92735341D01*
X84828500Y-92712722D01*
X84828500Y-84773258D01*
X90197500Y-84773258D01*
X90197500Y-85002741D01*
X90219181Y-85167414D01*
X90227452Y-85230238D01*
X90280576Y-85428500D01*
X90286842Y-85451887D01*
X90374650Y-85663876D01*
X90374657Y-85663890D01*
X90489392Y-85862617D01*
X90629081Y-86044661D01*
X90629089Y-86044670D01*
X90791330Y-86206911D01*
X90791338Y-86206918D01*
X90973382Y-86346607D01*
X90973385Y-86346608D01*
X90973388Y-86346611D01*
X91172112Y-86461344D01*
X91172117Y-86461346D01*
X91172123Y-86461349D01*
X91263480Y-86499190D01*
X91384113Y-86549158D01*
X91605762Y-86608548D01*
X91833266Y-86638500D01*
X91833273Y-86638500D01*
X92062727Y-86638500D01*
X92062734Y-86638500D01*
X92290238Y-86608548D01*
X92511887Y-86549158D01*
X92723888Y-86461344D01*
X92922612Y-86346611D01*
X93104661Y-86206919D01*
X93104665Y-86206914D01*
X93104670Y-86206911D01*
X93266911Y-86044670D01*
X93266914Y-86044665D01*
X93266919Y-86044661D01*
X93406611Y-85862612D01*
X93521344Y-85663888D01*
X93609158Y-85451887D01*
X93668548Y-85230238D01*
X93698500Y-85002734D01*
X93698500Y-84773266D01*
X93668548Y-84545762D01*
X93609158Y-84324113D01*
X93559190Y-84203480D01*
X93521349Y-84112123D01*
X93521346Y-84112117D01*
X93521344Y-84112112D01*
X93406611Y-83913388D01*
X93406608Y-83913385D01*
X93406607Y-83913382D01*
X93266918Y-83731338D01*
X93266911Y-83731330D01*
X93104670Y-83569089D01*
X93104661Y-83569081D01*
X92922617Y-83429392D01*
X92887080Y-83408875D01*
X92723888Y-83314656D01*
X92723876Y-83314650D01*
X92511887Y-83226842D01*
X92290238Y-83167452D01*
X92252215Y-83162446D01*
X92062741Y-83137500D01*
X92062734Y-83137500D01*
X91833266Y-83137500D01*
X91833258Y-83137500D01*
X91616715Y-83166009D01*
X91605762Y-83167452D01*
X91512076Y-83192554D01*
X91384112Y-83226842D01*
X91172123Y-83314650D01*
X91172109Y-83314657D01*
X90973382Y-83429392D01*
X90791338Y-83569081D01*
X90629081Y-83731338D01*
X90489392Y-83913382D01*
X90374657Y-84112109D01*
X90374650Y-84112123D01*
X90286842Y-84324112D01*
X90227453Y-84545759D01*
X90227451Y-84545770D01*
X90197500Y-84773258D01*
X84828500Y-84773258D01*
X84828500Y-81997869D01*
X84848185Y-81930830D01*
X84900989Y-81885075D01*
X84970147Y-81875131D01*
X85033703Y-81904156D01*
X85055599Y-81928974D01*
X85077399Y-81961601D01*
X85158910Y-82016064D01*
X85160260Y-82016966D01*
X85160264Y-82016967D01*
X85233321Y-82031499D01*
X85233324Y-82031500D01*
X85233326Y-82031500D01*
X86482676Y-82031500D01*
X86482677Y-82031499D01*
X86555740Y-82016966D01*
X86638601Y-81961601D01*
X86693966Y-81878740D01*
X86708500Y-81805674D01*
X86708500Y-80856326D01*
X86708500Y-80856323D01*
X86708499Y-80856321D01*
X92107500Y-80856321D01*
X92107500Y-81805678D01*
X92122032Y-81878735D01*
X92122033Y-81878739D01*
X92122034Y-81878740D01*
X92177399Y-81961601D01*
X92258910Y-82016064D01*
X92260260Y-82016966D01*
X92260264Y-82016967D01*
X92333321Y-82031499D01*
X92333324Y-82031500D01*
X92333326Y-82031500D01*
X93582676Y-82031500D01*
X93582677Y-82031499D01*
X93655740Y-82016966D01*
X93738601Y-81961601D01*
X93793966Y-81878740D01*
X93808500Y-81805674D01*
X93808500Y-81800397D01*
X93813158Y-81784531D01*
X93812807Y-81768000D01*
X93822799Y-81751699D01*
X93828185Y-81733358D01*
X93840680Y-81722530D01*
X93849323Y-81708432D01*
X93866542Y-81700121D01*
X93880989Y-81687603D01*
X93897354Y-81685249D01*
X93912247Y-81678062D01*
X93931223Y-81680379D01*
X93950147Y-81677659D01*
X93965786Y-81684601D01*
X93981601Y-81686533D01*
X94003275Y-81701243D01*
X94011692Y-81704979D01*
X94016113Y-81708648D01*
X94083706Y-81776241D01*
X94119579Y-81794519D01*
X94130192Y-81803327D01*
X94142310Y-81821330D01*
X94158090Y-81836233D01*
X94161952Y-81850509D01*
X94169207Y-81861288D01*
X94169577Y-81878698D01*
X94175000Y-81898745D01*
X94175000Y-83649644D01*
X94196888Y-83731330D01*
X94196889Y-83731335D01*
X94198887Y-83738790D01*
X94198887Y-83738791D01*
X94245027Y-83818708D01*
X94245029Y-83818711D01*
X94245030Y-83818712D01*
X99643131Y-89216812D01*
X99708388Y-89282069D01*
X99708391Y-89282070D01*
X99708394Y-89282073D01*
X99788306Y-89328211D01*
X99788307Y-89328211D01*
X99788312Y-89328214D01*
X99877456Y-89352100D01*
X104807056Y-89352100D01*
X104874095Y-89371785D01*
X104894737Y-89388419D01*
X106293181Y-90786863D01*
X106326666Y-90848186D01*
X106329500Y-90874544D01*
X106329500Y-93500614D01*
X106309815Y-93567653D01*
X106293181Y-93588295D01*
X106239493Y-93641982D01*
X106239488Y-93641988D01*
X106167017Y-93767511D01*
X106167016Y-93767515D01*
X106129500Y-93907525D01*
X106129500Y-94052475D01*
X106166621Y-94191011D01*
X106167017Y-94192488D01*
X106239488Y-94318011D01*
X106239490Y-94318013D01*
X106239491Y-94318015D01*
X106341985Y-94420509D01*
X106341986Y-94420510D01*
X106341988Y-94420511D01*
X106467511Y-94492982D01*
X106467512Y-94492982D01*
X106467515Y-94492984D01*
X106607525Y-94530500D01*
X106607528Y-94530500D01*
X106752472Y-94530500D01*
X106752475Y-94530500D01*
X106892485Y-94492984D01*
X107018015Y-94420509D01*
X107120509Y-94318015D01*
X107192984Y-94192485D01*
X107230500Y-94052475D01*
X107230500Y-93907525D01*
X107192984Y-93767515D01*
X107120509Y-93641985D01*
X107066819Y-93588295D01*
X107033334Y-93526972D01*
X107030500Y-93500614D01*
X107030500Y-90631858D01*
X107030500Y-90631856D01*
X107006614Y-90542712D01*
X106960470Y-90462788D01*
X105218812Y-88721130D01*
X105218811Y-88721129D01*
X105218808Y-88721127D01*
X105138890Y-88674987D01*
X105138889Y-88674986D01*
X105138888Y-88674986D01*
X105049744Y-88651100D01*
X105049743Y-88651100D01*
X100120143Y-88651100D01*
X100053104Y-88631415D01*
X100032462Y-88614781D01*
X96032001Y-84614319D01*
X95095695Y-83678013D01*
X98438000Y-83678013D01*
X98438000Y-84078000D01*
X99354988Y-84078000D01*
X99322075Y-84135007D01*
X99288000Y-84262174D01*
X99288000Y-84393826D01*
X99322075Y-84520993D01*
X99354988Y-84578000D01*
X98438001Y-84578000D01*
X98438001Y-84977986D01*
X98448494Y-85080697D01*
X98503641Y-85247119D01*
X98503643Y-85247124D01*
X98595684Y-85396345D01*
X98719654Y-85520315D01*
X98868875Y-85612356D01*
X98868880Y-85612358D01*
X99035302Y-85667505D01*
X99035309Y-85667506D01*
X99138019Y-85677999D01*
X99537999Y-85677999D01*
X99538000Y-85677998D01*
X99538000Y-84761012D01*
X99595007Y-84793925D01*
X99722174Y-84828000D01*
X99853826Y-84828000D01*
X99980993Y-84793925D01*
X100038000Y-84761012D01*
X100038000Y-85677999D01*
X100437972Y-85677999D01*
X100437986Y-85677998D01*
X100540697Y-85667505D01*
X100707119Y-85612358D01*
X100707124Y-85612356D01*
X100856345Y-85520315D01*
X100980315Y-85396345D01*
X101072356Y-85247124D01*
X101072358Y-85247119D01*
X101127505Y-85080697D01*
X101127506Y-85080690D01*
X101137999Y-84977986D01*
X101137999Y-84933053D01*
X101157682Y-84866013D01*
X101210485Y-84820257D01*
X101279643Y-84810312D01*
X101343200Y-84839335D01*
X101372483Y-84876753D01*
X101374632Y-84880970D01*
X101386768Y-84904788D01*
X101488586Y-85044928D01*
X101611072Y-85167414D01*
X101751212Y-85269232D01*
X101905555Y-85347873D01*
X102070299Y-85401402D01*
X102241389Y-85428500D01*
X102241390Y-85428500D01*
X102414610Y-85428500D01*
X102414611Y-85428500D01*
X102585701Y-85401402D01*
X102750445Y-85347873D01*
X102904788Y-85269232D01*
X103044928Y-85167414D01*
X103167414Y-85044928D01*
X103269232Y-84904788D01*
X103347873Y-84750445D01*
X103401402Y-84585701D01*
X103428500Y-84414611D01*
X103428500Y-84241389D01*
X103767500Y-84241389D01*
X103767500Y-84414610D01*
X103788273Y-84545770D01*
X103794598Y-84585701D01*
X103848127Y-84750445D01*
X103926768Y-84904788D01*
X104028586Y-85044928D01*
X104151072Y-85167414D01*
X104291212Y-85269232D01*
X104445555Y-85347873D01*
X104610299Y-85401402D01*
X104781389Y-85428500D01*
X104781390Y-85428500D01*
X104954610Y-85428500D01*
X104954611Y-85428500D01*
X105125701Y-85401402D01*
X105290445Y-85347873D01*
X105290447Y-85347871D01*
X105294971Y-85346402D01*
X105364812Y-85344407D01*
X105420970Y-85376652D01*
X106420181Y-86375863D01*
X106453666Y-86437186D01*
X106456500Y-86463544D01*
X106456500Y-86787143D01*
X106480386Y-86876287D01*
X106480387Y-86876290D01*
X106526527Y-86956208D01*
X106526529Y-86956211D01*
X106526530Y-86956212D01*
X112814788Y-93244470D01*
X112814789Y-93244471D01*
X112814791Y-93244472D01*
X112815948Y-93245140D01*
X112884085Y-93284478D01*
X112884087Y-93284480D01*
X112891342Y-93288668D01*
X112894712Y-93290614D01*
X112983856Y-93314500D01*
X113253882Y-93314500D01*
X113320921Y-93334185D01*
X113366676Y-93386989D01*
X113376620Y-93456147D01*
X113354948Y-93507595D01*
X113355555Y-93507946D01*
X113352766Y-93512775D01*
X113352255Y-93513990D01*
X113351489Y-93514987D01*
X113279017Y-93640511D01*
X113279016Y-93640515D01*
X113241500Y-93780525D01*
X113241500Y-93925475D01*
X113275529Y-94052472D01*
X113279017Y-94065488D01*
X113351488Y-94191011D01*
X113351490Y-94191013D01*
X113351491Y-94191015D01*
X113453985Y-94293509D01*
X113453986Y-94293510D01*
X113453988Y-94293511D01*
X113579511Y-94365982D01*
X113579512Y-94365982D01*
X113579515Y-94365984D01*
X113719525Y-94403500D01*
X113719528Y-94403500D01*
X113864472Y-94403500D01*
X113864475Y-94403500D01*
X114004485Y-94365984D01*
X114130015Y-94293509D01*
X114232509Y-94191015D01*
X114304984Y-94065485D01*
X114342500Y-93925475D01*
X114342500Y-93780525D01*
X114304984Y-93640515D01*
X114232509Y-93514985D01*
X114232506Y-93514982D01*
X114231745Y-93513990D01*
X114231360Y-93512996D01*
X114228445Y-93507946D01*
X114229232Y-93507491D01*
X114206548Y-93448822D01*
X114220584Y-93380377D01*
X114269396Y-93330385D01*
X114330118Y-93314500D01*
X115725614Y-93314500D01*
X115792653Y-93334185D01*
X115813295Y-93350819D01*
X115866985Y-93404509D01*
X115866986Y-93404510D01*
X115866988Y-93404511D01*
X115992511Y-93476982D01*
X115992512Y-93476982D01*
X115992515Y-93476984D01*
X116132525Y-93514500D01*
X116132528Y-93514500D01*
X116277472Y-93514500D01*
X116277475Y-93514500D01*
X116417485Y-93476984D01*
X116543015Y-93404509D01*
X116645509Y-93302015D01*
X116682192Y-93238478D01*
X118009500Y-93238478D01*
X118009500Y-94746000D01*
X120072000Y-94746000D01*
X120072000Y-92246000D01*
X119001979Y-92246000D01*
X118848637Y-92261102D01*
X118651890Y-92320785D01*
X118470573Y-92417701D01*
X118470567Y-92417705D01*
X118311635Y-92548135D01*
X118181205Y-92707067D01*
X118181201Y-92707073D01*
X118084285Y-92888390D01*
X118024602Y-93085136D01*
X118009500Y-93238478D01*
X116682192Y-93238478D01*
X116717984Y-93176485D01*
X116755500Y-93036475D01*
X116755500Y-92891525D01*
X116717984Y-92751515D01*
X116692325Y-92707073D01*
X116645511Y-92625988D01*
X116645506Y-92625982D01*
X116543017Y-92523493D01*
X116543011Y-92523488D01*
X116417488Y-92451017D01*
X116417489Y-92451017D01*
X116367569Y-92437641D01*
X116277475Y-92413500D01*
X116132525Y-92413500D01*
X116042431Y-92437641D01*
X115992511Y-92451017D01*
X115866988Y-92523488D01*
X115866982Y-92523493D01*
X115813295Y-92577181D01*
X115751972Y-92610666D01*
X115725614Y-92613500D01*
X113226544Y-92613500D01*
X113159505Y-92593815D01*
X113138863Y-92577181D01*
X107193819Y-86632137D01*
X107160334Y-86570814D01*
X107157500Y-86544456D01*
X107157500Y-86220858D01*
X107157500Y-86220856D01*
X107133614Y-86131712D01*
X107119756Y-86107709D01*
X107087470Y-86051788D01*
X105916652Y-84880970D01*
X105883167Y-84819647D01*
X105886402Y-84754971D01*
X105887873Y-84750445D01*
X105941402Y-84585701D01*
X105968500Y-84414611D01*
X105968500Y-84241389D01*
X106307500Y-84241389D01*
X106307500Y-84414610D01*
X106328273Y-84545770D01*
X106334598Y-84585701D01*
X106388127Y-84750445D01*
X106466768Y-84904788D01*
X106568586Y-85044928D01*
X106691072Y-85167414D01*
X106831212Y-85269232D01*
X106985555Y-85347873D01*
X107150299Y-85401402D01*
X107321389Y-85428500D01*
X107321390Y-85428500D01*
X107494610Y-85428500D01*
X107494611Y-85428500D01*
X107665701Y-85401402D01*
X107830445Y-85347873D01*
X107984788Y-85269232D01*
X108124928Y-85167414D01*
X108247414Y-85044928D01*
X108349232Y-84904788D01*
X108427873Y-84750445D01*
X108481402Y-84585701D01*
X108508500Y-84414611D01*
X108508500Y-84241389D01*
X108481402Y-84070299D01*
X108427873Y-83905555D01*
X108349232Y-83751212D01*
X108247414Y-83611072D01*
X108124928Y-83488586D01*
X107984788Y-83386768D01*
X107830445Y-83308127D01*
X107665701Y-83254598D01*
X107665699Y-83254597D01*
X107665698Y-83254597D01*
X107534271Y-83233781D01*
X107494611Y-83227500D01*
X107321389Y-83227500D01*
X107281728Y-83233781D01*
X107150302Y-83254597D01*
X106985552Y-83308128D01*
X106831211Y-83386768D01*
X106772549Y-83429389D01*
X106691072Y-83488586D01*
X106691070Y-83488588D01*
X106691069Y-83488588D01*
X106568588Y-83611069D01*
X106568588Y-83611070D01*
X106568586Y-83611072D01*
X106540562Y-83649644D01*
X106466768Y-83751211D01*
X106388128Y-83905552D01*
X106334597Y-84070302D01*
X106307500Y-84241389D01*
X105968500Y-84241389D01*
X105941402Y-84070299D01*
X105887873Y-83905555D01*
X105809232Y-83751212D01*
X105707414Y-83611072D01*
X105584928Y-83488586D01*
X105444788Y-83386768D01*
X105290445Y-83308127D01*
X105125701Y-83254598D01*
X105125699Y-83254597D01*
X105125698Y-83254597D01*
X104994271Y-83233781D01*
X104954611Y-83227500D01*
X104781389Y-83227500D01*
X104741728Y-83233781D01*
X104610302Y-83254597D01*
X104445552Y-83308128D01*
X104291211Y-83386768D01*
X104232549Y-83429389D01*
X104151072Y-83488586D01*
X104151070Y-83488588D01*
X104151069Y-83488588D01*
X104028588Y-83611069D01*
X104028588Y-83611070D01*
X104028586Y-83611072D01*
X104000562Y-83649644D01*
X103926768Y-83751211D01*
X103848128Y-83905552D01*
X103794597Y-84070302D01*
X103767500Y-84241389D01*
X103428500Y-84241389D01*
X103401402Y-84070299D01*
X103347873Y-83905555D01*
X103269232Y-83751212D01*
X103167414Y-83611072D01*
X103044928Y-83488586D01*
X102904788Y-83386768D01*
X102750445Y-83308127D01*
X102585701Y-83254598D01*
X102585699Y-83254597D01*
X102585698Y-83254597D01*
X102454271Y-83233781D01*
X102414611Y-83227500D01*
X102241389Y-83227500D01*
X102201728Y-83233781D01*
X102070302Y-83254597D01*
X101905552Y-83308128D01*
X101751211Y-83386768D01*
X101692549Y-83429389D01*
X101611072Y-83488586D01*
X101611070Y-83488588D01*
X101611069Y-83488588D01*
X101488588Y-83611069D01*
X101488588Y-83611070D01*
X101488586Y-83611072D01*
X101460562Y-83649644D01*
X101386768Y-83751211D01*
X101372484Y-83779246D01*
X101324509Y-83830042D01*
X101256688Y-83846837D01*
X101190553Y-83824299D01*
X101147102Y-83769584D01*
X101137999Y-83722951D01*
X101137999Y-83678028D01*
X101137998Y-83678012D01*
X101127505Y-83575302D01*
X101072358Y-83408880D01*
X101072356Y-83408875D01*
X100980315Y-83259654D01*
X100856345Y-83135684D01*
X100707124Y-83043643D01*
X100707119Y-83043641D01*
X100540697Y-82988494D01*
X100540690Y-82988493D01*
X100437986Y-82978000D01*
X100038000Y-82978000D01*
X100038000Y-83894988D01*
X99980993Y-83862075D01*
X99853826Y-83828000D01*
X99722174Y-83828000D01*
X99595007Y-83862075D01*
X99538000Y-83894988D01*
X99538000Y-82978000D01*
X99138028Y-82978000D01*
X99138012Y-82978001D01*
X99035302Y-82988494D01*
X98868880Y-83043641D01*
X98868875Y-83043643D01*
X98719654Y-83135684D01*
X98595684Y-83259654D01*
X98503643Y-83408875D01*
X98503641Y-83408880D01*
X98448494Y-83575302D01*
X98448493Y-83575309D01*
X98438000Y-83678013D01*
X95095695Y-83678013D01*
X94912319Y-83494637D01*
X94878834Y-83433314D01*
X94876000Y-83406956D01*
X94876000Y-81898745D01*
X94895685Y-81831706D01*
X94920458Y-81803618D01*
X94931213Y-81794624D01*
X94967294Y-81776241D01*
X95039233Y-81704301D01*
X95043457Y-81700770D01*
X95070628Y-81688934D01*
X95096640Y-81674731D01*
X95102305Y-81675136D01*
X95107513Y-81672868D01*
X95136768Y-81677600D01*
X95166332Y-81679715D01*
X95171880Y-81683280D01*
X95176486Y-81684026D01*
X95185166Y-81691819D01*
X95210680Y-81708216D01*
X95278700Y-81776236D01*
X95278704Y-81776239D01*
X95278706Y-81776241D01*
X95394567Y-81835275D01*
X95394569Y-81835275D01*
X95394571Y-81835276D01*
X95423728Y-81839893D01*
X95490693Y-81850500D01*
X95950306Y-81850499D01*
X95950311Y-81850499D01*
X95950311Y-81850498D01*
X95998369Y-81842887D01*
X96046428Y-81835276D01*
X96046430Y-81835275D01*
X96046433Y-81835275D01*
X96094538Y-81810764D01*
X96127411Y-81794015D01*
X96183705Y-81780500D01*
X96712890Y-81780500D01*
X96712892Y-81780500D01*
X96840186Y-81746392D01*
X96954314Y-81680500D01*
X97047500Y-81587314D01*
X97113392Y-81473186D01*
X97147500Y-81345892D01*
X97147500Y-81214108D01*
X97113392Y-81086814D01*
X97047500Y-80972686D01*
X96954314Y-80879500D01*
X96897250Y-80846554D01*
X96840187Y-80813608D01*
X96776539Y-80796554D01*
X96712892Y-80779500D01*
X96712891Y-80779500D01*
X96183705Y-80779500D01*
X96127410Y-80765985D01*
X96123508Y-80763997D01*
X96046433Y-80724725D01*
X96046432Y-80724724D01*
X96046429Y-80724723D01*
X95950307Y-80709500D01*
X95490688Y-80709500D01*
X95490688Y-80709501D01*
X95394571Y-80724723D01*
X95394570Y-80724723D01*
X95278704Y-80783760D01*
X95278700Y-80783763D01*
X95210681Y-80851783D01*
X95207653Y-80853436D01*
X95205839Y-80856372D01*
X95177204Y-80870062D01*
X95149358Y-80885268D01*
X95145916Y-80885021D01*
X95142804Y-80886510D01*
X95111325Y-80882548D01*
X95079666Y-80880284D01*
X95075890Y-80878088D01*
X95073481Y-80877785D01*
X95062486Y-80870293D01*
X95043459Y-80859229D01*
X95039217Y-80855682D01*
X94967294Y-80783759D01*
X94931215Y-80765375D01*
X94920459Y-80756382D01*
X94908528Y-80738516D01*
X94892908Y-80723764D01*
X94888981Y-80709246D01*
X94881656Y-80698278D01*
X94881352Y-80681044D01*
X94876000Y-80661255D01*
X94876000Y-80546826D01*
X94895685Y-80479787D01*
X94912314Y-80459149D01*
X94975146Y-80396318D01*
X95033461Y-80281868D01*
X95036654Y-80261712D01*
X95048500Y-80186916D01*
X95048500Y-79698083D01*
X95036880Y-79624716D01*
X95045835Y-79555423D01*
X95071672Y-79517637D01*
X95164663Y-79424646D01*
X95164666Y-79424642D01*
X95248907Y-79282197D01*
X95248908Y-79282194D01*
X95295077Y-79123283D01*
X95295078Y-79123277D01*
X95297999Y-79086157D01*
X95298000Y-79086142D01*
X95298000Y-79057500D01*
X94612000Y-79057500D01*
X94544961Y-79037815D01*
X94499206Y-78985011D01*
X94488000Y-78933500D01*
X94488000Y-78807500D01*
X94362000Y-78807500D01*
X94294961Y-78787815D01*
X94249206Y-78735011D01*
X94238000Y-78683500D01*
X94238000Y-78557500D01*
X94738000Y-78557500D01*
X95298000Y-78557500D01*
X95298000Y-78528857D01*
X95297999Y-78528842D01*
X95295078Y-78491722D01*
X95295077Y-78491716D01*
X95248908Y-78332805D01*
X95248907Y-78332802D01*
X95164666Y-78190357D01*
X95164660Y-78190349D01*
X95047650Y-78073339D01*
X95047642Y-78073333D01*
X94905197Y-77989092D01*
X94905194Y-77989090D01*
X94746280Y-77942921D01*
X94746281Y-77942921D01*
X94738000Y-77942269D01*
X94738000Y-78557500D01*
X94238000Y-78557500D01*
X94238000Y-77977228D01*
X94142570Y-77945222D01*
X94115632Y-77926426D01*
X94088053Y-77908589D01*
X94087121Y-77906533D01*
X94085269Y-77905241D01*
X94072762Y-77874849D01*
X94059212Y-77844950D01*
X94058956Y-77841300D01*
X94058680Y-77840629D01*
X94058845Y-77839722D01*
X94058000Y-77827658D01*
X94058000Y-77683172D01*
X94057999Y-77683155D01*
X94051598Y-77623627D01*
X94051596Y-77623620D01*
X94001354Y-77488913D01*
X94001350Y-77488906D01*
X93915190Y-77373812D01*
X93915187Y-77373809D01*
X93800093Y-77287649D01*
X93800086Y-77287645D01*
X93665379Y-77237403D01*
X93665372Y-77237401D01*
X93605844Y-77231000D01*
X93208000Y-77231000D01*
X93208000Y-79131000D01*
X93590063Y-79131000D01*
X93657102Y-79150685D01*
X93701727Y-79201082D01*
X93804577Y-79414082D01*
X93809469Y-79443600D01*
X93816828Y-79472604D01*
X93815121Y-79477705D01*
X93816001Y-79483011D01*
X93804159Y-79510484D01*
X93794668Y-79538866D01*
X93790474Y-79542235D01*
X93788346Y-79547174D01*
X93763526Y-79563887D01*
X93740201Y-79582629D01*
X93733816Y-79583894D01*
X93730391Y-79586201D01*
X93721179Y-79586398D01*
X93692913Y-79592000D01*
X93366356Y-79592000D01*
X93277212Y-79615886D01*
X93277209Y-79615887D01*
X93197291Y-79662027D01*
X93197286Y-79662031D01*
X92677531Y-80181786D01*
X92677525Y-80181794D01*
X92635189Y-80255124D01*
X92635189Y-80255125D01*
X92631387Y-80261709D01*
X92631386Y-80261712D01*
X92607500Y-80350856D01*
X92607500Y-80506500D01*
X92587815Y-80573539D01*
X92535011Y-80619294D01*
X92483500Y-80630500D01*
X92333323Y-80630500D01*
X92260264Y-80645032D01*
X92260260Y-80645033D01*
X92177399Y-80700399D01*
X92122033Y-80783260D01*
X92122032Y-80783264D01*
X92107500Y-80856321D01*
X86708499Y-80856321D01*
X86693967Y-80783264D01*
X86693966Y-80783260D01*
X86691454Y-80779500D01*
X86638601Y-80700399D01*
X86555740Y-80645034D01*
X86555739Y-80645033D01*
X86555735Y-80645032D01*
X86482677Y-80630500D01*
X86482674Y-80630500D01*
X85233326Y-80630500D01*
X85233323Y-80630500D01*
X85160264Y-80645032D01*
X85160260Y-80645033D01*
X85077398Y-80700399D01*
X85055602Y-80733021D01*
X85001990Y-80777826D01*
X84932665Y-80786533D01*
X84869638Y-80756379D01*
X84832918Y-80696936D01*
X84828500Y-80664130D01*
X84828500Y-78847869D01*
X84848185Y-78780830D01*
X84900989Y-78735075D01*
X84970147Y-78725131D01*
X85033703Y-78754156D01*
X85055599Y-78778974D01*
X85077399Y-78811601D01*
X85131679Y-78847869D01*
X85160260Y-78866966D01*
X85160264Y-78866967D01*
X85233321Y-78881499D01*
X85233324Y-78881500D01*
X85233326Y-78881500D01*
X86482676Y-78881500D01*
X86482677Y-78881499D01*
X86555740Y-78866966D01*
X86638601Y-78811601D01*
X86693966Y-78728740D01*
X86703891Y-78678844D01*
X91858000Y-78678844D01*
X91864401Y-78738372D01*
X91864403Y-78738379D01*
X91914645Y-78873086D01*
X91914649Y-78873093D01*
X92000809Y-78988187D01*
X92000812Y-78988190D01*
X92115906Y-79074350D01*
X92115913Y-79074354D01*
X92250620Y-79124596D01*
X92250627Y-79124598D01*
X92310155Y-79130999D01*
X92310172Y-79131000D01*
X92708000Y-79131000D01*
X92708000Y-78431000D01*
X91858000Y-78431000D01*
X91858000Y-78678844D01*
X86703891Y-78678844D01*
X86708500Y-78655674D01*
X86708500Y-77706326D01*
X86708047Y-77704048D01*
X86708047Y-77704045D01*
X86708046Y-77704042D01*
X86703891Y-77683155D01*
X91858000Y-77683155D01*
X91858000Y-77931000D01*
X92708000Y-77931000D01*
X92708000Y-77231000D01*
X92310155Y-77231000D01*
X92250627Y-77237401D01*
X92250620Y-77237403D01*
X92115913Y-77287645D01*
X92115906Y-77287649D01*
X92000812Y-77373809D01*
X92000809Y-77373812D01*
X91914649Y-77488906D01*
X91914645Y-77488913D01*
X91864403Y-77623620D01*
X91864401Y-77623627D01*
X91858000Y-77683155D01*
X86703891Y-77683155D01*
X86693967Y-77633264D01*
X86693966Y-77633260D01*
X86690335Y-77627826D01*
X86638601Y-77550399D01*
X86555740Y-77495034D01*
X86555739Y-77495033D01*
X86555735Y-77495032D01*
X86482677Y-77480500D01*
X86482674Y-77480500D01*
X85233326Y-77480500D01*
X85233323Y-77480500D01*
X85160264Y-77495032D01*
X85160260Y-77495033D01*
X85077398Y-77550399D01*
X85055602Y-77583021D01*
X85001990Y-77627826D01*
X84932665Y-77636533D01*
X84869638Y-77606379D01*
X84832918Y-77546936D01*
X84828500Y-77514130D01*
X84828500Y-76824500D01*
X84848185Y-76757461D01*
X84900989Y-76711706D01*
X84952500Y-76700500D01*
X114562729Y-76700500D01*
X114629768Y-76720185D01*
G37*
%TD.AperFunction*%
%TA.AperFunction,Conductor*%
G36*
X117472495Y-77586185D02*
G01*
X117493137Y-77602819D01*
X117977181Y-78086863D01*
X118010666Y-78148186D01*
X118013500Y-78174544D01*
X118013500Y-80665128D01*
X117993815Y-80732167D01*
X117941011Y-80777922D01*
X117871853Y-80787866D01*
X117835698Y-80776848D01*
X117701044Y-80712002D01*
X117551635Y-80677900D01*
X117551629Y-80677900D01*
X117540628Y-80677900D01*
X117540369Y-80677831D01*
X117474353Y-80677900D01*
X117409107Y-80677900D01*
X117401760Y-80677900D01*
X117400590Y-80677976D01*
X116192962Y-80679239D01*
X116125902Y-80659624D01*
X116080092Y-80606868D01*
X116068832Y-80555201D01*
X116068843Y-80521441D01*
X116069688Y-77783894D01*
X116089393Y-77716861D01*
X116142211Y-77671123D01*
X116211373Y-77661201D01*
X116255690Y-77676547D01*
X116265811Y-77682391D01*
X116265813Y-77682391D01*
X116265814Y-77682392D01*
X116393108Y-77716500D01*
X116393110Y-77716500D01*
X116524890Y-77716500D01*
X116524892Y-77716500D01*
X116652186Y-77682392D01*
X116766314Y-77616500D01*
X116779995Y-77602819D01*
X116841318Y-77569334D01*
X116867676Y-77566500D01*
X117405456Y-77566500D01*
X117472495Y-77586185D01*
G37*
%TD.AperFunction*%
%TA.AperFunction,Conductor*%
G36*
X122378539Y-76720185D02*
G01*
X122424294Y-76772989D01*
X122435500Y-76824500D01*
X122435500Y-79774787D01*
X122415815Y-79841826D01*
X122363011Y-79887581D01*
X122293853Y-79897525D01*
X122249500Y-79882174D01*
X122132488Y-79814617D01*
X122132489Y-79814617D01*
X122121006Y-79811540D01*
X121992475Y-79777100D01*
X121847525Y-79777100D01*
X121718993Y-79811540D01*
X121707511Y-79814617D01*
X121581988Y-79887088D01*
X121581982Y-79887093D01*
X121479493Y-79989582D01*
X121479488Y-79989588D01*
X121407017Y-80115111D01*
X121407016Y-80115115D01*
X121369500Y-80255125D01*
X121369500Y-80400075D01*
X121382093Y-80447073D01*
X121402020Y-80521441D01*
X121400357Y-80591291D01*
X121361194Y-80649153D01*
X121296966Y-80676657D01*
X121282307Y-80677534D01*
X119268142Y-80678546D01*
X119252015Y-80677501D01*
X119223650Y-80673795D01*
X119223648Y-80673795D01*
X119223647Y-80673795D01*
X119198894Y-80675594D01*
X119085362Y-80683845D01*
X118951916Y-80721488D01*
X118895463Y-80750685D01*
X118826873Y-80763997D01*
X118761975Y-80738113D01*
X118721373Y-80681251D01*
X118714500Y-80640543D01*
X118714500Y-77931858D01*
X118714500Y-77931856D01*
X118690614Y-77842712D01*
X118644470Y-77762788D01*
X117817212Y-76935530D01*
X117817211Y-76935529D01*
X117810902Y-76931887D01*
X117762687Y-76881319D01*
X117749465Y-76812712D01*
X117775433Y-76747848D01*
X117832347Y-76707320D01*
X117872903Y-76700500D01*
X122311500Y-76700500D01*
X122378539Y-76720185D01*
G37*
%TD.AperFunction*%
%TD*%
M02*
