%TF.GenerationSoftware,KiCad,Pcbnew,10.0.4*%
%TF.CreationDate,2026-10-03T22:47:07+02:00*%
%TF.ProjectId,00-air-temp-monitor,30302d61-6972-42d7-9465-6d702d6d6f6e,rev?*%
%TF.SameCoordinates,Original*%
%TF.FileFunction,Legend,Bot*%
%TF.FilePolarity,Positive*%
%FSLAX46Y46*%
G04 Gerber Fmt 4.6, Leading zero omitted, Abs format (unit mm)*
G04 Created by KiCad (PCBNEW 10.0.4) date 2026-10-03 22:47:07*
%MOMM*%
%LPD*%
G01*
G04 APERTURE LIST*
%ADD10C,0.150000*%
%ADD11C,0.100000*%
%ADD12C,0.120000*%
G04 APERTURE END LIST*
D10*
X99837696Y-110965653D02*
X99918649Y-110925177D01*
X99918649Y-110925177D02*
X100040077Y-110925177D01*
X100040077Y-110925177D02*
X100161506Y-110965653D01*
X100161506Y-110965653D02*
X100242458Y-111046605D01*
X100242458Y-111046605D02*
X100282935Y-111127558D01*
X100282935Y-111127558D02*
X100323411Y-111289462D01*
X100323411Y-111289462D02*
X100323411Y-111410891D01*
X100323411Y-111410891D02*
X100282935Y-111572796D01*
X100282935Y-111572796D02*
X100242458Y-111653748D01*
X100242458Y-111653748D02*
X100161506Y-111734701D01*
X100161506Y-111734701D02*
X100040077Y-111775177D01*
X100040077Y-111775177D02*
X99959125Y-111775177D01*
X99959125Y-111775177D02*
X99837696Y-111734701D01*
X99837696Y-111734701D02*
X99797220Y-111694224D01*
X99797220Y-111694224D02*
X99797220Y-111410891D01*
X99797220Y-111410891D02*
X99959125Y-111410891D01*
X99432935Y-111775177D02*
X99432935Y-110925177D01*
X99432935Y-110925177D02*
X98947220Y-111775177D01*
X98947220Y-111775177D02*
X98947220Y-110925177D01*
X98542459Y-111775177D02*
X98542459Y-110925177D01*
X98542459Y-110925177D02*
X98340078Y-110925177D01*
X98340078Y-110925177D02*
X98218649Y-110965653D01*
X98218649Y-110965653D02*
X98137697Y-111046605D01*
X98137697Y-111046605D02*
X98097220Y-111127558D01*
X98097220Y-111127558D02*
X98056744Y-111289462D01*
X98056744Y-111289462D02*
X98056744Y-111410891D01*
X98056744Y-111410891D02*
X98097220Y-111572796D01*
X98097220Y-111572796D02*
X98137697Y-111653748D01*
X98137697Y-111653748D02*
X98218649Y-111734701D01*
X98218649Y-111734701D02*
X98340078Y-111775177D01*
X98340078Y-111775177D02*
X98542459Y-111775177D01*
X105022411Y-111734701D02*
X104900982Y-111775177D01*
X104900982Y-111775177D02*
X104698601Y-111775177D01*
X104698601Y-111775177D02*
X104617649Y-111734701D01*
X104617649Y-111734701D02*
X104577173Y-111694224D01*
X104577173Y-111694224D02*
X104536696Y-111613272D01*
X104536696Y-111613272D02*
X104536696Y-111532320D01*
X104536696Y-111532320D02*
X104577173Y-111451367D01*
X104577173Y-111451367D02*
X104617649Y-111410891D01*
X104617649Y-111410891D02*
X104698601Y-111370415D01*
X104698601Y-111370415D02*
X104860506Y-111329939D01*
X104860506Y-111329939D02*
X104941458Y-111289462D01*
X104941458Y-111289462D02*
X104981935Y-111248986D01*
X104981935Y-111248986D02*
X105022411Y-111168034D01*
X105022411Y-111168034D02*
X105022411Y-111087081D01*
X105022411Y-111087081D02*
X104981935Y-111006129D01*
X104981935Y-111006129D02*
X104941458Y-110965653D01*
X104941458Y-110965653D02*
X104860506Y-110925177D01*
X104860506Y-110925177D02*
X104658125Y-110925177D01*
X104658125Y-110925177D02*
X104536696Y-110965653D01*
X104253363Y-110925177D02*
X104050982Y-111775177D01*
X104050982Y-111775177D02*
X103889077Y-111168034D01*
X103889077Y-111168034D02*
X103727172Y-111775177D01*
X103727172Y-111775177D02*
X103524792Y-110925177D01*
X102715267Y-111694224D02*
X102755743Y-111734701D01*
X102755743Y-111734701D02*
X102877172Y-111775177D01*
X102877172Y-111775177D02*
X102958124Y-111775177D01*
X102958124Y-111775177D02*
X103079553Y-111734701D01*
X103079553Y-111734701D02*
X103160505Y-111653748D01*
X103160505Y-111653748D02*
X103200982Y-111572796D01*
X103200982Y-111572796D02*
X103241458Y-111410891D01*
X103241458Y-111410891D02*
X103241458Y-111289462D01*
X103241458Y-111289462D02*
X103200982Y-111127558D01*
X103200982Y-111127558D02*
X103160505Y-111046605D01*
X103160505Y-111046605D02*
X103079553Y-110965653D01*
X103079553Y-110965653D02*
X102958124Y-110925177D01*
X102958124Y-110925177D02*
X102877172Y-110925177D01*
X102877172Y-110925177D02*
X102755743Y-110965653D01*
X102755743Y-110965653D02*
X102715267Y-111006129D01*
X101946220Y-111775177D02*
X102350982Y-111775177D01*
X102350982Y-111775177D02*
X102350982Y-110925177D01*
X101662887Y-111775177D02*
X101662887Y-110925177D01*
X101177172Y-111775177D02*
X101541458Y-111289462D01*
X101177172Y-110925177D02*
X101662887Y-111410891D01*
X109340411Y-111734701D02*
X109218982Y-111775177D01*
X109218982Y-111775177D02*
X109016601Y-111775177D01*
X109016601Y-111775177D02*
X108935649Y-111734701D01*
X108935649Y-111734701D02*
X108895173Y-111694224D01*
X108895173Y-111694224D02*
X108854696Y-111613272D01*
X108854696Y-111613272D02*
X108854696Y-111532320D01*
X108854696Y-111532320D02*
X108895173Y-111451367D01*
X108895173Y-111451367D02*
X108935649Y-111410891D01*
X108935649Y-111410891D02*
X109016601Y-111370415D01*
X109016601Y-111370415D02*
X109178506Y-111329939D01*
X109178506Y-111329939D02*
X109259458Y-111289462D01*
X109259458Y-111289462D02*
X109299935Y-111248986D01*
X109299935Y-111248986D02*
X109340411Y-111168034D01*
X109340411Y-111168034D02*
X109340411Y-111087081D01*
X109340411Y-111087081D02*
X109299935Y-111006129D01*
X109299935Y-111006129D02*
X109259458Y-110965653D01*
X109259458Y-110965653D02*
X109178506Y-110925177D01*
X109178506Y-110925177D02*
X108976125Y-110925177D01*
X108976125Y-110925177D02*
X108854696Y-110965653D01*
X108571363Y-110925177D02*
X108368982Y-111775177D01*
X108368982Y-111775177D02*
X108207077Y-111168034D01*
X108207077Y-111168034D02*
X108045172Y-111775177D01*
X108045172Y-111775177D02*
X107842792Y-110925177D01*
X107518982Y-111775177D02*
X107518982Y-110925177D01*
X107518982Y-110925177D02*
X107316601Y-110925177D01*
X107316601Y-110925177D02*
X107195172Y-110965653D01*
X107195172Y-110965653D02*
X107114220Y-111046605D01*
X107114220Y-111046605D02*
X107073743Y-111127558D01*
X107073743Y-111127558D02*
X107033267Y-111289462D01*
X107033267Y-111289462D02*
X107033267Y-111410891D01*
X107033267Y-111410891D02*
X107073743Y-111572796D01*
X107073743Y-111572796D02*
X107114220Y-111653748D01*
X107114220Y-111653748D02*
X107195172Y-111734701D01*
X107195172Y-111734701D02*
X107316601Y-111775177D01*
X107316601Y-111775177D02*
X107518982Y-111775177D01*
X106668982Y-111775177D02*
X106668982Y-110925177D01*
X106102315Y-110925177D02*
X105940410Y-110925177D01*
X105940410Y-110925177D02*
X105859458Y-110965653D01*
X105859458Y-110965653D02*
X105778505Y-111046605D01*
X105778505Y-111046605D02*
X105738029Y-111208510D01*
X105738029Y-111208510D02*
X105738029Y-111491843D01*
X105738029Y-111491843D02*
X105778505Y-111653748D01*
X105778505Y-111653748D02*
X105859458Y-111734701D01*
X105859458Y-111734701D02*
X105940410Y-111775177D01*
X105940410Y-111775177D02*
X106102315Y-111775177D01*
X106102315Y-111775177D02*
X106183267Y-111734701D01*
X106183267Y-111734701D02*
X106264220Y-111653748D01*
X106264220Y-111653748D02*
X106304696Y-111491843D01*
X106304696Y-111491843D02*
X106304696Y-111208510D01*
X106304696Y-111208510D02*
X106264220Y-111046605D01*
X106264220Y-111046605D02*
X106183267Y-110965653D01*
X106183267Y-110965653D02*
X106102315Y-110925177D01*
X112047887Y-110925177D02*
X111521696Y-110925177D01*
X111521696Y-110925177D02*
X111805030Y-111248986D01*
X111805030Y-111248986D02*
X111683601Y-111248986D01*
X111683601Y-111248986D02*
X111602649Y-111289462D01*
X111602649Y-111289462D02*
X111562173Y-111329939D01*
X111562173Y-111329939D02*
X111521696Y-111410891D01*
X111521696Y-111410891D02*
X111521696Y-111613272D01*
X111521696Y-111613272D02*
X111562173Y-111694224D01*
X111562173Y-111694224D02*
X111602649Y-111734701D01*
X111602649Y-111734701D02*
X111683601Y-111775177D01*
X111683601Y-111775177D02*
X111926458Y-111775177D01*
X111926458Y-111775177D02*
X112007411Y-111734701D01*
X112007411Y-111734701D02*
X112047887Y-111694224D01*
X111278839Y-110925177D02*
X110995506Y-111775177D01*
X110995506Y-111775177D02*
X110712172Y-110925177D01*
X110509792Y-110925177D02*
X109983601Y-110925177D01*
X109983601Y-110925177D02*
X110266935Y-111248986D01*
X110266935Y-111248986D02*
X110145506Y-111248986D01*
X110145506Y-111248986D02*
X110064554Y-111289462D01*
X110064554Y-111289462D02*
X110024078Y-111329939D01*
X110024078Y-111329939D02*
X109983601Y-111410891D01*
X109983601Y-111410891D02*
X109983601Y-111613272D01*
X109983601Y-111613272D02*
X110024078Y-111694224D01*
X110024078Y-111694224D02*
X110064554Y-111734701D01*
X110064554Y-111734701D02*
X110145506Y-111775177D01*
X110145506Y-111775177D02*
X110388363Y-111775177D01*
X110388363Y-111775177D02*
X110469316Y-111734701D01*
X110469316Y-111734701D02*
X110509792Y-111694224D01*
X116192380Y-80728572D02*
X116192380Y-80040477D01*
X116192380Y-80040477D02*
X116232857Y-79959525D01*
X116232857Y-79959525D02*
X116273333Y-79919049D01*
X116273333Y-79919049D02*
X116354285Y-79878572D01*
X116354285Y-79878572D02*
X116516190Y-79878572D01*
X116516190Y-79878572D02*
X116597142Y-79919049D01*
X116597142Y-79919049D02*
X116637619Y-79959525D01*
X116637619Y-79959525D02*
X116678095Y-80040477D01*
X116678095Y-80040477D02*
X116678095Y-80728572D01*
X117447142Y-80445239D02*
X117447142Y-79878572D01*
X117244761Y-80769049D02*
X117042380Y-80161906D01*
X117042380Y-80161906D02*
X117568571Y-80161906D01*
X122224474Y-78574571D02*
X122264951Y-78534095D01*
X122264951Y-78534095D02*
X122305427Y-78412666D01*
X122305427Y-78412666D02*
X122305427Y-78331714D01*
X122305427Y-78331714D02*
X122264951Y-78210285D01*
X122264951Y-78210285D02*
X122183998Y-78129333D01*
X122183998Y-78129333D02*
X122103046Y-78088856D01*
X122103046Y-78088856D02*
X121941141Y-78048380D01*
X121941141Y-78048380D02*
X121819712Y-78048380D01*
X121819712Y-78048380D02*
X121657808Y-78088856D01*
X121657808Y-78088856D02*
X121576855Y-78129333D01*
X121576855Y-78129333D02*
X121495903Y-78210285D01*
X121495903Y-78210285D02*
X121455427Y-78331714D01*
X121455427Y-78331714D02*
X121455427Y-78412666D01*
X121455427Y-78412666D02*
X121495903Y-78534095D01*
X121495903Y-78534095D02*
X121536379Y-78574571D01*
X122305427Y-79384095D02*
X122305427Y-78898380D01*
X122305427Y-79141237D02*
X121455427Y-79141237D01*
X121455427Y-79141237D02*
X121576855Y-79060285D01*
X121576855Y-79060285D02*
X121657808Y-78979333D01*
X121657808Y-78979333D02*
X121698284Y-78898380D01*
X121738760Y-80112666D02*
X122305427Y-80112666D01*
X121414951Y-79910285D02*
X122022093Y-79707904D01*
X122022093Y-79707904D02*
X122022093Y-80234095D01*
X121162427Y-78979333D02*
X120757665Y-78695999D01*
X121162427Y-78493618D02*
X120312427Y-78493618D01*
X120312427Y-78493618D02*
X120312427Y-78817428D01*
X120312427Y-78817428D02*
X120352903Y-78898380D01*
X120352903Y-78898380D02*
X120393379Y-78938857D01*
X120393379Y-78938857D02*
X120474331Y-78979333D01*
X120474331Y-78979333D02*
X120595760Y-78979333D01*
X120595760Y-78979333D02*
X120676712Y-78938857D01*
X120676712Y-78938857D02*
X120717189Y-78898380D01*
X120717189Y-78898380D02*
X120757665Y-78817428D01*
X120757665Y-78817428D02*
X120757665Y-78493618D01*
X121162427Y-79384095D02*
X121162427Y-79545999D01*
X121162427Y-79545999D02*
X121121951Y-79626952D01*
X121121951Y-79626952D02*
X121081474Y-79667428D01*
X121081474Y-79667428D02*
X120960046Y-79748380D01*
X120960046Y-79748380D02*
X120798141Y-79788857D01*
X120798141Y-79788857D02*
X120474331Y-79788857D01*
X120474331Y-79788857D02*
X120393379Y-79748380D01*
X120393379Y-79748380D02*
X120352903Y-79707904D01*
X120352903Y-79707904D02*
X120312427Y-79626952D01*
X120312427Y-79626952D02*
X120312427Y-79465047D01*
X120312427Y-79465047D02*
X120352903Y-79384095D01*
X120352903Y-79384095D02*
X120393379Y-79343618D01*
X120393379Y-79343618D02*
X120474331Y-79303142D01*
X120474331Y-79303142D02*
X120676712Y-79303142D01*
X120676712Y-79303142D02*
X120757665Y-79343618D01*
X120757665Y-79343618D02*
X120798141Y-79384095D01*
X120798141Y-79384095D02*
X120838617Y-79465047D01*
X120838617Y-79465047D02*
X120838617Y-79626952D01*
X120838617Y-79626952D02*
X120798141Y-79707904D01*
X120798141Y-79707904D02*
X120757665Y-79748380D01*
X120757665Y-79748380D02*
X120676712Y-79788857D01*
D11*
X89144333Y-83405551D02*
X89022904Y-83446027D01*
X89022904Y-83446027D02*
X88820523Y-83446027D01*
X88820523Y-83446027D02*
X88739571Y-83405551D01*
X88739571Y-83405551D02*
X88699095Y-83365074D01*
X88699095Y-83365074D02*
X88658618Y-83284122D01*
X88658618Y-83284122D02*
X88658618Y-83203170D01*
X88658618Y-83203170D02*
X88699095Y-83122217D01*
X88699095Y-83122217D02*
X88739571Y-83081741D01*
X88739571Y-83081741D02*
X88820523Y-83041265D01*
X88820523Y-83041265D02*
X88982428Y-83000789D01*
X88982428Y-83000789D02*
X89063380Y-82960312D01*
X89063380Y-82960312D02*
X89103857Y-82919836D01*
X89103857Y-82919836D02*
X89144333Y-82838884D01*
X89144333Y-82838884D02*
X89144333Y-82757931D01*
X89144333Y-82757931D02*
X89103857Y-82676979D01*
X89103857Y-82676979D02*
X89063380Y-82636503D01*
X89063380Y-82636503D02*
X88982428Y-82596027D01*
X88982428Y-82596027D02*
X88780047Y-82596027D01*
X88780047Y-82596027D02*
X88658618Y-82636503D01*
X88375285Y-82596027D02*
X88172904Y-83446027D01*
X88172904Y-83446027D02*
X88010999Y-82838884D01*
X88010999Y-82838884D02*
X87849094Y-83446027D01*
X87849094Y-83446027D02*
X87646714Y-82596027D01*
X86877665Y-83446027D02*
X87363380Y-83446027D01*
X87120523Y-83446027D02*
X87120523Y-82596027D01*
X87120523Y-82596027D02*
X87201475Y-82717455D01*
X87201475Y-82717455D02*
X87282427Y-82798408D01*
X87282427Y-82798408D02*
X87363380Y-82838884D01*
X120236143Y-103689210D02*
X120357571Y-103648734D01*
X120357571Y-103648734D02*
X120398048Y-103608258D01*
X120398048Y-103608258D02*
X120438524Y-103527306D01*
X120438524Y-103527306D02*
X120438524Y-103405877D01*
X120438524Y-103405877D02*
X120398048Y-103324925D01*
X120398048Y-103324925D02*
X120357571Y-103284449D01*
X120357571Y-103284449D02*
X120276619Y-103243972D01*
X120276619Y-103243972D02*
X119952809Y-103243972D01*
X119952809Y-103243972D02*
X119952809Y-104093972D01*
X119952809Y-104093972D02*
X120236143Y-104093972D01*
X120236143Y-104093972D02*
X120317095Y-104053496D01*
X120317095Y-104053496D02*
X120357571Y-104013020D01*
X120357571Y-104013020D02*
X120398048Y-103932068D01*
X120398048Y-103932068D02*
X120398048Y-103851115D01*
X120398048Y-103851115D02*
X120357571Y-103770163D01*
X120357571Y-103770163D02*
X120317095Y-103729687D01*
X120317095Y-103729687D02*
X120236143Y-103689210D01*
X120236143Y-103689210D02*
X119952809Y-103689210D01*
X120681381Y-104093972D02*
X121167095Y-104093972D01*
X120924238Y-103243972D02*
X120924238Y-104093972D01*
X121895667Y-103243972D02*
X121409952Y-103243972D01*
X121652809Y-103243972D02*
X121652809Y-104093972D01*
X121652809Y-104093972D02*
X121571857Y-103972544D01*
X121571857Y-103972544D02*
X121490905Y-103891591D01*
X121490905Y-103891591D02*
X121409952Y-103851115D01*
D10*
X95264666Y-82808427D02*
X95548000Y-82403665D01*
X95750381Y-82808427D02*
X95750381Y-81958427D01*
X95750381Y-81958427D02*
X95426571Y-81958427D01*
X95426571Y-81958427D02*
X95345619Y-81998903D01*
X95345619Y-81998903D02*
X95305142Y-82039379D01*
X95305142Y-82039379D02*
X95264666Y-82120331D01*
X95264666Y-82120331D02*
X95264666Y-82241760D01*
X95264666Y-82241760D02*
X95305142Y-82322712D01*
X95305142Y-82322712D02*
X95345619Y-82363189D01*
X95345619Y-82363189D02*
X95426571Y-82403665D01*
X95426571Y-82403665D02*
X95750381Y-82403665D01*
X94455142Y-82808427D02*
X94940857Y-82808427D01*
X94698000Y-82808427D02*
X94698000Y-81958427D01*
X94698000Y-81958427D02*
X94778952Y-82079855D01*
X94778952Y-82079855D02*
X94859904Y-82160808D01*
X94859904Y-82160808D02*
X94940857Y-82201284D01*
X95952474Y-79233333D02*
X95992951Y-79192857D01*
X95992951Y-79192857D02*
X96033427Y-79071428D01*
X96033427Y-79071428D02*
X96033427Y-78990476D01*
X96033427Y-78990476D02*
X95992951Y-78869047D01*
X95992951Y-78869047D02*
X95911998Y-78788095D01*
X95911998Y-78788095D02*
X95831046Y-78747618D01*
X95831046Y-78747618D02*
X95669141Y-78707142D01*
X95669141Y-78707142D02*
X95547712Y-78707142D01*
X95547712Y-78707142D02*
X95385808Y-78747618D01*
X95385808Y-78747618D02*
X95304855Y-78788095D01*
X95304855Y-78788095D02*
X95223903Y-78869047D01*
X95223903Y-78869047D02*
X95183427Y-78990476D01*
X95183427Y-78990476D02*
X95183427Y-79071428D01*
X95183427Y-79071428D02*
X95223903Y-79192857D01*
X95223903Y-79192857D02*
X95264379Y-79233333D01*
X95183427Y-79516666D02*
X95183427Y-80083333D01*
X95183427Y-80083333D02*
X96033427Y-79719047D01*
X111458333Y-104991819D02*
X111458333Y-105706104D01*
X111458333Y-105706104D02*
X111505952Y-105848961D01*
X111505952Y-105848961D02*
X111601190Y-105944200D01*
X111601190Y-105944200D02*
X111744047Y-105991819D01*
X111744047Y-105991819D02*
X111839285Y-105991819D01*
X110458333Y-105991819D02*
X111029761Y-105991819D01*
X110744047Y-105991819D02*
X110744047Y-104991819D01*
X110744047Y-104991819D02*
X110839285Y-105134676D01*
X110839285Y-105134676D02*
X110934523Y-105229914D01*
X110934523Y-105229914D02*
X111029761Y-105277533D01*
X96642166Y-107727427D02*
X96925500Y-107322665D01*
X97127881Y-107727427D02*
X97127881Y-106877427D01*
X97127881Y-106877427D02*
X96804071Y-106877427D01*
X96804071Y-106877427D02*
X96723119Y-106917903D01*
X96723119Y-106917903D02*
X96682642Y-106958379D01*
X96682642Y-106958379D02*
X96642166Y-107039331D01*
X96642166Y-107039331D02*
X96642166Y-107160760D01*
X96642166Y-107160760D02*
X96682642Y-107241712D01*
X96682642Y-107241712D02*
X96723119Y-107282189D01*
X96723119Y-107282189D02*
X96804071Y-107322665D01*
X96804071Y-107322665D02*
X97127881Y-107322665D01*
X95913595Y-107160760D02*
X95913595Y-107727427D01*
X96115976Y-106836951D02*
X96318357Y-107444093D01*
X96318357Y-107444093D02*
X95792166Y-107444093D01*
%TO.C,SW1*%
D11*
X87158000Y-77506000D02*
X87158000Y-82006000D01*
X87158000Y-77506000D02*
X91658000Y-77506000D01*
X91658000Y-77506000D02*
X91658000Y-82006000D01*
X91658000Y-82006000D02*
X87158000Y-82006000D01*
%TO.C,BT1*%
X85632000Y-86996000D02*
X85632000Y-92456000D01*
X85632000Y-86996000D02*
X121632000Y-86996000D01*
X85632000Y-102996000D02*
X85632000Y-97536000D01*
X121632000Y-86996000D02*
X121632000Y-92456000D01*
X121632000Y-102996000D02*
X85632000Y-102996000D01*
X121632000Y-102996000D02*
X121632000Y-97536000D01*
%TO.C,R1*%
D12*
X95290621Y-80900000D02*
X94955379Y-80900000D01*
X95290621Y-81660000D02*
X94955379Y-81660000D01*
%TO.C,C7*%
X94128000Y-79490835D02*
X94128000Y-79259165D01*
X94848000Y-79490835D02*
X94848000Y-79259165D01*
%TO.C,J1*%
X101109000Y-109965000D02*
X101109000Y-107205000D01*
X108839000Y-107205000D02*
X101109000Y-107205000D01*
X108839000Y-109965000D02*
X101109000Y-109965000D01*
X108839000Y-109965000D02*
X108839000Y-107205000D01*
X110109000Y-109965000D02*
X111489000Y-109965000D01*
X111489000Y-109965000D02*
X111489000Y-108585000D01*
%TO.C,R4*%
X96332879Y-105792000D02*
X96668121Y-105792000D01*
X96332879Y-106552000D02*
X96668121Y-106552000D01*
%TD*%
M02*
